  0
SECTION
  2
HEADER
  9
$ACADVER
  1
AC1009
  9
$FILLMODE
 70
0
  9
$EXTMIN
 10
-0.006500
 20
-0.006500
 30
0.000000
  9
$EXTMAX
 10
24.006500
 20
18.006500
 30
0.000000
  0
ENDSEC
  0
SECTION
  2
TABLES
  0
TABLE
  2
LTYPE
 70
1
  0
LTYPE
  2
CONTINUOUS
 70
64
  3
Solid line
 72
65
 73
0
 40
0
  0
ENDTAB
  0
TABLE
  2
LAYER
 70
255
  0
LAYER
  2
1
 70
64
 62
22
  6
CONTINUOUS
  0
LAYER
  2
16
 70
64
 62
175
  6
CONTINUOUS
  0
LAYER
  2
17
 70
64
 62
82
  6
CONTINUOUS
  0
LAYER
  2
18
 70
64
 62
82
  6
CONTINUOUS
  0
LAYER
  2
19
 70
64
 62
53
  6
CONTINUOUS
  0
LAYER
  2
20
 70
64
 62
253
  6
CONTINUOUS
  0
LAYER
  2
21
 70
64
 62
7
  6
CONTINUOUS
  0
LAYER
  2
22
 70
64
 62
40
  6
CONTINUOUS
  0
LAYER
  2
23
 70
64
 62
53
  6
CONTINUOUS
  0
LAYER
  2
24
 70
64
 62
53
  6
CONTINUOUS
  0
LAYER
  2
25
 70
64
 62
253
  6
CONTINUOUS
  0
LAYER
  2
26
 70
64
 62
253
  6
CONTINUOUS
  0
LAYER
  2
27
 70
64
 62
253
  6
CONTINUOUS
  0
LAYER
  2
28
 70
64
 62
253
  6
CONTINUOUS
  0
LAYER
  2
29
 70
64
 62
253
  6
CONTINUOUS
  0
LAYER
  2
30
 70
64
 62
253
  6
CONTINUOUS
  0
LAYER
  2
31
 70
64
 62
253
  6
CONTINUOUS
  0
LAYER
  2
32
 70
64
 62
253
  6
CONTINUOUS
  0
LAYER
  2
33
 70
64
 62
53
  6
CONTINUOUS
  0
LAYER
  2
34
 70
64
 62
53
  6
CONTINUOUS
  0
LAYER
  2
35
 70
64
 62
253
  6
CONTINUOUS
  0
LAYER
  2
36
 70
64
 62
253
  6
CONTINUOUS
  0
LAYER
  2
37
 70
64
 62
253
  6
CONTINUOUS
  0
LAYER
  2
38
 70
64
 62
253
  6
CONTINUOUS
  0
LAYER
  2
39
 70
64
 62
22
  6
CONTINUOUS
  0
LAYER
  2
40
 70
64
 62
175
  6
CONTINUOUS
  0
LAYER
  2
41
 70
64
 62
22
  6
CONTINUOUS
  0
LAYER
  2
42
 70
64
 62
175
  6
CONTINUOUS
  0
LAYER
  2
43
 70
64
 62
82
  6
CONTINUOUS
  0
LAYER
  2
44
 70
64
 62
253
  6
CONTINUOUS
  0
LAYER
  2
45
 70
64
 62
253
  6
CONTINUOUS
  0
LAYER
  2
46
 70
64
 62
140
  6
CONTINUOUS
  0
LAYER
  2
47
 70
64
 62
253
  6
CONTINUOUS
  0
LAYER
  2
48
 70
64
 62
253
  6
CONTINUOUS
  0
LAYER
  2
50
 70
64
 62
253
  6
CONTINUOUS
  0
LAYER
  2
51
 70
64
 62
53
  6
CONTINUOUS
  0
LAYER
  2
52
 70
64
 62
253
  6
CONTINUOUS
  0
LAYER
  2
56
 70
64
 62
253
  6
CONTINUOUS
  0
LAYER
  2
101
 70
64
 62
1
  6
CONTINUOUS
  0
LAYER
  2
102
 70
64
 62
253
  6
CONTINUOUS
  0
LAYER
  2
103
 70
64
 62
253
  6
CONTINUOUS
  0
LAYER
  2
104
 70
64
 62
253
  6
CONTINUOUS
  0
LAYER
  2
105
 70
64
 62
253
  6
CONTINUOUS
  0
LAYER
  2
106
 70
64
 62
253
  6
CONTINUOUS
  0
LAYER
  2
107
 70
64
 62
253
  6
CONTINUOUS
  0
LAYER
  2
108
 70
64
 62
3
  6
CONTINUOUS
  0
LAYER
  2
109
 70
64
 62
4
  6
CONTINUOUS
  0
LAYER
  2
110
 70
64
 62
253
  6
CONTINUOUS
  0
LAYER
  2
111
 70
64
 62
253
  6
CONTINUOUS
  0
LAYER
  2
112
 70
64
 62
253
  6
CONTINUOUS
  0
LAYER
  2
113
 70
64
 62
22
  6
CONTINUOUS
  0
LAYER
  2
114
 70
64
 62
253
  6
CONTINUOUS
  0
LAYER
  2
115
 70
64
 62
253
  6
CONTINUOUS
  0
LAYER
  2
116
 70
64
 62
5
  6
CONTINUOUS
  0
LAYER
  2
118
 70
64
 62
253
  6
CONTINUOUS
  0
LAYER
  2
121
 70
64
 62
253
  6
CONTINUOUS
  0
LAYER
  2
122
 70
64
 62
253
  6
CONTINUOUS
  0
LAYER
  2
123
 70
64
 62
253
  6
CONTINUOUS
  0
LAYER
  2
124
 70
64
 62
253
  6
CONTINUOUS
  0
LAYER
  2
125
 70
64
 62
253
  6
CONTINUOUS
  0
LAYER
  2
126
 70
64
 62
253
  6
CONTINUOUS
  0
LAYER
  2
127
 70
64
 62
253
  6
CONTINUOUS
  0
LAYER
  2
128
 70
64
 62
253
  6
CONTINUOUS
  0
LAYER
  2
129
 70
64
 62
253
  6
CONTINUOUS
  0
LAYER
  2
131
 70
64
 62
253
  6
CONTINUOUS
  0
LAYER
  2
132
 70
64
 62
253
  6
CONTINUOUS
  0
LAYER
  2
144
 70
64
 62
253
  6
CONTINUOUS
  0
LAYER
  2
150
 70
64
 62
253
  6
CONTINUOUS
  0
LAYER
  2
151
 70
64
 62
253
  6
CONTINUOUS
  0
LAYER
  2
152
 70
64
 62
253
  6
CONTINUOUS
  0
LAYER
  2
153
 70
64
 62
253
  6
CONTINUOUS
  0
LAYER
  2
154
 70
64
 62
253
  6
CONTINUOUS
  0
LAYER
  2
155
 70
64
 62
253
  6
CONTINUOUS
  0
LAYER
  2
199
 70
64
 62
253
  6
CONTINUOUS
  0
LAYER
  2
203
 70
64
 62
3
  6
CONTINUOUS
  0
LAYER
  2
204
 70
64
 62
40
  6
CONTINUOUS
  0
LAYER
  2
205
 70
64
 62
53
  6
CONTINUOUS
  0
LAYER
  2
206
 70
64
 62
253
  6
CONTINUOUS
  0
LAYER
  2
207
 70
64
 62
59
  6
CONTINUOUS
  0
LAYER
  2
208
 70
64
 62
5
  6
CONTINUOUS
  0
LAYER
  2
209
 70
64
 62
253
  6
CONTINUOUS
  0
LAYER
  2
210
 70
64
 62
253
  6
CONTINUOUS
  0
LAYER
  2
211
 70
64
 62
253
  6
CONTINUOUS
  0
LAYER
  2
212
 70
64
 62
253
  6
CONTINUOUS
  0
LAYER
  2
213
 70
64
 62
253
  6
CONTINUOUS
  0
LAYER
  2
214
 70
64
 62
253
  6
CONTINUOUS
  0
LAYER
  2
215
 70
64
 62
253
  6
CONTINUOUS
  0
LAYER
  2
216
 70
64
 62
253
  6
CONTINUOUS
  0
LAYER
  2
225
 70
64
 62
253
  6
CONTINUOUS
  0
LAYER
  2
226
 70
64
 62
253
  6
CONTINUOUS
  0
LAYER
  2
227
 70
64
 62
253
  6
CONTINUOUS
  0
LAYER
  2
228
 70
64
 62
253
  6
CONTINUOUS
  0
LAYER
  2
229
 70
64
 62
253
  6
CONTINUOUS
  0
LAYER
  2
230
 70
64
 62
253
  6
CONTINUOUS
  0
LAYER
  2
231
 70
64
 62
253
  6
CONTINUOUS
  0
LAYER
  2
248
 70
64
 62
253
  6
CONTINUOUS
  0
LAYER
  2
249
 70
64
 62
253
  6
CONTINUOUS
  0
LAYER
  2
254
 70
64
 62
253
  6
CONTINUOUS
  0
LAYER
  2
255
 70
64
 62
253
  6
CONTINUOUS
  0
ENDTAB
  0
ENDSEC
  0
SECTION
  2
BLOCKS
  0
BLOCK
  8
0
  2
RECT
 70
64
 10
0.000000
 20
0.000000
 30
0.000000
  3
RECT
  0
SOLID
  8
0
 10
-0.500000
 20
-0.500000
 30
0.000000
 11
0.500000
 21
-0.500000
 31
0.000000
 12
-0.500000
 22
0.500000
 32
0.000000
 13
0.500000
 23
0.500000
 33
0.000000
  0
ENDBLK
  8
0
  0
BLOCK
  8
0
  2
PIE
 70
64
 10
0.000000
 20
0.000000
 30
0.000000
  3
PIE
  0
CIRCLE
  8
0
 10
0.000000
 20
0.000000
 30
0.000000
 40
0.500000
  0
ENDBLK
  8
0
  0
BLOCK
  8
0
  2
OCTAGONP
 70
64
 10
0.000000
 20
0.000000
 30
0.000000
  3
OCTAGONP
  0
POLYLINE
  8
0
 66
1
 10
0.000000
 20
0.000000
 30
0.000000
 40
0.000000
 41
0.000000
 70
1
  0
VERTEX
  8
0
 10
-0.500000
 20
-0.207107
 30
0.000000
  0
VERTEX
  8
0
 10
-0.500000
 20
0.207107
 30
0.000000
  0
VERTEX
  8
0
 10
-0.207107
 20
0.500000
 30
0.000000
  0
VERTEX
  8
0
 10
0.207107
 20
0.500000
 30
0.000000
  0
VERTEX
  8
0
 10
0.500000
 20
0.207107
 30
0.000000
  0
VERTEX
  8
0
 10
0.500000
 20
-0.207107
 30
0.000000
  0
VERTEX
  8
0
 10
0.207107
 20
-0.500000
 30
0.000000
  0
VERTEX
  8
0
 10
-0.207107
 20
-0.500000
 30
0.000000
  0
SEQEND
  8
0
  0
ENDBLK
  8
0
  0
BLOCK
  8
0
  2
SQUAREP
 70
64
 10
0.000000
 20
0.000000
 30
0.000000
  3
SQUAREP
  0
SOLID
  8
0
 10
-0.500000
 20
-0.500000
 30
0.000000
 11
0.500000
 21
-0.500000
 31
0.000000
 12
-0.500000
 22
0.500000
 32
0.000000
 13
0.500000
 23
0.500000
 33
0.000000
  0
ENDBLK
  8
0
  0
BLOCK
  8
0
  2
ROUNDP
 70
64
 10
0.000000
 20
0.000000
 30
0.000000
  3
ROUNDP
  0
CIRCLE
  8
0
 10
0.000000
 20
0.000000
 30
0.000000
 40
0.500000
  0
ENDBLK
  8
0
  0
BLOCK
  8
0
  2
ANNULUSP
 70
64
 10
0.000000
 20
0.000000
 30
0.000000
  3
ANNULUSP
  0
CIRCLE
  8
0
 10
0.000000
 20
0.000000
 30
0.000000
 40
0.500000
  0
ENDBLK
  8
0
  0
BLOCK
  8
0
  2
THERMALP
 70
64
 10
0.000000
 20
0.000000
 30
0.000000
  3
THERMALP
  0
LINE
  8
0
 10
-0.237868
 20
0.450000
 30
0.000000
 11
0.237868
 21
0.450000
 31
0.000000
  0
LINE
  8
0
 10
0.450000
 20
0.237868
 30
0.000000
 11
0.450000
 21
-0.237868
 31
0.000000
  0
LINE
  8
0
 10
0.237868
 20
-0.450000
 30
0.000000
 11
-0.237868
 21
-0.450000
 31
0.000000
  0
LINE
  8
0
 10
-0.450000
 20
-0.237868
 30
0.000000
 11
-0.450000
 21
0.237868
 31
0.000000
  0
ENDBLK
  8
0
  0
BLOCK
  8
0
  2
OCTAGONV
 70
64
 10
0.000000
 20
0.000000
 30
0.000000
  3
OCTAGONV
  0
POLYLINE
  8
0
 66
1
 10
0.000000
 20
0.000000
 30
0.000000
 40
0.000000
 41
0.000000
 70
1
  0
VERTEX
  8
0
 10
-0.500000
 20
-0.207107
 30
0.000000
  0
VERTEX
  8
0
 10
-0.500000
 20
0.207107
 30
0.000000
  0
VERTEX
  8
0
 10
-0.207107
 20
0.500000
 30
0.000000
  0
VERTEX
  8
0
 10
0.207107
 20
0.500000
 30
0.000000
  0
VERTEX
  8
0
 10
0.500000
 20
0.207107
 30
0.000000
  0
VERTEX
  8
0
 10
0.500000
 20
-0.207107
 30
0.000000
  0
VERTEX
  8
0
 10
0.207107
 20
-0.500000
 30
0.000000
  0
VERTEX
  8
0
 10
-0.207107
 20
-0.500000
 30
0.000000
  0
SEQEND
  8
0
  0
ENDBLK
  8
0
  0
BLOCK
  8
0
  2
SQUAREV
 70
64
 10
0.000000
 20
0.000000
 30
0.000000
  3
SQUAREV
  0
SOLID
  8
0
 10
-0.500000
 20
-0.500000
 30
0.000000
 11
0.500000
 21
-0.500000
 31
0.000000
 12
-0.500000
 22
0.500000
 32
0.000000
 13
0.500000
 23
0.500000
 33
0.000000
  0
ENDBLK
  8
0
  0
BLOCK
  8
0
  2
ROUNDV
 70
64
 10
0.000000
 20
0.000000
 30
0.000000
  3
ROUNDV
  0
CIRCLE
  8
0
 10
0.000000
 20
0.000000
 30
0.000000
 40
0.500000
  0
ENDBLK
  8
0
  0
BLOCK
  8
0
  2
ANNULUSV
 70
64
 10
0.000000
 20
0.000000
 30
0.000000
  3
ANNULUSV
  0
CIRCLE
  8
0
 10
0.000000
 20
0.000000
 30
0.000000
 40
0.500000
  0
ENDBLK
  8
0
  0
BLOCK
  8
0
  2
THERMALV
 70
64
 10
0.000000
 20
0.000000
 30
0.000000
  3
THERMALV
  0
LINE
  8
0
 10
-0.237868
 20
0.450000
 30
0.000000
 11
0.237868
 21
0.450000
 31
0.000000
  0
LINE
  8
0
 10
0.450000
 20
0.237868
 30
0.000000
 11
0.450000
 21
-0.237868
 31
0.000000
  0
LINE
  8
0
 10
0.237868
 20
-0.450000
 30
0.000000
 11
-0.237868
 21
-0.450000
 31
0.000000
  0
LINE
  8
0
 10
-0.450000
 20
-0.237868
 30
0.000000
 11
-0.450000
 21
0.237868
 31
0.000000
  0
ENDBLK
  8
0
  0
ENDSEC
  0
SECTION
  2
ENTITIES
  0
LINE
  8
203
 10
3.557500
 20
14.955000
 30
0.000000
 11
3.590000
 21
14.955000
 31
0.000000
  0
ARC
  8
203
 10
3.590000
 20
14.930000
 30
0.000000
 40
0.025000
 50
0.000000
 51
90.000000
  0
LINE
  8
203
 10
3.615000
 20
14.930000
 30
0.000000
 11
3.615000
 21
14.870000
 31
0.000000
  0
ARC
  8
203
 10
3.590000
 20
14.870000
 30
0.000000
 40
0.025000
 50
270.000000
 51
0.000000
  0
LINE
  8
203
 10
3.590000
 20
14.845000
 30
0.000000
 11
3.557500
 21
14.845000
 31
0.000000
  0
LINE
  8
203
 10
3.042500
 20
14.845000
 30
0.000000
 11
3.010000
 21
14.845000
 31
0.000000
  0
ARC
  8
203
 10
3.010000
 20
14.870000
 30
0.000000
 40
0.025000
 50
180.000000
 51
270.000000
  0
LINE
  8
203
 10
2.985000
 20
14.870000
 30
0.000000
 11
2.985000
 21
14.930000
 31
0.000000
  0
ARC
  8
203
 10
3.010000
 20
14.930000
 30
0.000000
 40
0.025000
 50
90.000000
 51
180.000000
  0
LINE
  8
203
 10
3.010000
 20
14.955000
 30
0.000000
 11
3.042500
 21
14.955000
 31
0.000000
  0
LINE
  8
203
 10
3.042500
 20
14.955000
 30
0.000000
 11
3.042900
 21
15.303600
 31
0.000000
  0
LINE
  8
203
 10
3.557500
 20
14.955000
 30
0.000000
 11
3.557700
 21
15.301400
 31
0.000000
  0
ARC
  8
203
 10
3.300000
 20
17.700000
 30
0.000000
 40
0.100000
 50
0.000000
 51
90.000000
  0
LINE
  8
203
 10
3.400000
 20
17.700000
 30
0.000000
 11
3.400000
 21
17.600000
 31
0.000000
  0
ARC
  8
203
 10
3.300000
 20
17.700000
 30
0.000000
 40
0.100000
 50
90.000000
 51
180.000000
  0
LINE
  8
203
 10
3.200000
 20
17.700000
 30
0.000000
 11
3.200000
 21
17.600000
 31
0.000000
  0
LINE
  8
203
 10
3.400000
 20
17.600000
 30
0.000000
 11
3.968300
 21
17.124200
 31
0.000000
  0
LINE
  8
203
 10
3.200000
 20
17.600000
 30
0.000000
 11
2.602800
 21
17.093800
 31
0.000000
  0
LINE
  8
203
 10
2.602800
 20
17.093800
 30
0.000000
 11
2.585600
 21
17.078000
 31
0.000000
  0
ARC
  8
203
 10
3.340022
 20
16.325873
 30
0.000000
 40
1.065292
 50
135.087300
 51
252.337374
  0
LINE
  8
203
 10
3.016800
 20
15.310800
 30
0.000000
 11
3.042900
 21
15.303600
 31
0.000000
  0
LINE
  8
203
 10
3.968300
 20
17.124200
 30
0.000000
 11
3.993300
 21
17.101200
 31
0.000000
  0
ARC
  8
203
 10
3.258550
 20
16.326991
 30
0.000000
 40
1.067360
 50
289.571660
 51
46.497908
  0
LINE
  8
203
 10
3.616100
 20
15.321300
 30
0.000000
 11
3.557700
 21
15.301400
 31
0.000000
  0
LINE
  8
203
 10
3.557500
 20
14.845000
 30
0.000000
 11
3.557500
 21
14.800000
 31
0.000000
  0
ARC
  8
203
 10
3.535000
 20
14.797500
 30
0.000000
 40
0.022638
 50
276.340192
 51
6.340192
  0
LINE
  8
203
 10
3.537500
 20
14.775000
 30
0.000000
 11
3.062500
 21
14.775000
 31
0.000000
  0
ARC
  8
203
 10
3.065000
 20
14.797500
 30
0.000000
 40
0.022638
 50
173.659808
 51
263.659808
  0
LINE
  8
203
 10
3.042500
 20
14.800000
 30
0.000000
 11
3.042500
 21
14.845000
 31
0.000000
  0
LINE
  8
203
 10
5.657500
 20
14.955000
 30
0.000000
 11
5.690000
 21
14.955000
 31
0.000000
  0
ARC
  8
203
 10
5.690000
 20
14.930000
 30
0.000000
 40
0.025000
 50
0.000000
 51
90.000000
  0
LINE
  8
203
 10
5.715000
 20
14.930000
 30
0.000000
 11
5.715000
 21
14.870000
 31
0.000000
  0
ARC
  8
203
 10
5.690000
 20
14.870000
 30
0.000000
 40
0.025000
 50
270.000000
 51
0.000000
  0
LINE
  8
203
 10
5.690000
 20
14.845000
 30
0.000000
 11
5.657500
 21
14.845000
 31
0.000000
  0
LINE
  8
203
 10
5.142500
 20
14.845000
 30
0.000000
 11
5.110000
 21
14.845000
 31
0.000000
  0
ARC
  8
203
 10
5.110000
 20
14.870000
 30
0.000000
 40
0.025000
 50
180.000000
 51
270.000000
  0
LINE
  8
203
 10
5.085000
 20
14.870000
 30
0.000000
 11
5.085000
 21
14.930000
 31
0.000000
  0
ARC
  8
203
 10
5.110000
 20
14.930000
 30
0.000000
 40
0.025000
 50
90.000000
 51
180.000000
  0
LINE
  8
203
 10
5.110000
 20
14.955000
 30
0.000000
 11
5.142500
 21
14.955000
 31
0.000000
  0
LINE
  8
203
 10
5.142500
 20
14.955000
 30
0.000000
 11
5.142900
 21
15.303600
 31
0.000000
  0
LINE
  8
203
 10
5.657500
 20
14.955000
 30
0.000000
 11
5.657700
 21
15.301400
 31
0.000000
  0
ARC
  8
203
 10
5.400000
 20
17.700000
 30
0.000000
 40
0.100000
 50
0.000000
 51
90.000000
  0
LINE
  8
203
 10
5.500000
 20
17.700000
 30
0.000000
 11
5.500000
 21
17.600000
 31
0.000000
  0
ARC
  8
203
 10
5.400000
 20
17.700000
 30
0.000000
 40
0.100000
 50
90.000000
 51
180.000000
  0
LINE
  8
203
 10
5.300000
 20
17.700000
 30
0.000000
 11
5.300000
 21
17.600000
 31
0.000000
  0
LINE
  8
203
 10
5.500000
 20
17.600000
 30
0.000000
 11
6.068300
 21
17.124200
 31
0.000000
  0
LINE
  8
203
 10
5.300000
 20
17.600000
 30
0.000000
 11
4.702800
 21
17.093800
 31
0.000000
  0
LINE
  8
203
 10
4.702800
 20
17.093800
 30
0.000000
 11
4.685600
 21
17.078000
 31
0.000000
  0
ARC
  8
203
 10
5.440022
 20
16.325873
 30
0.000000
 40
1.065292
 50
135.087300
 51
252.337374
  0
LINE
  8
203
 10
5.116800
 20
15.310800
 30
0.000000
 11
5.142900
 21
15.303600
 31
0.000000
  0
LINE
  8
203
 10
6.068300
 20
17.124200
 30
0.000000
 11
6.093300
 21
17.101200
 31
0.000000
  0
ARC
  8
203
 10
5.358550
 20
16.326991
 30
0.000000
 40
1.067360
 50
289.571660
 51
46.497908
  0
LINE
  8
203
 10
5.716100
 20
15.321300
 30
0.000000
 11
5.657700
 21
15.301400
 31
0.000000
  0
LINE
  8
203
 10
5.657500
 20
14.845000
 30
0.000000
 11
5.657500
 21
14.800000
 31
0.000000
  0
ARC
  8
203
 10
5.635000
 20
14.797500
 30
0.000000
 40
0.022638
 50
276.340192
 51
6.340192
  0
LINE
  8
203
 10
5.637500
 20
14.775000
 30
0.000000
 11
5.162500
 21
14.775000
 31
0.000000
  0
ARC
  8
203
 10
5.165000
 20
14.797500
 30
0.000000
 40
0.022638
 50
173.659808
 51
263.659808
  0
LINE
  8
203
 10
5.142500
 20
14.800000
 30
0.000000
 11
5.142500
 21
14.845000
 31
0.000000
  0
LINE
  8
203
 10
7.757500
 20
14.955000
 30
0.000000
 11
7.790000
 21
14.955000
 31
0.000000
  0
ARC
  8
203
 10
7.790000
 20
14.930000
 30
0.000000
 40
0.025000
 50
0.000000
 51
90.000000
  0
LINE
  8
203
 10
7.815000
 20
14.930000
 30
0.000000
 11
7.815000
 21
14.870000
 31
0.000000
  0
ARC
  8
203
 10
7.790000
 20
14.870000
 30
0.000000
 40
0.025000
 50
270.000000
 51
0.000000
  0
LINE
  8
203
 10
7.790000
 20
14.845000
 30
0.000000
 11
7.757500
 21
14.845000
 31
0.000000
  0
LINE
  8
203
 10
7.242500
 20
14.845000
 30
0.000000
 11
7.210000
 21
14.845000
 31
0.000000
  0
ARC
  8
203
 10
7.210000
 20
14.870000
 30
0.000000
 40
0.025000
 50
180.000000
 51
270.000000
  0
LINE
  8
203
 10
7.185000
 20
14.870000
 30
0.000000
 11
7.185000
 21
14.930000
 31
0.000000
  0
ARC
  8
203
 10
7.210000
 20
14.930000
 30
0.000000
 40
0.025000
 50
90.000000
 51
180.000000
  0
LINE
  8
203
 10
7.210000
 20
14.955000
 30
0.000000
 11
7.242500
 21
14.955000
 31
0.000000
  0
LINE
  8
203
 10
7.242500
 20
14.955000
 30
0.000000
 11
7.242900
 21
15.303600
 31
0.000000
  0
LINE
  8
203
 10
7.757500
 20
14.955000
 30
0.000000
 11
7.757700
 21
15.301400
 31
0.000000
  0
ARC
  8
203
 10
7.500000
 20
17.700000
 30
0.000000
 40
0.100000
 50
0.000000
 51
90.000000
  0
LINE
  8
203
 10
7.600000
 20
17.700000
 30
0.000000
 11
7.600000
 21
17.600000
 31
0.000000
  0
ARC
  8
203
 10
7.500000
 20
17.700000
 30
0.000000
 40
0.100000
 50
90.000000
 51
180.000000
  0
LINE
  8
203
 10
7.400000
 20
17.700000
 30
0.000000
 11
7.400000
 21
17.600000
 31
0.000000
  0
LINE
  8
203
 10
7.600000
 20
17.600000
 30
0.000000
 11
8.168300
 21
17.124200
 31
0.000000
  0
LINE
  8
203
 10
7.400000
 20
17.600000
 30
0.000000
 11
6.802800
 21
17.093800
 31
0.000000
  0
LINE
  8
203
 10
6.802800
 20
17.093800
 30
0.000000
 11
6.785600
 21
17.078000
 31
0.000000
  0
ARC
  8
203
 10
7.540022
 20
16.325873
 30
0.000000
 40
1.065292
 50
135.087300
 51
252.337374
  0
LINE
  8
203
 10
7.216800
 20
15.310800
 30
0.000000
 11
7.242900
 21
15.303600
 31
0.000000
  0
LINE
  8
203
 10
8.168300
 20
17.124200
 30
0.000000
 11
8.193300
 21
17.101200
 31
0.000000
  0
ARC
  8
203
 10
7.458550
 20
16.326991
 30
0.000000
 40
1.067360
 50
289.571660
 51
46.497908
  0
LINE
  8
203
 10
7.816100
 20
15.321300
 30
0.000000
 11
7.757700
 21
15.301400
 31
0.000000
  0
LINE
  8
203
 10
7.757500
 20
14.845000
 30
0.000000
 11
7.757500
 21
14.800000
 31
0.000000
  0
ARC
  8
203
 10
7.735000
 20
14.797500
 30
0.000000
 40
0.022638
 50
276.340192
 51
6.340192
  0
LINE
  8
203
 10
7.737500
 20
14.775000
 30
0.000000
 11
7.262500
 21
14.775000
 31
0.000000
  0
ARC
  8
203
 10
7.265000
 20
14.797500
 30
0.000000
 40
0.022638
 50
173.659808
 51
263.659808
  0
LINE
  8
203
 10
7.242500
 20
14.800000
 30
0.000000
 11
7.242500
 21
14.845000
 31
0.000000
  0
LINE
  8
203
 10
9.857500
 20
14.955000
 30
0.000000
 11
9.890000
 21
14.955000
 31
0.000000
  0
ARC
  8
203
 10
9.890000
 20
14.930000
 30
0.000000
 40
0.025000
 50
0.000000
 51
90.000000
  0
LINE
  8
203
 10
9.915000
 20
14.930000
 30
0.000000
 11
9.915000
 21
14.870000
 31
0.000000
  0
ARC
  8
203
 10
9.890000
 20
14.870000
 30
0.000000
 40
0.025000
 50
270.000000
 51
0.000000
  0
LINE
  8
203
 10
9.890000
 20
14.845000
 30
0.000000
 11
9.857500
 21
14.845000
 31
0.000000
  0
LINE
  8
203
 10
9.342500
 20
14.845000
 30
0.000000
 11
9.310000
 21
14.845000
 31
0.000000
  0
ARC
  8
203
 10
9.310000
 20
14.870000
 30
0.000000
 40
0.025000
 50
180.000000
 51
270.000000
  0
LINE
  8
203
 10
9.285000
 20
14.870000
 30
0.000000
 11
9.285000
 21
14.930000
 31
0.000000
  0
ARC
  8
203
 10
9.310000
 20
14.930000
 30
0.000000
 40
0.025000
 50
90.000000
 51
180.000000
  0
LINE
  8
203
 10
9.310000
 20
14.955000
 30
0.000000
 11
9.342500
 21
14.955000
 31
0.000000
  0
LINE
  8
203
 10
9.342500
 20
14.955000
 30
0.000000
 11
9.342900
 21
15.303600
 31
0.000000
  0
LINE
  8
203
 10
9.857500
 20
14.955000
 30
0.000000
 11
9.857700
 21
15.301400
 31
0.000000
  0
ARC
  8
203
 10
9.600000
 20
17.700000
 30
0.000000
 40
0.100000
 50
0.000000
 51
90.000000
  0
LINE
  8
203
 10
9.700000
 20
17.700000
 30
0.000000
 11
9.700000
 21
17.600000
 31
0.000000
  0
ARC
  8
203
 10
9.600000
 20
17.700000
 30
0.000000
 40
0.100000
 50
90.000000
 51
180.000000
  0
LINE
  8
203
 10
9.500000
 20
17.700000
 30
0.000000
 11
9.500000
 21
17.600000
 31
0.000000
  0
LINE
  8
203
 10
9.700000
 20
17.600000
 30
0.000000
 11
10.268300
 21
17.124200
 31
0.000000
  0
LINE
  8
203
 10
9.500000
 20
17.600000
 30
0.000000
 11
8.902800
 21
17.093800
 31
0.000000
  0
LINE
  8
203
 10
8.902800
 20
17.093800
 30
0.000000
 11
8.885600
 21
17.078000
 31
0.000000
  0
ARC
  8
203
 10
9.640022
 20
16.325873
 30
0.000000
 40
1.065292
 50
135.087300
 51
252.337374
  0
LINE
  8
203
 10
9.316800
 20
15.310800
 30
0.000000
 11
9.342900
 21
15.303600
 31
0.000000
  0
LINE
  8
203
 10
10.268300
 20
17.124200
 30
0.000000
 11
10.293300
 21
17.101200
 31
0.000000
  0
ARC
  8
203
 10
9.558550
 20
16.326991
 30
0.000000
 40
1.067360
 50
289.571660
 51
46.497908
  0
LINE
  8
203
 10
9.916100
 20
15.321300
 30
0.000000
 11
9.857700
 21
15.301400
 31
0.000000
  0
LINE
  8
203
 10
9.857500
 20
14.845000
 30
0.000000
 11
9.857500
 21
14.800000
 31
0.000000
  0
ARC
  8
203
 10
9.835000
 20
14.797500
 30
0.000000
 40
0.022638
 50
276.340192
 51
6.340192
  0
LINE
  8
203
 10
9.837500
 20
14.775000
 30
0.000000
 11
9.362500
 21
14.775000
 31
0.000000
  0
ARC
  8
203
 10
9.365000
 20
14.797500
 30
0.000000
 40
0.022638
 50
173.659808
 51
263.659808
  0
LINE
  8
203
 10
9.342500
 20
14.800000
 30
0.000000
 11
9.342500
 21
14.845000
 31
0.000000
  0
LINE
  8
203
 10
11.957500
 20
14.955000
 30
0.000000
 11
11.990000
 21
14.955000
 31
0.000000
  0
ARC
  8
203
 10
11.990000
 20
14.930000
 30
0.000000
 40
0.025000
 50
0.000000
 51
90.000000
  0
LINE
  8
203
 10
12.015000
 20
14.930000
 30
0.000000
 11
12.015000
 21
14.870000
 31
0.000000
  0
ARC
  8
203
 10
11.990000
 20
14.870000
 30
0.000000
 40
0.025000
 50
270.000000
 51
0.000000
  0
LINE
  8
203
 10
11.990000
 20
14.845000
 30
0.000000
 11
11.957500
 21
14.845000
 31
0.000000
  0
LINE
  8
203
 10
11.442500
 20
14.845000
 30
0.000000
 11
11.410000
 21
14.845000
 31
0.000000
  0
ARC
  8
203
 10
11.410000
 20
14.870000
 30
0.000000
 40
0.025000
 50
180.000000
 51
270.000000
  0
LINE
  8
203
 10
11.385000
 20
14.870000
 30
0.000000
 11
11.385000
 21
14.930000
 31
0.000000
  0
ARC
  8
203
 10
11.410000
 20
14.930000
 30
0.000000
 40
0.025000
 50
90.000000
 51
180.000000
  0
LINE
  8
203
 10
11.410000
 20
14.955000
 30
0.000000
 11
11.442500
 21
14.955000
 31
0.000000
  0
LINE
  8
203
 10
11.442500
 20
14.955000
 30
0.000000
 11
11.442900
 21
15.303600
 31
0.000000
  0
LINE
  8
203
 10
11.957500
 20
14.955000
 30
0.000000
 11
11.957700
 21
15.301400
 31
0.000000
  0
ARC
  8
203
 10
11.700000
 20
17.700000
 30
0.000000
 40
0.100000
 50
0.000000
 51
90.000000
  0
LINE
  8
203
 10
11.800000
 20
17.700000
 30
0.000000
 11
11.800000
 21
17.600000
 31
0.000000
  0
ARC
  8
203
 10
11.700000
 20
17.700000
 30
0.000000
 40
0.100000
 50
90.000000
 51
180.000000
  0
LINE
  8
203
 10
11.600000
 20
17.700000
 30
0.000000
 11
11.600000
 21
17.600000
 31
0.000000
  0
LINE
  8
203
 10
11.800000
 20
17.600000
 30
0.000000
 11
12.368300
 21
17.124200
 31
0.000000
  0
LINE
  8
203
 10
11.600000
 20
17.600000
 30
0.000000
 11
11.002800
 21
17.093800
 31
0.000000
  0
LINE
  8
203
 10
11.002800
 20
17.093800
 30
0.000000
 11
10.985600
 21
17.078000
 31
0.000000
  0
ARC
  8
203
 10
11.740022
 20
16.325873
 30
0.000000
 40
1.065292
 50
135.087300
 51
252.337374
  0
LINE
  8
203
 10
11.416800
 20
15.310800
 30
0.000000
 11
11.442900
 21
15.303600
 31
0.000000
  0
LINE
  8
203
 10
12.368300
 20
17.124200
 30
0.000000
 11
12.393300
 21
17.101200
 31
0.000000
  0
ARC
  8
203
 10
11.658550
 20
16.326991
 30
0.000000
 40
1.067360
 50
289.571660
 51
46.497908
  0
LINE
  8
203
 10
12.016100
 20
15.321300
 30
0.000000
 11
11.957700
 21
15.301400
 31
0.000000
  0
LINE
  8
203
 10
11.957500
 20
14.845000
 30
0.000000
 11
11.957500
 21
14.800000
 31
0.000000
  0
ARC
  8
203
 10
11.935000
 20
14.797500
 30
0.000000
 40
0.022638
 50
276.340192
 51
6.340192
  0
LINE
  8
203
 10
11.937500
 20
14.775000
 30
0.000000
 11
11.462500
 21
14.775000
 31
0.000000
  0
ARC
  8
203
 10
11.465000
 20
14.797500
 30
0.000000
 40
0.022638
 50
173.659808
 51
263.659808
  0
LINE
  8
203
 10
11.442500
 20
14.800000
 30
0.000000
 11
11.442500
 21
14.845000
 31
0.000000
  0
LINE
  8
203
 10
14.057500
 20
14.955000
 30
0.000000
 11
14.090000
 21
14.955000
 31
0.000000
  0
ARC
  8
203
 10
14.090000
 20
14.930000
 30
0.000000
 40
0.025000
 50
0.000000
 51
90.000000
  0
LINE
  8
203
 10
14.115000
 20
14.930000
 30
0.000000
 11
14.115000
 21
14.870000
 31
0.000000
  0
ARC
  8
203
 10
14.090000
 20
14.870000
 30
0.000000
 40
0.025000
 50
270.000000
 51
0.000000
  0
LINE
  8
203
 10
14.090000
 20
14.845000
 30
0.000000
 11
14.057500
 21
14.845000
 31
0.000000
  0
LINE
  8
203
 10
13.542500
 20
14.845000
 30
0.000000
 11
13.510000
 21
14.845000
 31
0.000000
  0
ARC
  8
203
 10
13.510000
 20
14.870000
 30
0.000000
 40
0.025000
 50
180.000000
 51
270.000000
  0
LINE
  8
203
 10
13.485000
 20
14.870000
 30
0.000000
 11
13.485000
 21
14.930000
 31
0.000000
  0
ARC
  8
203
 10
13.510000
 20
14.930000
 30
0.000000
 40
0.025000
 50
90.000000
 51
180.000000
  0
LINE
  8
203
 10
13.510000
 20
14.955000
 30
0.000000
 11
13.542500
 21
14.955000
 31
0.000000
  0
LINE
  8
203
 10
13.542500
 20
14.955000
 30
0.000000
 11
13.542900
 21
15.303600
 31
0.000000
  0
LINE
  8
203
 10
14.057500
 20
14.955000
 30
0.000000
 11
14.057700
 21
15.301400
 31
0.000000
  0
ARC
  8
203
 10
13.800000
 20
17.700000
 30
0.000000
 40
0.100000
 50
0.000000
 51
90.000000
  0
LINE
  8
203
 10
13.900000
 20
17.700000
 30
0.000000
 11
13.900000
 21
17.600000
 31
0.000000
  0
ARC
  8
203
 10
13.800000
 20
17.700000
 30
0.000000
 40
0.100000
 50
90.000000
 51
180.000000
  0
LINE
  8
203
 10
13.700000
 20
17.700000
 30
0.000000
 11
13.700000
 21
17.600000
 31
0.000000
  0
LINE
  8
203
 10
13.900000
 20
17.600000
 30
0.000000
 11
14.468300
 21
17.124200
 31
0.000000
  0
LINE
  8
203
 10
13.700000
 20
17.600000
 30
0.000000
 11
13.102800
 21
17.093800
 31
0.000000
  0
LINE
  8
203
 10
13.102800
 20
17.093800
 30
0.000000
 11
13.085600
 21
17.078000
 31
0.000000
  0
ARC
  8
203
 10
13.840022
 20
16.325873
 30
0.000000
 40
1.065292
 50
135.087300
 51
252.337374
  0
LINE
  8
203
 10
13.516800
 20
15.310800
 30
0.000000
 11
13.542900
 21
15.303600
 31
0.000000
  0
LINE
  8
203
 10
14.468300
 20
17.124200
 30
0.000000
 11
14.493300
 21
17.101200
 31
0.000000
  0
ARC
  8
203
 10
13.758550
 20
16.326991
 30
0.000000
 40
1.067360
 50
289.571660
 51
46.497908
  0
LINE
  8
203
 10
14.116100
 20
15.321300
 30
0.000000
 11
14.057700
 21
15.301400
 31
0.000000
  0
LINE
  8
203
 10
14.057500
 20
14.845000
 30
0.000000
 11
14.057500
 21
14.800000
 31
0.000000
  0
ARC
  8
203
 10
14.035000
 20
14.797500
 30
0.000000
 40
0.022638
 50
276.340192
 51
6.340192
  0
LINE
  8
203
 10
14.037500
 20
14.775000
 30
0.000000
 11
13.562500
 21
14.775000
 31
0.000000
  0
ARC
  8
203
 10
13.565000
 20
14.797500
 30
0.000000
 40
0.022638
 50
173.659808
 51
263.659808
  0
LINE
  8
203
 10
13.542500
 20
14.800000
 30
0.000000
 11
13.542500
 21
14.845000
 31
0.000000
  0
LINE
  8
203
 10
16.157500
 20
14.955000
 30
0.000000
 11
16.190000
 21
14.955000
 31
0.000000
  0
ARC
  8
203
 10
16.190000
 20
14.930000
 30
0.000000
 40
0.025000
 50
0.000000
 51
90.000000
  0
LINE
  8
203
 10
16.215000
 20
14.930000
 30
0.000000
 11
16.215000
 21
14.870000
 31
0.000000
  0
ARC
  8
203
 10
16.190000
 20
14.870000
 30
0.000000
 40
0.025000
 50
270.000000
 51
0.000000
  0
LINE
  8
203
 10
16.190000
 20
14.845000
 30
0.000000
 11
16.157500
 21
14.845000
 31
0.000000
  0
LINE
  8
203
 10
15.642500
 20
14.845000
 30
0.000000
 11
15.610000
 21
14.845000
 31
0.000000
  0
ARC
  8
203
 10
15.610000
 20
14.870000
 30
0.000000
 40
0.025000
 50
180.000000
 51
270.000000
  0
LINE
  8
203
 10
15.585000
 20
14.870000
 30
0.000000
 11
15.585000
 21
14.930000
 31
0.000000
  0
ARC
  8
203
 10
15.610000
 20
14.930000
 30
0.000000
 40
0.025000
 50
90.000000
 51
180.000000
  0
LINE
  8
203
 10
15.610000
 20
14.955000
 30
0.000000
 11
15.642500
 21
14.955000
 31
0.000000
  0
LINE
  8
203
 10
15.642500
 20
14.955000
 30
0.000000
 11
15.642900
 21
15.303600
 31
0.000000
  0
LINE
  8
203
 10
16.157500
 20
14.955000
 30
0.000000
 11
16.157700
 21
15.301400
 31
0.000000
  0
ARC
  8
203
 10
15.900000
 20
17.700000
 30
0.000000
 40
0.100000
 50
0.000000
 51
90.000000
  0
LINE
  8
203
 10
16.000000
 20
17.700000
 30
0.000000
 11
16.000000
 21
17.600000
 31
0.000000
  0
ARC
  8
203
 10
15.900000
 20
17.700000
 30
0.000000
 40
0.100000
 50
90.000000
 51
180.000000
  0
LINE
  8
203
 10
15.800000
 20
17.700000
 30
0.000000
 11
15.800000
 21
17.600000
 31
0.000000
  0
LINE
  8
203
 10
16.000000
 20
17.600000
 30
0.000000
 11
16.568300
 21
17.124200
 31
0.000000
  0
LINE
  8
203
 10
15.800000
 20
17.600000
 30
0.000000
 11
15.202800
 21
17.093800
 31
0.000000
  0
LINE
  8
203
 10
15.202800
 20
17.093800
 30
0.000000
 11
15.185600
 21
17.078000
 31
0.000000
  0
ARC
  8
203
 10
15.940022
 20
16.325873
 30
0.000000
 40
1.065292
 50
135.087300
 51
252.337374
  0
LINE
  8
203
 10
15.616800
 20
15.310800
 30
0.000000
 11
15.642900
 21
15.303600
 31
0.000000
  0
LINE
  8
203
 10
16.568300
 20
17.124200
 30
0.000000
 11
16.593300
 21
17.101200
 31
0.000000
  0
ARC
  8
203
 10
15.858550
 20
16.326991
 30
0.000000
 40
1.067360
 50
289.571660
 51
46.497908
  0
LINE
  8
203
 10
16.216100
 20
15.321300
 30
0.000000
 11
16.157700
 21
15.301400
 31
0.000000
  0
LINE
  8
203
 10
16.157500
 20
14.845000
 30
0.000000
 11
16.157500
 21
14.800000
 31
0.000000
  0
ARC
  8
203
 10
16.135000
 20
14.797500
 30
0.000000
 40
0.022638
 50
276.340192
 51
6.340192
  0
LINE
  8
203
 10
16.137500
 20
14.775000
 30
0.000000
 11
15.662500
 21
14.775000
 31
0.000000
  0
ARC
  8
203
 10
15.665000
 20
14.797500
 30
0.000000
 40
0.022638
 50
173.659808
 51
263.659808
  0
LINE
  8
203
 10
15.642500
 20
14.800000
 30
0.000000
 11
15.642500
 21
14.845000
 31
0.000000
  0
LINE
  8
203
 10
18.257500
 20
14.955000
 30
0.000000
 11
18.290000
 21
14.955000
 31
0.000000
  0
ARC
  8
203
 10
18.290000
 20
14.930000
 30
0.000000
 40
0.025000
 50
0.000000
 51
90.000000
  0
LINE
  8
203
 10
18.315000
 20
14.930000
 30
0.000000
 11
18.315000
 21
14.870000
 31
0.000000
  0
ARC
  8
203
 10
18.290000
 20
14.870000
 30
0.000000
 40
0.025000
 50
270.000000
 51
0.000000
  0
LINE
  8
203
 10
18.290000
 20
14.845000
 30
0.000000
 11
18.257500
 21
14.845000
 31
0.000000
  0
LINE
  8
203
 10
17.742500
 20
14.845000
 30
0.000000
 11
17.710000
 21
14.845000
 31
0.000000
  0
ARC
  8
203
 10
17.710000
 20
14.870000
 30
0.000000
 40
0.025000
 50
180.000000
 51
270.000000
  0
LINE
  8
203
 10
17.685000
 20
14.870000
 30
0.000000
 11
17.685000
 21
14.930000
 31
0.000000
  0
ARC
  8
203
 10
17.710000
 20
14.930000
 30
0.000000
 40
0.025000
 50
90.000000
 51
180.000000
  0
LINE
  8
203
 10
17.710000
 20
14.955000
 30
0.000000
 11
17.742500
 21
14.955000
 31
0.000000
  0
LINE
  8
203
 10
17.742500
 20
14.955000
 30
0.000000
 11
17.742900
 21
15.303600
 31
0.000000
  0
LINE
  8
203
 10
18.257500
 20
14.955000
 30
0.000000
 11
18.257700
 21
15.301400
 31
0.000000
  0
ARC
  8
203
 10
18.000000
 20
17.700000
 30
0.000000
 40
0.100000
 50
0.000000
 51
90.000000
  0
LINE
  8
203
 10
18.100000
 20
17.700000
 30
0.000000
 11
18.100000
 21
17.600000
 31
0.000000
  0
ARC
  8
203
 10
18.000000
 20
17.700000
 30
0.000000
 40
0.100000
 50
90.000000
 51
180.000000
  0
LINE
  8
203
 10
17.900000
 20
17.700000
 30
0.000000
 11
17.900000
 21
17.600000
 31
0.000000
  0
LINE
  8
203
 10
18.100000
 20
17.600000
 30
0.000000
 11
18.668300
 21
17.124200
 31
0.000000
  0
LINE
  8
203
 10
17.900000
 20
17.600000
 30
0.000000
 11
17.302800
 21
17.093800
 31
0.000000
  0
LINE
  8
203
 10
17.302800
 20
17.093800
 30
0.000000
 11
17.285600
 21
17.078000
 31
0.000000
  0
ARC
  8
203
 10
18.040022
 20
16.325873
 30
0.000000
 40
1.065292
 50
135.087300
 51
252.337374
  0
LINE
  8
203
 10
17.716800
 20
15.310800
 30
0.000000
 11
17.742900
 21
15.303600
 31
0.000000
  0
LINE
  8
203
 10
18.668300
 20
17.124200
 30
0.000000
 11
18.693300
 21
17.101200
 31
0.000000
  0
ARC
  8
203
 10
17.958550
 20
16.326991
 30
0.000000
 40
1.067360
 50
289.571660
 51
46.497908
  0
LINE
  8
203
 10
18.316100
 20
15.321300
 30
0.000000
 11
18.257700
 21
15.301400
 31
0.000000
  0
LINE
  8
203
 10
18.257500
 20
14.845000
 30
0.000000
 11
18.257500
 21
14.800000
 31
0.000000
  0
ARC
  8
203
 10
18.235000
 20
14.797500
 30
0.000000
 40
0.022638
 50
276.340192
 51
6.340192
  0
LINE
  8
203
 10
18.237500
 20
14.775000
 30
0.000000
 11
17.762500
 21
14.775000
 31
0.000000
  0
ARC
  8
203
 10
17.765000
 20
14.797500
 30
0.000000
 40
0.022638
 50
173.659808
 51
263.659808
  0
LINE
  8
203
 10
17.742500
 20
14.800000
 30
0.000000
 11
17.742500
 21
14.845000
 31
0.000000
  0
LINE
  8
203
 10
20.357500
 20
14.955000
 30
0.000000
 11
20.390000
 21
14.955000
 31
0.000000
  0
ARC
  8
203
 10
20.390000
 20
14.930000
 30
0.000000
 40
0.025000
 50
0.000000
 51
90.000000
  0
LINE
  8
203
 10
20.415000
 20
14.930000
 30
0.000000
 11
20.415000
 21
14.870000
 31
0.000000
  0
ARC
  8
203
 10
20.390000
 20
14.870000
 30
0.000000
 40
0.025000
 50
270.000000
 51
0.000000
  0
LINE
  8
203
 10
20.390000
 20
14.845000
 30
0.000000
 11
20.357500
 21
14.845000
 31
0.000000
  0
LINE
  8
203
 10
19.842500
 20
14.845000
 30
0.000000
 11
19.810000
 21
14.845000
 31
0.000000
  0
ARC
  8
203
 10
19.810000
 20
14.870000
 30
0.000000
 40
0.025000
 50
180.000000
 51
270.000000
  0
LINE
  8
203
 10
19.785000
 20
14.870000
 30
0.000000
 11
19.785000
 21
14.930000
 31
0.000000
  0
ARC
  8
203
 10
19.810000
 20
14.930000
 30
0.000000
 40
0.025000
 50
90.000000
 51
180.000000
  0
LINE
  8
203
 10
19.810000
 20
14.955000
 30
0.000000
 11
19.842500
 21
14.955000
 31
0.000000
  0
LINE
  8
203
 10
19.842500
 20
14.955000
 30
0.000000
 11
19.842900
 21
15.303600
 31
0.000000
  0
LINE
  8
203
 10
20.357500
 20
14.955000
 30
0.000000
 11
20.357700
 21
15.301400
 31
0.000000
  0
ARC
  8
203
 10
20.100000
 20
17.700000
 30
0.000000
 40
0.100000
 50
0.000000
 51
90.000000
  0
LINE
  8
203
 10
20.200000
 20
17.700000
 30
0.000000
 11
20.200000
 21
17.600000
 31
0.000000
  0
ARC
  8
203
 10
20.100000
 20
17.700000
 30
0.000000
 40
0.100000
 50
90.000000
 51
180.000000
  0
LINE
  8
203
 10
20.000000
 20
17.700000
 30
0.000000
 11
20.000000
 21
17.600000
 31
0.000000
  0
LINE
  8
203
 10
20.200000
 20
17.600000
 30
0.000000
 11
20.768300
 21
17.124200
 31
0.000000
  0
LINE
  8
203
 10
20.000000
 20
17.600000
 30
0.000000
 11
19.402800
 21
17.093800
 31
0.000000
  0
LINE
  8
203
 10
19.402800
 20
17.093800
 30
0.000000
 11
19.385600
 21
17.078000
 31
0.000000
  0
ARC
  8
203
 10
20.140022
 20
16.325873
 30
0.000000
 40
1.065292
 50
135.087300
 51
252.337374
  0
LINE
  8
203
 10
19.816800
 20
15.310800
 30
0.000000
 11
19.842900
 21
15.303600
 31
0.000000
  0
LINE
  8
203
 10
20.768300
 20
17.124200
 30
0.000000
 11
20.793300
 21
17.101200
 31
0.000000
  0
ARC
  8
203
 10
20.058550
 20
16.326991
 30
0.000000
 40
1.067360
 50
289.571660
 51
46.497908
  0
LINE
  8
203
 10
20.416100
 20
15.321300
 30
0.000000
 11
20.357700
 21
15.301400
 31
0.000000
  0
LINE
  8
203
 10
20.357500
 20
14.845000
 30
0.000000
 11
20.357500
 21
14.800000
 31
0.000000
  0
ARC
  8
203
 10
20.335000
 20
14.797500
 30
0.000000
 40
0.022638
 50
276.340192
 51
6.340192
  0
LINE
  8
203
 10
20.337500
 20
14.775000
 30
0.000000
 11
19.862500
 21
14.775000
 31
0.000000
  0
ARC
  8
203
 10
19.865000
 20
14.797500
 30
0.000000
 40
0.022638
 50
173.659808
 51
263.659808
  0
LINE
  8
203
 10
19.842500
 20
14.800000
 30
0.000000
 11
19.842500
 21
14.845000
 31
0.000000
  0
LINE
  8
203
 10
22.457500
 20
14.955000
 30
0.000000
 11
22.490000
 21
14.955000
 31
0.000000
  0
ARC
  8
203
 10
22.490000
 20
14.930000
 30
0.000000
 40
0.025000
 50
0.000000
 51
90.000000
  0
LINE
  8
203
 10
22.515000
 20
14.930000
 30
0.000000
 11
22.515000
 21
14.870000
 31
0.000000
  0
ARC
  8
203
 10
22.490000
 20
14.870000
 30
0.000000
 40
0.025000
 50
270.000000
 51
0.000000
  0
LINE
  8
203
 10
22.490000
 20
14.845000
 30
0.000000
 11
22.457500
 21
14.845000
 31
0.000000
  0
LINE
  8
203
 10
21.942500
 20
14.845000
 30
0.000000
 11
21.910000
 21
14.845000
 31
0.000000
  0
ARC
  8
203
 10
21.910000
 20
14.870000
 30
0.000000
 40
0.025000
 50
180.000000
 51
270.000000
  0
LINE
  8
203
 10
21.885000
 20
14.870000
 30
0.000000
 11
21.885000
 21
14.930000
 31
0.000000
  0
ARC
  8
203
 10
21.910000
 20
14.930000
 30
0.000000
 40
0.025000
 50
90.000000
 51
180.000000
  0
LINE
  8
203
 10
21.910000
 20
14.955000
 30
0.000000
 11
21.942500
 21
14.955000
 31
0.000000
  0
LINE
  8
203
 10
21.942500
 20
14.955000
 30
0.000000
 11
21.942900
 21
15.303600
 31
0.000000
  0
LINE
  8
203
 10
22.457500
 20
14.955000
 30
0.000000
 11
22.457700
 21
15.301400
 31
0.000000
  0
ARC
  8
203
 10
22.200000
 20
17.700000
 30
0.000000
 40
0.100000
 50
0.000000
 51
90.000000
  0
LINE
  8
203
 10
22.300000
 20
17.700000
 30
0.000000
 11
22.300000
 21
17.600000
 31
0.000000
  0
ARC
  8
203
 10
22.200000
 20
17.700000
 30
0.000000
 40
0.100000
 50
90.000000
 51
180.000000
  0
LINE
  8
203
 10
22.100000
 20
17.700000
 30
0.000000
 11
22.100000
 21
17.600000
 31
0.000000
  0
LINE
  8
203
 10
22.300000
 20
17.600000
 30
0.000000
 11
22.868300
 21
17.124200
 31
0.000000
  0
LINE
  8
203
 10
22.100000
 20
17.600000
 30
0.000000
 11
21.502800
 21
17.093800
 31
0.000000
  0
LINE
  8
203
 10
21.502800
 20
17.093800
 30
0.000000
 11
21.485600
 21
17.078000
 31
0.000000
  0
ARC
  8
203
 10
22.240022
 20
16.325873
 30
0.000000
 40
1.065292
 50
135.087300
 51
252.337374
  0
LINE
  8
203
 10
21.916800
 20
15.310800
 30
0.000000
 11
21.942900
 21
15.303600
 31
0.000000
  0
LINE
  8
203
 10
22.868300
 20
17.124200
 30
0.000000
 11
22.893300
 21
17.101200
 31
0.000000
  0
ARC
  8
203
 10
22.158550
 20
16.326991
 30
0.000000
 40
1.067360
 50
289.571660
 51
46.497908
  0
LINE
  8
203
 10
22.516100
 20
15.321300
 30
0.000000
 11
22.457700
 21
15.301400
 31
0.000000
  0
LINE
  8
203
 10
22.457500
 20
14.845000
 30
0.000000
 11
22.457500
 21
14.800000
 31
0.000000
  0
ARC
  8
203
 10
22.435000
 20
14.797500
 30
0.000000
 40
0.022638
 50
276.340192
 51
6.340192
  0
LINE
  8
203
 10
22.437500
 20
14.775000
 30
0.000000
 11
21.962500
 21
14.775000
 31
0.000000
  0
ARC
  8
203
 10
21.965000
 20
14.797500
 30
0.000000
 40
0.022638
 50
173.659808
 51
263.659808
  0
LINE
  8
203
 10
21.942500
 20
14.800000
 30
0.000000
 11
21.942500
 21
14.845000
 31
0.000000
  0
LINE
  8
203
 10
2.507500
 20
12.705000
 30
0.000000
 11
2.540000
 21
12.705000
 31
0.000000
  0
ARC
  8
203
 10
2.540000
 20
12.680000
 30
0.000000
 40
0.025000
 50
0.000000
 51
90.000000
  0
LINE
  8
203
 10
2.565000
 20
12.680000
 30
0.000000
 11
2.565000
 21
12.620000
 31
0.000000
  0
ARC
  8
203
 10
2.540000
 20
12.620000
 30
0.000000
 40
0.025000
 50
270.000000
 51
0.000000
  0
LINE
  8
203
 10
2.540000
 20
12.595000
 30
0.000000
 11
2.507500
 21
12.595000
 31
0.000000
  0
LINE
  8
203
 10
1.992500
 20
12.595000
 30
0.000000
 11
1.960000
 21
12.595000
 31
0.000000
  0
ARC
  8
203
 10
1.960000
 20
12.620000
 30
0.000000
 40
0.025000
 50
180.000000
 51
270.000000
  0
LINE
  8
203
 10
1.935000
 20
12.620000
 30
0.000000
 11
1.935000
 21
12.680000
 31
0.000000
  0
ARC
  8
203
 10
1.960000
 20
12.680000
 30
0.000000
 40
0.025000
 50
90.000000
 51
180.000000
  0
LINE
  8
203
 10
1.960000
 20
12.705000
 30
0.000000
 11
1.992500
 21
12.705000
 31
0.000000
  0
LINE
  8
203
 10
1.992500
 20
12.705000
 30
0.000000
 11
1.992900
 21
13.053600
 31
0.000000
  0
LINE
  8
203
 10
2.507500
 20
12.705000
 30
0.000000
 11
2.507700
 21
13.051400
 31
0.000000
  0
ARC
  8
203
 10
2.250000
 20
15.450000
 30
0.000000
 40
0.100000
 50
0.000000
 51
90.000000
  0
LINE
  8
203
 10
2.350000
 20
15.450000
 30
0.000000
 11
2.350000
 21
15.350000
 31
0.000000
  0
ARC
  8
203
 10
2.250000
 20
15.450000
 30
0.000000
 40
0.100000
 50
90.000000
 51
180.000000
  0
LINE
  8
203
 10
2.150000
 20
15.450000
 30
0.000000
 11
2.150000
 21
15.350000
 31
0.000000
  0
LINE
  8
203
 10
2.350000
 20
15.350000
 30
0.000000
 11
2.918300
 21
14.874200
 31
0.000000
  0
LINE
  8
203
 10
2.150000
 20
15.350000
 30
0.000000
 11
1.552800
 21
14.843800
 31
0.000000
  0
LINE
  8
203
 10
1.552800
 20
14.843800
 30
0.000000
 11
1.535600
 21
14.828000
 31
0.000000
  0
ARC
  8
203
 10
2.290022
 20
14.075873
 30
0.000000
 40
1.065292
 50
135.087300
 51
252.337374
  0
LINE
  8
203
 10
1.966800
 20
13.060800
 30
0.000000
 11
1.992900
 21
13.053600
 31
0.000000
  0
LINE
  8
203
 10
2.918300
 20
14.874200
 30
0.000000
 11
2.943300
 21
14.851200
 31
0.000000
  0
ARC
  8
203
 10
2.208550
 20
14.076991
 30
0.000000
 40
1.067360
 50
289.571660
 51
46.497908
  0
LINE
  8
203
 10
2.566100
 20
13.071300
 30
0.000000
 11
2.507700
 21
13.051400
 31
0.000000
  0
LINE
  8
203
 10
2.507500
 20
12.595000
 30
0.000000
 11
2.507500
 21
12.550000
 31
0.000000
  0
ARC
  8
203
 10
2.485000
 20
12.547500
 30
0.000000
 40
0.022638
 50
276.340192
 51
6.340192
  0
LINE
  8
203
 10
2.487500
 20
12.525000
 30
0.000000
 11
2.012500
 21
12.525000
 31
0.000000
  0
ARC
  8
203
 10
2.015000
 20
12.547500
 30
0.000000
 40
0.022638
 50
173.659808
 51
263.659808
  0
LINE
  8
203
 10
1.992500
 20
12.550000
 30
0.000000
 11
1.992500
 21
12.595000
 31
0.000000
  0
LINE
  8
203
 10
4.607500
 20
12.705000
 30
0.000000
 11
4.640000
 21
12.705000
 31
0.000000
  0
ARC
  8
203
 10
4.640000
 20
12.680000
 30
0.000000
 40
0.025000
 50
0.000000
 51
90.000000
  0
LINE
  8
203
 10
4.665000
 20
12.680000
 30
0.000000
 11
4.665000
 21
12.620000
 31
0.000000
  0
ARC
  8
203
 10
4.640000
 20
12.620000
 30
0.000000
 40
0.025000
 50
270.000000
 51
0.000000
  0
LINE
  8
203
 10
4.640000
 20
12.595000
 30
0.000000
 11
4.607500
 21
12.595000
 31
0.000000
  0
LINE
  8
203
 10
4.092500
 20
12.595000
 30
0.000000
 11
4.060000
 21
12.595000
 31
0.000000
  0
ARC
  8
203
 10
4.060000
 20
12.620000
 30
0.000000
 40
0.025000
 50
180.000000
 51
270.000000
  0
LINE
  8
203
 10
4.035000
 20
12.620000
 30
0.000000
 11
4.035000
 21
12.680000
 31
0.000000
  0
ARC
  8
203
 10
4.060000
 20
12.680000
 30
0.000000
 40
0.025000
 50
90.000000
 51
180.000000
  0
LINE
  8
203
 10
4.060000
 20
12.705000
 30
0.000000
 11
4.092500
 21
12.705000
 31
0.000000
  0
LINE
  8
203
 10
4.092500
 20
12.705000
 30
0.000000
 11
4.092900
 21
13.053600
 31
0.000000
  0
LINE
  8
203
 10
4.607500
 20
12.705000
 30
0.000000
 11
4.607700
 21
13.051400
 31
0.000000
  0
ARC
  8
203
 10
4.350000
 20
15.450000
 30
0.000000
 40
0.100000
 50
0.000000
 51
90.000000
  0
LINE
  8
203
 10
4.450000
 20
15.450000
 30
0.000000
 11
4.450000
 21
15.350000
 31
0.000000
  0
ARC
  8
203
 10
4.350000
 20
15.450000
 30
0.000000
 40
0.100000
 50
90.000000
 51
180.000000
  0
LINE
  8
203
 10
4.250000
 20
15.450000
 30
0.000000
 11
4.250000
 21
15.350000
 31
0.000000
  0
LINE
  8
203
 10
4.450000
 20
15.350000
 30
0.000000
 11
5.018300
 21
14.874200
 31
0.000000
  0
LINE
  8
203
 10
4.250000
 20
15.350000
 30
0.000000
 11
3.652800
 21
14.843800
 31
0.000000
  0
LINE
  8
203
 10
3.652800
 20
14.843800
 30
0.000000
 11
3.635600
 21
14.828000
 31
0.000000
  0
ARC
  8
203
 10
4.390022
 20
14.075873
 30
0.000000
 40
1.065292
 50
135.087300
 51
252.337374
  0
LINE
  8
203
 10
4.066800
 20
13.060800
 30
0.000000
 11
4.092900
 21
13.053600
 31
0.000000
  0
LINE
  8
203
 10
5.018300
 20
14.874200
 30
0.000000
 11
5.043300
 21
14.851200
 31
0.000000
  0
ARC
  8
203
 10
4.308550
 20
14.076991
 30
0.000000
 40
1.067360
 50
289.571660
 51
46.497908
  0
LINE
  8
203
 10
4.666100
 20
13.071300
 30
0.000000
 11
4.607700
 21
13.051400
 31
0.000000
  0
LINE
  8
203
 10
4.607500
 20
12.595000
 30
0.000000
 11
4.607500
 21
12.550000
 31
0.000000
  0
ARC
  8
203
 10
4.585000
 20
12.547500
 30
0.000000
 40
0.022638
 50
276.340192
 51
6.340192
  0
LINE
  8
203
 10
4.587500
 20
12.525000
 30
0.000000
 11
4.112500
 21
12.525000
 31
0.000000
  0
ARC
  8
203
 10
4.115000
 20
12.547500
 30
0.000000
 40
0.022638
 50
173.659808
 51
263.659808
  0
LINE
  8
203
 10
4.092500
 20
12.550000
 30
0.000000
 11
4.092500
 21
12.595000
 31
0.000000
  0
LINE
  8
203
 10
6.707500
 20
12.705000
 30
0.000000
 11
6.740000
 21
12.705000
 31
0.000000
  0
ARC
  8
203
 10
6.740000
 20
12.680000
 30
0.000000
 40
0.025000
 50
0.000000
 51
90.000000
  0
LINE
  8
203
 10
6.765000
 20
12.680000
 30
0.000000
 11
6.765000
 21
12.620000
 31
0.000000
  0
ARC
  8
203
 10
6.740000
 20
12.620000
 30
0.000000
 40
0.025000
 50
270.000000
 51
0.000000
  0
LINE
  8
203
 10
6.740000
 20
12.595000
 30
0.000000
 11
6.707500
 21
12.595000
 31
0.000000
  0
LINE
  8
203
 10
6.192500
 20
12.595000
 30
0.000000
 11
6.160000
 21
12.595000
 31
0.000000
  0
ARC
  8
203
 10
6.160000
 20
12.620000
 30
0.000000
 40
0.025000
 50
180.000000
 51
270.000000
  0
LINE
  8
203
 10
6.135000
 20
12.620000
 30
0.000000
 11
6.135000
 21
12.680000
 31
0.000000
  0
ARC
  8
203
 10
6.160000
 20
12.680000
 30
0.000000
 40
0.025000
 50
90.000000
 51
180.000000
  0
LINE
  8
203
 10
6.160000
 20
12.705000
 30
0.000000
 11
6.192500
 21
12.705000
 31
0.000000
  0
LINE
  8
203
 10
6.192500
 20
12.705000
 30
0.000000
 11
6.192900
 21
13.053600
 31
0.000000
  0
LINE
  8
203
 10
6.707500
 20
12.705000
 30
0.000000
 11
6.707700
 21
13.051400
 31
0.000000
  0
ARC
  8
203
 10
6.450000
 20
15.450000
 30
0.000000
 40
0.100000
 50
0.000000
 51
90.000000
  0
LINE
  8
203
 10
6.550000
 20
15.450000
 30
0.000000
 11
6.550000
 21
15.350000
 31
0.000000
  0
ARC
  8
203
 10
6.450000
 20
15.450000
 30
0.000000
 40
0.100000
 50
90.000000
 51
180.000000
  0
LINE
  8
203
 10
6.350000
 20
15.450000
 30
0.000000
 11
6.350000
 21
15.350000
 31
0.000000
  0
LINE
  8
203
 10
6.550000
 20
15.350000
 30
0.000000
 11
7.118300
 21
14.874200
 31
0.000000
  0
LINE
  8
203
 10
6.350000
 20
15.350000
 30
0.000000
 11
5.752800
 21
14.843800
 31
0.000000
  0
LINE
  8
203
 10
5.752800
 20
14.843800
 30
0.000000
 11
5.735600
 21
14.828000
 31
0.000000
  0
ARC
  8
203
 10
6.490022
 20
14.075873
 30
0.000000
 40
1.065292
 50
135.087300
 51
252.337374
  0
LINE
  8
203
 10
6.166800
 20
13.060800
 30
0.000000
 11
6.192900
 21
13.053600
 31
0.000000
  0
LINE
  8
203
 10
7.118300
 20
14.874200
 30
0.000000
 11
7.143300
 21
14.851200
 31
0.000000
  0
ARC
  8
203
 10
6.408550
 20
14.076991
 30
0.000000
 40
1.067360
 50
289.571660
 51
46.497908
  0
LINE
  8
203
 10
6.766100
 20
13.071300
 30
0.000000
 11
6.707700
 21
13.051400
 31
0.000000
  0
LINE
  8
203
 10
6.707500
 20
12.595000
 30
0.000000
 11
6.707500
 21
12.550000
 31
0.000000
  0
ARC
  8
203
 10
6.685000
 20
12.547500
 30
0.000000
 40
0.022638
 50
276.340192
 51
6.340192
  0
LINE
  8
203
 10
6.687500
 20
12.525000
 30
0.000000
 11
6.212500
 21
12.525000
 31
0.000000
  0
ARC
  8
203
 10
6.215000
 20
12.547500
 30
0.000000
 40
0.022638
 50
173.659808
 51
263.659808
  0
LINE
  8
203
 10
6.192500
 20
12.550000
 30
0.000000
 11
6.192500
 21
12.595000
 31
0.000000
  0
LINE
  8
203
 10
8.807500
 20
12.705000
 30
0.000000
 11
8.840000
 21
12.705000
 31
0.000000
  0
ARC
  8
203
 10
8.840000
 20
12.680000
 30
0.000000
 40
0.025000
 50
0.000000
 51
90.000000
  0
LINE
  8
203
 10
8.865000
 20
12.680000
 30
0.000000
 11
8.865000
 21
12.620000
 31
0.000000
  0
ARC
  8
203
 10
8.840000
 20
12.620000
 30
0.000000
 40
0.025000
 50
270.000000
 51
0.000000
  0
LINE
  8
203
 10
8.840000
 20
12.595000
 30
0.000000
 11
8.807500
 21
12.595000
 31
0.000000
  0
LINE
  8
203
 10
8.292500
 20
12.595000
 30
0.000000
 11
8.260000
 21
12.595000
 31
0.000000
  0
ARC
  8
203
 10
8.260000
 20
12.620000
 30
0.000000
 40
0.025000
 50
180.000000
 51
270.000000
  0
LINE
  8
203
 10
8.235000
 20
12.620000
 30
0.000000
 11
8.235000
 21
12.680000
 31
0.000000
  0
ARC
  8
203
 10
8.260000
 20
12.680000
 30
0.000000
 40
0.025000
 50
90.000000
 51
180.000000
  0
LINE
  8
203
 10
8.260000
 20
12.705000
 30
0.000000
 11
8.292500
 21
12.705000
 31
0.000000
  0
LINE
  8
203
 10
8.292500
 20
12.705000
 30
0.000000
 11
8.292900
 21
13.053600
 31
0.000000
  0
LINE
  8
203
 10
8.807500
 20
12.705000
 30
0.000000
 11
8.807700
 21
13.051400
 31
0.000000
  0
ARC
  8
203
 10
8.550000
 20
15.450000
 30
0.000000
 40
0.100000
 50
0.000000
 51
90.000000
  0
LINE
  8
203
 10
8.650000
 20
15.450000
 30
0.000000
 11
8.650000
 21
15.350000
 31
0.000000
  0
ARC
  8
203
 10
8.550000
 20
15.450000
 30
0.000000
 40
0.100000
 50
90.000000
 51
180.000000
  0
LINE
  8
203
 10
8.450000
 20
15.450000
 30
0.000000
 11
8.450000
 21
15.350000
 31
0.000000
  0
LINE
  8
203
 10
8.650000
 20
15.350000
 30
0.000000
 11
9.218300
 21
14.874200
 31
0.000000
  0
LINE
  8
203
 10
8.450000
 20
15.350000
 30
0.000000
 11
7.852800
 21
14.843800
 31
0.000000
  0
LINE
  8
203
 10
7.852800
 20
14.843800
 30
0.000000
 11
7.835600
 21
14.828000
 31
0.000000
  0
ARC
  8
203
 10
8.590022
 20
14.075873
 30
0.000000
 40
1.065292
 50
135.087300
 51
252.337374
  0
LINE
  8
203
 10
8.266800
 20
13.060800
 30
0.000000
 11
8.292900
 21
13.053600
 31
0.000000
  0
LINE
  8
203
 10
9.218300
 20
14.874200
 30
0.000000
 11
9.243300
 21
14.851200
 31
0.000000
  0
ARC
  8
203
 10
8.508550
 20
14.076991
 30
0.000000
 40
1.067360
 50
289.571660
 51
46.497908
  0
LINE
  8
203
 10
8.866100
 20
13.071300
 30
0.000000
 11
8.807700
 21
13.051400
 31
0.000000
  0
LINE
  8
203
 10
8.807500
 20
12.595000
 30
0.000000
 11
8.807500
 21
12.550000
 31
0.000000
  0
ARC
  8
203
 10
8.785000
 20
12.547500
 30
0.000000
 40
0.022638
 50
276.340192
 51
6.340192
  0
LINE
  8
203
 10
8.787500
 20
12.525000
 30
0.000000
 11
8.312500
 21
12.525000
 31
0.000000
  0
ARC
  8
203
 10
8.315000
 20
12.547500
 30
0.000000
 40
0.022638
 50
173.659808
 51
263.659808
  0
LINE
  8
203
 10
8.292500
 20
12.550000
 30
0.000000
 11
8.292500
 21
12.595000
 31
0.000000
  0
LINE
  8
203
 10
10.907500
 20
12.705000
 30
0.000000
 11
10.940000
 21
12.705000
 31
0.000000
  0
ARC
  8
203
 10
10.940000
 20
12.680000
 30
0.000000
 40
0.025000
 50
0.000000
 51
90.000000
  0
LINE
  8
203
 10
10.965000
 20
12.680000
 30
0.000000
 11
10.965000
 21
12.620000
 31
0.000000
  0
ARC
  8
203
 10
10.940000
 20
12.620000
 30
0.000000
 40
0.025000
 50
270.000000
 51
0.000000
  0
LINE
  8
203
 10
10.940000
 20
12.595000
 30
0.000000
 11
10.907500
 21
12.595000
 31
0.000000
  0
LINE
  8
203
 10
10.392500
 20
12.595000
 30
0.000000
 11
10.360000
 21
12.595000
 31
0.000000
  0
ARC
  8
203
 10
10.360000
 20
12.620000
 30
0.000000
 40
0.025000
 50
180.000000
 51
270.000000
  0
LINE
  8
203
 10
10.335000
 20
12.620000
 30
0.000000
 11
10.335000
 21
12.680000
 31
0.000000
  0
ARC
  8
203
 10
10.360000
 20
12.680000
 30
0.000000
 40
0.025000
 50
90.000000
 51
180.000000
  0
LINE
  8
203
 10
10.360000
 20
12.705000
 30
0.000000
 11
10.392500
 21
12.705000
 31
0.000000
  0
LINE
  8
203
 10
10.392500
 20
12.705000
 30
0.000000
 11
10.392900
 21
13.053600
 31
0.000000
  0
LINE
  8
203
 10
10.907500
 20
12.705000
 30
0.000000
 11
10.907700
 21
13.051400
 31
0.000000
  0
ARC
  8
203
 10
10.650000
 20
15.450000
 30
0.000000
 40
0.100000
 50
0.000000
 51
90.000000
  0
LINE
  8
203
 10
10.750000
 20
15.450000
 30
0.000000
 11
10.750000
 21
15.350000
 31
0.000000
  0
ARC
  8
203
 10
10.650000
 20
15.450000
 30
0.000000
 40
0.100000
 50
90.000000
 51
180.000000
  0
LINE
  8
203
 10
10.550000
 20
15.450000
 30
0.000000
 11
10.550000
 21
15.350000
 31
0.000000
  0
LINE
  8
203
 10
10.750000
 20
15.350000
 30
0.000000
 11
11.318300
 21
14.874200
 31
0.000000
  0
LINE
  8
203
 10
10.550000
 20
15.350000
 30
0.000000
 11
9.952800
 21
14.843800
 31
0.000000
  0
LINE
  8
203
 10
9.952800
 20
14.843800
 30
0.000000
 11
9.935600
 21
14.828000
 31
0.000000
  0
ARC
  8
203
 10
10.690022
 20
14.075873
 30
0.000000
 40
1.065292
 50
135.087300
 51
252.337374
  0
LINE
  8
203
 10
10.366800
 20
13.060800
 30
0.000000
 11
10.392900
 21
13.053600
 31
0.000000
  0
LINE
  8
203
 10
11.318300
 20
14.874200
 30
0.000000
 11
11.343300
 21
14.851200
 31
0.000000
  0
ARC
  8
203
 10
10.608550
 20
14.076991
 30
0.000000
 40
1.067360
 50
289.571660
 51
46.497908
  0
LINE
  8
203
 10
10.966100
 20
13.071300
 30
0.000000
 11
10.907700
 21
13.051400
 31
0.000000
  0
LINE
  8
203
 10
10.907500
 20
12.595000
 30
0.000000
 11
10.907500
 21
12.550000
 31
0.000000
  0
ARC
  8
203
 10
10.885000
 20
12.547500
 30
0.000000
 40
0.022638
 50
276.340192
 51
6.340192
  0
LINE
  8
203
 10
10.887500
 20
12.525000
 30
0.000000
 11
10.412500
 21
12.525000
 31
0.000000
  0
ARC
  8
203
 10
10.415000
 20
12.547500
 30
0.000000
 40
0.022638
 50
173.659808
 51
263.659808
  0
LINE
  8
203
 10
10.392500
 20
12.550000
 30
0.000000
 11
10.392500
 21
12.595000
 31
0.000000
  0
LINE
  8
203
 10
13.007500
 20
12.705000
 30
0.000000
 11
13.040000
 21
12.705000
 31
0.000000
  0
ARC
  8
203
 10
13.040000
 20
12.680000
 30
0.000000
 40
0.025000
 50
0.000000
 51
90.000000
  0
LINE
  8
203
 10
13.065000
 20
12.680000
 30
0.000000
 11
13.065000
 21
12.620000
 31
0.000000
  0
ARC
  8
203
 10
13.040000
 20
12.620000
 30
0.000000
 40
0.025000
 50
270.000000
 51
0.000000
  0
LINE
  8
203
 10
13.040000
 20
12.595000
 30
0.000000
 11
13.007500
 21
12.595000
 31
0.000000
  0
LINE
  8
203
 10
12.492500
 20
12.595000
 30
0.000000
 11
12.460000
 21
12.595000
 31
0.000000
  0
ARC
  8
203
 10
12.460000
 20
12.620000
 30
0.000000
 40
0.025000
 50
180.000000
 51
270.000000
  0
LINE
  8
203
 10
12.435000
 20
12.620000
 30
0.000000
 11
12.435000
 21
12.680000
 31
0.000000
  0
ARC
  8
203
 10
12.460000
 20
12.680000
 30
0.000000
 40
0.025000
 50
90.000000
 51
180.000000
  0
LINE
  8
203
 10
12.460000
 20
12.705000
 30
0.000000
 11
12.492500
 21
12.705000
 31
0.000000
  0
LINE
  8
203
 10
12.492500
 20
12.705000
 30
0.000000
 11
12.492900
 21
13.053600
 31
0.000000
  0
LINE
  8
203
 10
13.007500
 20
12.705000
 30
0.000000
 11
13.007700
 21
13.051400
 31
0.000000
  0
ARC
  8
203
 10
12.750000
 20
15.450000
 30
0.000000
 40
0.100000
 50
0.000000
 51
90.000000
  0
LINE
  8
203
 10
12.850000
 20
15.450000
 30
0.000000
 11
12.850000
 21
15.350000
 31
0.000000
  0
ARC
  8
203
 10
12.750000
 20
15.450000
 30
0.000000
 40
0.100000
 50
90.000000
 51
180.000000
  0
LINE
  8
203
 10
12.650000
 20
15.450000
 30
0.000000
 11
12.650000
 21
15.350000
 31
0.000000
  0
LINE
  8
203
 10
12.850000
 20
15.350000
 30
0.000000
 11
13.418300
 21
14.874200
 31
0.000000
  0
LINE
  8
203
 10
12.650000
 20
15.350000
 30
0.000000
 11
12.052800
 21
14.843800
 31
0.000000
  0
LINE
  8
203
 10
12.052800
 20
14.843800
 30
0.000000
 11
12.035600
 21
14.828000
 31
0.000000
  0
ARC
  8
203
 10
12.790022
 20
14.075873
 30
0.000000
 40
1.065292
 50
135.087300
 51
252.337374
  0
LINE
  8
203
 10
12.466800
 20
13.060800
 30
0.000000
 11
12.492900
 21
13.053600
 31
0.000000
  0
LINE
  8
203
 10
13.418300
 20
14.874200
 30
0.000000
 11
13.443300
 21
14.851200
 31
0.000000
  0
ARC
  8
203
 10
12.708550
 20
14.076991
 30
0.000000
 40
1.067360
 50
289.571660
 51
46.497908
  0
LINE
  8
203
 10
13.066100
 20
13.071300
 30
0.000000
 11
13.007700
 21
13.051400
 31
0.000000
  0
LINE
  8
203
 10
13.007500
 20
12.595000
 30
0.000000
 11
13.007500
 21
12.550000
 31
0.000000
  0
ARC
  8
203
 10
12.985000
 20
12.547500
 30
0.000000
 40
0.022638
 50
276.340192
 51
6.340192
  0
LINE
  8
203
 10
12.987500
 20
12.525000
 30
0.000000
 11
12.512500
 21
12.525000
 31
0.000000
  0
ARC
  8
203
 10
12.515000
 20
12.547500
 30
0.000000
 40
0.022638
 50
173.659808
 51
263.659808
  0
LINE
  8
203
 10
12.492500
 20
12.550000
 30
0.000000
 11
12.492500
 21
12.595000
 31
0.000000
  0
LINE
  8
203
 10
15.107500
 20
12.705000
 30
0.000000
 11
15.140000
 21
12.705000
 31
0.000000
  0
ARC
  8
203
 10
15.140000
 20
12.680000
 30
0.000000
 40
0.025000
 50
0.000000
 51
90.000000
  0
LINE
  8
203
 10
15.165000
 20
12.680000
 30
0.000000
 11
15.165000
 21
12.620000
 31
0.000000
  0
ARC
  8
203
 10
15.140000
 20
12.620000
 30
0.000000
 40
0.025000
 50
270.000000
 51
0.000000
  0
LINE
  8
203
 10
15.140000
 20
12.595000
 30
0.000000
 11
15.107500
 21
12.595000
 31
0.000000
  0
LINE
  8
203
 10
14.592500
 20
12.595000
 30
0.000000
 11
14.560000
 21
12.595000
 31
0.000000
  0
ARC
  8
203
 10
14.560000
 20
12.620000
 30
0.000000
 40
0.025000
 50
180.000000
 51
270.000000
  0
LINE
  8
203
 10
14.535000
 20
12.620000
 30
0.000000
 11
14.535000
 21
12.680000
 31
0.000000
  0
ARC
  8
203
 10
14.560000
 20
12.680000
 30
0.000000
 40
0.025000
 50
90.000000
 51
180.000000
  0
LINE
  8
203
 10
14.560000
 20
12.705000
 30
0.000000
 11
14.592500
 21
12.705000
 31
0.000000
  0
LINE
  8
203
 10
14.592500
 20
12.705000
 30
0.000000
 11
14.592900
 21
13.053600
 31
0.000000
  0
LINE
  8
203
 10
15.107500
 20
12.705000
 30
0.000000
 11
15.107700
 21
13.051400
 31
0.000000
  0
ARC
  8
203
 10
14.850000
 20
15.450000
 30
0.000000
 40
0.100000
 50
0.000000
 51
90.000000
  0
LINE
  8
203
 10
14.950000
 20
15.450000
 30
0.000000
 11
14.950000
 21
15.350000
 31
0.000000
  0
ARC
  8
203
 10
14.850000
 20
15.450000
 30
0.000000
 40
0.100000
 50
90.000000
 51
180.000000
  0
LINE
  8
203
 10
14.750000
 20
15.450000
 30
0.000000
 11
14.750000
 21
15.350000
 31
0.000000
  0
LINE
  8
203
 10
14.950000
 20
15.350000
 30
0.000000
 11
15.518300
 21
14.874200
 31
0.000000
  0
LINE
  8
203
 10
14.750000
 20
15.350000
 30
0.000000
 11
14.152800
 21
14.843800
 31
0.000000
  0
LINE
  8
203
 10
14.152800
 20
14.843800
 30
0.000000
 11
14.135600
 21
14.828000
 31
0.000000
  0
ARC
  8
203
 10
14.890022
 20
14.075873
 30
0.000000
 40
1.065292
 50
135.087300
 51
252.337374
  0
LINE
  8
203
 10
14.566800
 20
13.060800
 30
0.000000
 11
14.592900
 21
13.053600
 31
0.000000
  0
LINE
  8
203
 10
15.518300
 20
14.874200
 30
0.000000
 11
15.543300
 21
14.851200
 31
0.000000
  0
ARC
  8
203
 10
14.808550
 20
14.076991
 30
0.000000
 40
1.067360
 50
289.571660
 51
46.497908
  0
LINE
  8
203
 10
15.166100
 20
13.071300
 30
0.000000
 11
15.107700
 21
13.051400
 31
0.000000
  0
LINE
  8
203
 10
15.107500
 20
12.595000
 30
0.000000
 11
15.107500
 21
12.550000
 31
0.000000
  0
ARC
  8
203
 10
15.085000
 20
12.547500
 30
0.000000
 40
0.022638
 50
276.340192
 51
6.340192
  0
LINE
  8
203
 10
15.087500
 20
12.525000
 30
0.000000
 11
14.612500
 21
12.525000
 31
0.000000
  0
ARC
  8
203
 10
14.615000
 20
12.547500
 30
0.000000
 40
0.022638
 50
173.659808
 51
263.659808
  0
LINE
  8
203
 10
14.592500
 20
12.550000
 30
0.000000
 11
14.592500
 21
12.595000
 31
0.000000
  0
LINE
  8
203
 10
17.207500
 20
12.705000
 30
0.000000
 11
17.240000
 21
12.705000
 31
0.000000
  0
ARC
  8
203
 10
17.240000
 20
12.680000
 30
0.000000
 40
0.025000
 50
0.000000
 51
90.000000
  0
LINE
  8
203
 10
17.265000
 20
12.680000
 30
0.000000
 11
17.265000
 21
12.620000
 31
0.000000
  0
ARC
  8
203
 10
17.240000
 20
12.620000
 30
0.000000
 40
0.025000
 50
270.000000
 51
0.000000
  0
LINE
  8
203
 10
17.240000
 20
12.595000
 30
0.000000
 11
17.207500
 21
12.595000
 31
0.000000
  0
LINE
  8
203
 10
16.692500
 20
12.595000
 30
0.000000
 11
16.660000
 21
12.595000
 31
0.000000
  0
ARC
  8
203
 10
16.660000
 20
12.620000
 30
0.000000
 40
0.025000
 50
180.000000
 51
270.000000
  0
LINE
  8
203
 10
16.635000
 20
12.620000
 30
0.000000
 11
16.635000
 21
12.680000
 31
0.000000
  0
ARC
  8
203
 10
16.660000
 20
12.680000
 30
0.000000
 40
0.025000
 50
90.000000
 51
180.000000
  0
LINE
  8
203
 10
16.660000
 20
12.705000
 30
0.000000
 11
16.692500
 21
12.705000
 31
0.000000
  0
LINE
  8
203
 10
16.692500
 20
12.705000
 30
0.000000
 11
16.692900
 21
13.053600
 31
0.000000
  0
LINE
  8
203
 10
17.207500
 20
12.705000
 30
0.000000
 11
17.207700
 21
13.051400
 31
0.000000
  0
ARC
  8
203
 10
16.950000
 20
15.450000
 30
0.000000
 40
0.100000
 50
0.000000
 51
90.000000
  0
LINE
  8
203
 10
17.050000
 20
15.450000
 30
0.000000
 11
17.050000
 21
15.350000
 31
0.000000
  0
ARC
  8
203
 10
16.950000
 20
15.450000
 30
0.000000
 40
0.100000
 50
90.000000
 51
180.000000
  0
LINE
  8
203
 10
16.850000
 20
15.450000
 30
0.000000
 11
16.850000
 21
15.350000
 31
0.000000
  0
LINE
  8
203
 10
17.050000
 20
15.350000
 30
0.000000
 11
17.618300
 21
14.874200
 31
0.000000
  0
LINE
  8
203
 10
16.850000
 20
15.350000
 30
0.000000
 11
16.252800
 21
14.843800
 31
0.000000
  0
LINE
  8
203
 10
16.252800
 20
14.843800
 30
0.000000
 11
16.235600
 21
14.828000
 31
0.000000
  0
ARC
  8
203
 10
16.990022
 20
14.075873
 30
0.000000
 40
1.065292
 50
135.087300
 51
252.337374
  0
LINE
  8
203
 10
16.666800
 20
13.060800
 30
0.000000
 11
16.692900
 21
13.053600
 31
0.000000
  0
LINE
  8
203
 10
17.618300
 20
14.874200
 30
0.000000
 11
17.643300
 21
14.851200
 31
0.000000
  0
ARC
  8
203
 10
16.908550
 20
14.076991
 30
0.000000
 40
1.067360
 50
289.571660
 51
46.497908
  0
LINE
  8
203
 10
17.266100
 20
13.071300
 30
0.000000
 11
17.207700
 21
13.051400
 31
0.000000
  0
LINE
  8
203
 10
17.207500
 20
12.595000
 30
0.000000
 11
17.207500
 21
12.550000
 31
0.000000
  0
ARC
  8
203
 10
17.185000
 20
12.547500
 30
0.000000
 40
0.022638
 50
276.340192
 51
6.340192
  0
LINE
  8
203
 10
17.187500
 20
12.525000
 30
0.000000
 11
16.712500
 21
12.525000
 31
0.000000
  0
ARC
  8
203
 10
16.715000
 20
12.547500
 30
0.000000
 40
0.022638
 50
173.659808
 51
263.659808
  0
LINE
  8
203
 10
16.692500
 20
12.550000
 30
0.000000
 11
16.692500
 21
12.595000
 31
0.000000
  0
LINE
  8
203
 10
19.307500
 20
12.705000
 30
0.000000
 11
19.340000
 21
12.705000
 31
0.000000
  0
ARC
  8
203
 10
19.340000
 20
12.680000
 30
0.000000
 40
0.025000
 50
0.000000
 51
90.000000
  0
LINE
  8
203
 10
19.365000
 20
12.680000
 30
0.000000
 11
19.365000
 21
12.620000
 31
0.000000
  0
ARC
  8
203
 10
19.340000
 20
12.620000
 30
0.000000
 40
0.025000
 50
270.000000
 51
0.000000
  0
LINE
  8
203
 10
19.340000
 20
12.595000
 30
0.000000
 11
19.307500
 21
12.595000
 31
0.000000
  0
LINE
  8
203
 10
18.792500
 20
12.595000
 30
0.000000
 11
18.760000
 21
12.595000
 31
0.000000
  0
ARC
  8
203
 10
18.760000
 20
12.620000
 30
0.000000
 40
0.025000
 50
180.000000
 51
270.000000
  0
LINE
  8
203
 10
18.735000
 20
12.620000
 30
0.000000
 11
18.735000
 21
12.680000
 31
0.000000
  0
ARC
  8
203
 10
18.760000
 20
12.680000
 30
0.000000
 40
0.025000
 50
90.000000
 51
180.000000
  0
LINE
  8
203
 10
18.760000
 20
12.705000
 30
0.000000
 11
18.792500
 21
12.705000
 31
0.000000
  0
LINE
  8
203
 10
18.792500
 20
12.705000
 30
0.000000
 11
18.792900
 21
13.053600
 31
0.000000
  0
LINE
  8
203
 10
19.307500
 20
12.705000
 30
0.000000
 11
19.307700
 21
13.051400
 31
0.000000
  0
ARC
  8
203
 10
19.050000
 20
15.450000
 30
0.000000
 40
0.100000
 50
0.000000
 51
90.000000
  0
LINE
  8
203
 10
19.150000
 20
15.450000
 30
0.000000
 11
19.150000
 21
15.350000
 31
0.000000
  0
ARC
  8
203
 10
19.050000
 20
15.450000
 30
0.000000
 40
0.100000
 50
90.000000
 51
180.000000
  0
LINE
  8
203
 10
18.950000
 20
15.450000
 30
0.000000
 11
18.950000
 21
15.350000
 31
0.000000
  0
LINE
  8
203
 10
19.150000
 20
15.350000
 30
0.000000
 11
19.718300
 21
14.874200
 31
0.000000
  0
LINE
  8
203
 10
18.950000
 20
15.350000
 30
0.000000
 11
18.352800
 21
14.843800
 31
0.000000
  0
LINE
  8
203
 10
18.352800
 20
14.843800
 30
0.000000
 11
18.335600
 21
14.828000
 31
0.000000
  0
ARC
  8
203
 10
19.090022
 20
14.075873
 30
0.000000
 40
1.065292
 50
135.087300
 51
252.337374
  0
LINE
  8
203
 10
18.766800
 20
13.060800
 30
0.000000
 11
18.792900
 21
13.053600
 31
0.000000
  0
LINE
  8
203
 10
19.718300
 20
14.874200
 30
0.000000
 11
19.743300
 21
14.851200
 31
0.000000
  0
ARC
  8
203
 10
19.008550
 20
14.076991
 30
0.000000
 40
1.067360
 50
289.571660
 51
46.497908
  0
LINE
  8
203
 10
19.366100
 20
13.071300
 30
0.000000
 11
19.307700
 21
13.051400
 31
0.000000
  0
LINE
  8
203
 10
19.307500
 20
12.595000
 30
0.000000
 11
19.307500
 21
12.550000
 31
0.000000
  0
ARC
  8
203
 10
19.285000
 20
12.547500
 30
0.000000
 40
0.022638
 50
276.340192
 51
6.340192
  0
LINE
  8
203
 10
19.287500
 20
12.525000
 30
0.000000
 11
18.812500
 21
12.525000
 31
0.000000
  0
ARC
  8
203
 10
18.815000
 20
12.547500
 30
0.000000
 40
0.022638
 50
173.659808
 51
263.659808
  0
LINE
  8
203
 10
18.792500
 20
12.550000
 30
0.000000
 11
18.792500
 21
12.595000
 31
0.000000
  0
LINE
  8
203
 10
21.407500
 20
12.705000
 30
0.000000
 11
21.440000
 21
12.705000
 31
0.000000
  0
ARC
  8
203
 10
21.440000
 20
12.680000
 30
0.000000
 40
0.025000
 50
0.000000
 51
90.000000
  0
LINE
  8
203
 10
21.465000
 20
12.680000
 30
0.000000
 11
21.465000
 21
12.620000
 31
0.000000
  0
ARC
  8
203
 10
21.440000
 20
12.620000
 30
0.000000
 40
0.025000
 50
270.000000
 51
0.000000
  0
LINE
  8
203
 10
21.440000
 20
12.595000
 30
0.000000
 11
21.407500
 21
12.595000
 31
0.000000
  0
LINE
  8
203
 10
20.892500
 20
12.595000
 30
0.000000
 11
20.860000
 21
12.595000
 31
0.000000
  0
ARC
  8
203
 10
20.860000
 20
12.620000
 30
0.000000
 40
0.025000
 50
180.000000
 51
270.000000
  0
LINE
  8
203
 10
20.835000
 20
12.620000
 30
0.000000
 11
20.835000
 21
12.680000
 31
0.000000
  0
ARC
  8
203
 10
20.860000
 20
12.680000
 30
0.000000
 40
0.025000
 50
90.000000
 51
180.000000
  0
LINE
  8
203
 10
20.860000
 20
12.705000
 30
0.000000
 11
20.892500
 21
12.705000
 31
0.000000
  0
LINE
  8
203
 10
20.892500
 20
12.705000
 30
0.000000
 11
20.892900
 21
13.053600
 31
0.000000
  0
LINE
  8
203
 10
21.407500
 20
12.705000
 30
0.000000
 11
21.407700
 21
13.051400
 31
0.000000
  0
ARC
  8
203
 10
21.150000
 20
15.450000
 30
0.000000
 40
0.100000
 50
0.000000
 51
90.000000
  0
LINE
  8
203
 10
21.250000
 20
15.450000
 30
0.000000
 11
21.250000
 21
15.350000
 31
0.000000
  0
ARC
  8
203
 10
21.150000
 20
15.450000
 30
0.000000
 40
0.100000
 50
90.000000
 51
180.000000
  0
LINE
  8
203
 10
21.050000
 20
15.450000
 30
0.000000
 11
21.050000
 21
15.350000
 31
0.000000
  0
LINE
  8
203
 10
21.250000
 20
15.350000
 30
0.000000
 11
21.818300
 21
14.874200
 31
0.000000
  0
LINE
  8
203
 10
21.050000
 20
15.350000
 30
0.000000
 11
20.452800
 21
14.843800
 31
0.000000
  0
LINE
  8
203
 10
20.452800
 20
14.843800
 30
0.000000
 11
20.435600
 21
14.828000
 31
0.000000
  0
ARC
  8
203
 10
21.190022
 20
14.075873
 30
0.000000
 40
1.065292
 50
135.087300
 51
252.337374
  0
LINE
  8
203
 10
20.866800
 20
13.060800
 30
0.000000
 11
20.892900
 21
13.053600
 31
0.000000
  0
LINE
  8
203
 10
21.818300
 20
14.874200
 30
0.000000
 11
21.843300
 21
14.851200
 31
0.000000
  0
ARC
  8
203
 10
21.108550
 20
14.076991
 30
0.000000
 40
1.067360
 50
289.571660
 51
46.497908
  0
LINE
  8
203
 10
21.466100
 20
13.071300
 30
0.000000
 11
21.407700
 21
13.051400
 31
0.000000
  0
LINE
  8
203
 10
21.407500
 20
12.595000
 30
0.000000
 11
21.407500
 21
12.550000
 31
0.000000
  0
ARC
  8
203
 10
21.385000
 20
12.547500
 30
0.000000
 40
0.022638
 50
276.340192
 51
6.340192
  0
LINE
  8
203
 10
21.387500
 20
12.525000
 30
0.000000
 11
20.912500
 21
12.525000
 31
0.000000
  0
ARC
  8
203
 10
20.915000
 20
12.547500
 30
0.000000
 40
0.022638
 50
173.659808
 51
263.659808
  0
LINE
  8
203
 10
20.892500
 20
12.550000
 30
0.000000
 11
20.892500
 21
12.595000
 31
0.000000
  0
LINE
  8
203
 10
1.457500
 20
10.455000
 30
0.000000
 11
1.490000
 21
10.455000
 31
0.000000
  0
ARC
  8
203
 10
1.490000
 20
10.430000
 30
0.000000
 40
0.025000
 50
0.000000
 51
90.000000
  0
LINE
  8
203
 10
1.515000
 20
10.430000
 30
0.000000
 11
1.515000
 21
10.370000
 31
0.000000
  0
ARC
  8
203
 10
1.490000
 20
10.370000
 30
0.000000
 40
0.025000
 50
270.000000
 51
0.000000
  0
LINE
  8
203
 10
1.490000
 20
10.345000
 30
0.000000
 11
1.457500
 21
10.345000
 31
0.000000
  0
LINE
  8
203
 10
0.942500
 20
10.345000
 30
0.000000
 11
0.910000
 21
10.345000
 31
0.000000
  0
ARC
  8
203
 10
0.910000
 20
10.370000
 30
0.000000
 40
0.025000
 50
180.000000
 51
270.000000
  0
LINE
  8
203
 10
0.885000
 20
10.370000
 30
0.000000
 11
0.885000
 21
10.430000
 31
0.000000
  0
ARC
  8
203
 10
0.910000
 20
10.430000
 30
0.000000
 40
0.025000
 50
90.000000
 51
180.000000
  0
LINE
  8
203
 10
0.910000
 20
10.455000
 30
0.000000
 11
0.942500
 21
10.455000
 31
0.000000
  0
LINE
  8
203
 10
0.942500
 20
10.455000
 30
0.000000
 11
0.942900
 21
10.803600
 31
0.000000
  0
LINE
  8
203
 10
1.457500
 20
10.455000
 30
0.000000
 11
1.457700
 21
10.801400
 31
0.000000
  0
ARC
  8
203
 10
1.200000
 20
13.200000
 30
0.000000
 40
0.100000
 50
0.000000
 51
90.000000
  0
LINE
  8
203
 10
1.300000
 20
13.200000
 30
0.000000
 11
1.300000
 21
13.100000
 31
0.000000
  0
ARC
  8
203
 10
1.200000
 20
13.200000
 30
0.000000
 40
0.100000
 50
90.000000
 51
180.000000
  0
LINE
  8
203
 10
1.100000
 20
13.200000
 30
0.000000
 11
1.100000
 21
13.100000
 31
0.000000
  0
LINE
  8
203
 10
1.300000
 20
13.100000
 30
0.000000
 11
1.868300
 21
12.624200
 31
0.000000
  0
LINE
  8
203
 10
1.100000
 20
13.100000
 30
0.000000
 11
0.502800
 21
12.593800
 31
0.000000
  0
LINE
  8
203
 10
0.502800
 20
12.593800
 30
0.000000
 11
0.485600
 21
12.578000
 31
0.000000
  0
ARC
  8
203
 10
1.240022
 20
11.825873
 30
0.000000
 40
1.065292
 50
135.087300
 51
252.337374
  0
LINE
  8
203
 10
0.916800
 20
10.810800
 30
0.000000
 11
0.942900
 21
10.803600
 31
0.000000
  0
LINE
  8
203
 10
1.868300
 20
12.624200
 30
0.000000
 11
1.893300
 21
12.601200
 31
0.000000
  0
ARC
  8
203
 10
1.158550
 20
11.826991
 30
0.000000
 40
1.067360
 50
289.571660
 51
46.497908
  0
LINE
  8
203
 10
1.516100
 20
10.821300
 30
0.000000
 11
1.457700
 21
10.801400
 31
0.000000
  0
LINE
  8
203
 10
1.457500
 20
10.345000
 30
0.000000
 11
1.457500
 21
10.300000
 31
0.000000
  0
ARC
  8
203
 10
1.435000
 20
10.297500
 30
0.000000
 40
0.022638
 50
276.340192
 51
6.340192
  0
LINE
  8
203
 10
1.437500
 20
10.275000
 30
0.000000
 11
0.962500
 21
10.275000
 31
0.000000
  0
ARC
  8
203
 10
0.965000
 20
10.297500
 30
0.000000
 40
0.022638
 50
173.659808
 51
263.659808
  0
LINE
  8
203
 10
0.942500
 20
10.300000
 30
0.000000
 11
0.942500
 21
10.345000
 31
0.000000
  0
LINE
  8
203
 10
3.557500
 20
10.455000
 30
0.000000
 11
3.590000
 21
10.455000
 31
0.000000
  0
ARC
  8
203
 10
3.590000
 20
10.430000
 30
0.000000
 40
0.025000
 50
0.000000
 51
90.000000
  0
LINE
  8
203
 10
3.615000
 20
10.430000
 30
0.000000
 11
3.615000
 21
10.370000
 31
0.000000
  0
ARC
  8
203
 10
3.590000
 20
10.370000
 30
0.000000
 40
0.025000
 50
270.000000
 51
0.000000
  0
LINE
  8
203
 10
3.590000
 20
10.345000
 30
0.000000
 11
3.557500
 21
10.345000
 31
0.000000
  0
LINE
  8
203
 10
3.042500
 20
10.345000
 30
0.000000
 11
3.010000
 21
10.345000
 31
0.000000
  0
ARC
  8
203
 10
3.010000
 20
10.370000
 30
0.000000
 40
0.025000
 50
180.000000
 51
270.000000
  0
LINE
  8
203
 10
2.985000
 20
10.370000
 30
0.000000
 11
2.985000
 21
10.430000
 31
0.000000
  0
ARC
  8
203
 10
3.010000
 20
10.430000
 30
0.000000
 40
0.025000
 50
90.000000
 51
180.000000
  0
LINE
  8
203
 10
3.010000
 20
10.455000
 30
0.000000
 11
3.042500
 21
10.455000
 31
0.000000
  0
LINE
  8
203
 10
3.042500
 20
10.455000
 30
0.000000
 11
3.042900
 21
10.803600
 31
0.000000
  0
LINE
  8
203
 10
3.557500
 20
10.455000
 30
0.000000
 11
3.557700
 21
10.801400
 31
0.000000
  0
ARC
  8
203
 10
3.300000
 20
13.200000
 30
0.000000
 40
0.100000
 50
0.000000
 51
90.000000
  0
LINE
  8
203
 10
3.400000
 20
13.200000
 30
0.000000
 11
3.400000
 21
13.100000
 31
0.000000
  0
ARC
  8
203
 10
3.300000
 20
13.200000
 30
0.000000
 40
0.100000
 50
90.000000
 51
180.000000
  0
LINE
  8
203
 10
3.200000
 20
13.200000
 30
0.000000
 11
3.200000
 21
13.100000
 31
0.000000
  0
LINE
  8
203
 10
3.400000
 20
13.100000
 30
0.000000
 11
3.968300
 21
12.624200
 31
0.000000
  0
LINE
  8
203
 10
3.200000
 20
13.100000
 30
0.000000
 11
2.602800
 21
12.593800
 31
0.000000
  0
LINE
  8
203
 10
2.602800
 20
12.593800
 30
0.000000
 11
2.585600
 21
12.578000
 31
0.000000
  0
ARC
  8
203
 10
3.340022
 20
11.825873
 30
0.000000
 40
1.065292
 50
135.087300
 51
252.337374
  0
LINE
  8
203
 10
3.016800
 20
10.810800
 30
0.000000
 11
3.042900
 21
10.803600
 31
0.000000
  0
LINE
  8
203
 10
3.968300
 20
12.624200
 30
0.000000
 11
3.993300
 21
12.601200
 31
0.000000
  0
ARC
  8
203
 10
3.258550
 20
11.826991
 30
0.000000
 40
1.067360
 50
289.571660
 51
46.497908
  0
LINE
  8
203
 10
3.616100
 20
10.821300
 30
0.000000
 11
3.557700
 21
10.801400
 31
0.000000
  0
LINE
  8
203
 10
3.557500
 20
10.345000
 30
0.000000
 11
3.557500
 21
10.300000
 31
0.000000
  0
ARC
  8
203
 10
3.535000
 20
10.297500
 30
0.000000
 40
0.022638
 50
276.340192
 51
6.340192
  0
LINE
  8
203
 10
3.537500
 20
10.275000
 30
0.000000
 11
3.062500
 21
10.275000
 31
0.000000
  0
ARC
  8
203
 10
3.065000
 20
10.297500
 30
0.000000
 40
0.022638
 50
173.659808
 51
263.659808
  0
LINE
  8
203
 10
3.042500
 20
10.300000
 30
0.000000
 11
3.042500
 21
10.345000
 31
0.000000
  0
LINE
  8
203
 10
5.657500
 20
10.455000
 30
0.000000
 11
5.690000
 21
10.455000
 31
0.000000
  0
ARC
  8
203
 10
5.690000
 20
10.430000
 30
0.000000
 40
0.025000
 50
0.000000
 51
90.000000
  0
LINE
  8
203
 10
5.715000
 20
10.430000
 30
0.000000
 11
5.715000
 21
10.370000
 31
0.000000
  0
ARC
  8
203
 10
5.690000
 20
10.370000
 30
0.000000
 40
0.025000
 50
270.000000
 51
0.000000
  0
LINE
  8
203
 10
5.690000
 20
10.345000
 30
0.000000
 11
5.657500
 21
10.345000
 31
0.000000
  0
LINE
  8
203
 10
5.142500
 20
10.345000
 30
0.000000
 11
5.110000
 21
10.345000
 31
0.000000
  0
ARC
  8
203
 10
5.110000
 20
10.370000
 30
0.000000
 40
0.025000
 50
180.000000
 51
270.000000
  0
LINE
  8
203
 10
5.085000
 20
10.370000
 30
0.000000
 11
5.085000
 21
10.430000
 31
0.000000
  0
ARC
  8
203
 10
5.110000
 20
10.430000
 30
0.000000
 40
0.025000
 50
90.000000
 51
180.000000
  0
LINE
  8
203
 10
5.110000
 20
10.455000
 30
0.000000
 11
5.142500
 21
10.455000
 31
0.000000
  0
LINE
  8
203
 10
5.142500
 20
10.455000
 30
0.000000
 11
5.142900
 21
10.803600
 31
0.000000
  0
LINE
  8
203
 10
5.657500
 20
10.455000
 30
0.000000
 11
5.657700
 21
10.801400
 31
0.000000
  0
ARC
  8
203
 10
5.400000
 20
13.200000
 30
0.000000
 40
0.100000
 50
0.000000
 51
90.000000
  0
LINE
  8
203
 10
5.500000
 20
13.200000
 30
0.000000
 11
5.500000
 21
13.100000
 31
0.000000
  0
ARC
  8
203
 10
5.400000
 20
13.200000
 30
0.000000
 40
0.100000
 50
90.000000
 51
180.000000
  0
LINE
  8
203
 10
5.300000
 20
13.200000
 30
0.000000
 11
5.300000
 21
13.100000
 31
0.000000
  0
LINE
  8
203
 10
5.500000
 20
13.100000
 30
0.000000
 11
6.068300
 21
12.624200
 31
0.000000
  0
LINE
  8
203
 10
5.300000
 20
13.100000
 30
0.000000
 11
4.702800
 21
12.593800
 31
0.000000
  0
LINE
  8
203
 10
4.702800
 20
12.593800
 30
0.000000
 11
4.685600
 21
12.578000
 31
0.000000
  0
ARC
  8
203
 10
5.440022
 20
11.825873
 30
0.000000
 40
1.065292
 50
135.087300
 51
252.337374
  0
LINE
  8
203
 10
5.116800
 20
10.810800
 30
0.000000
 11
5.142900
 21
10.803600
 31
0.000000
  0
LINE
  8
203
 10
6.068300
 20
12.624200
 30
0.000000
 11
6.093300
 21
12.601200
 31
0.000000
  0
ARC
  8
203
 10
5.358550
 20
11.826991
 30
0.000000
 40
1.067360
 50
289.571660
 51
46.497908
  0
LINE
  8
203
 10
5.716100
 20
10.821300
 30
0.000000
 11
5.657700
 21
10.801400
 31
0.000000
  0
LINE
  8
203
 10
5.657500
 20
10.345000
 30
0.000000
 11
5.657500
 21
10.300000
 31
0.000000
  0
ARC
  8
203
 10
5.635000
 20
10.297500
 30
0.000000
 40
0.022638
 50
276.340192
 51
6.340192
  0
LINE
  8
203
 10
5.637500
 20
10.275000
 30
0.000000
 11
5.162500
 21
10.275000
 31
0.000000
  0
ARC
  8
203
 10
5.165000
 20
10.297500
 30
0.000000
 40
0.022638
 50
173.659808
 51
263.659808
  0
LINE
  8
203
 10
5.142500
 20
10.300000
 30
0.000000
 11
5.142500
 21
10.345000
 31
0.000000
  0
LINE
  8
203
 10
7.757500
 20
10.455000
 30
0.000000
 11
7.790000
 21
10.455000
 31
0.000000
  0
ARC
  8
203
 10
7.790000
 20
10.430000
 30
0.000000
 40
0.025000
 50
0.000000
 51
90.000000
  0
LINE
  8
203
 10
7.815000
 20
10.430000
 30
0.000000
 11
7.815000
 21
10.370000
 31
0.000000
  0
ARC
  8
203
 10
7.790000
 20
10.370000
 30
0.000000
 40
0.025000
 50
270.000000
 51
0.000000
  0
LINE
  8
203
 10
7.790000
 20
10.345000
 30
0.000000
 11
7.757500
 21
10.345000
 31
0.000000
  0
LINE
  8
203
 10
7.242500
 20
10.345000
 30
0.000000
 11
7.210000
 21
10.345000
 31
0.000000
  0
ARC
  8
203
 10
7.210000
 20
10.370000
 30
0.000000
 40
0.025000
 50
180.000000
 51
270.000000
  0
LINE
  8
203
 10
7.185000
 20
10.370000
 30
0.000000
 11
7.185000
 21
10.430000
 31
0.000000
  0
ARC
  8
203
 10
7.210000
 20
10.430000
 30
0.000000
 40
0.025000
 50
90.000000
 51
180.000000
  0
LINE
  8
203
 10
7.210000
 20
10.455000
 30
0.000000
 11
7.242500
 21
10.455000
 31
0.000000
  0
LINE
  8
203
 10
7.242500
 20
10.455000
 30
0.000000
 11
7.242900
 21
10.803600
 31
0.000000
  0
LINE
  8
203
 10
7.757500
 20
10.455000
 30
0.000000
 11
7.757700
 21
10.801400
 31
0.000000
  0
ARC
  8
203
 10
7.500000
 20
13.200000
 30
0.000000
 40
0.100000
 50
0.000000
 51
90.000000
  0
LINE
  8
203
 10
7.600000
 20
13.200000
 30
0.000000
 11
7.600000
 21
13.100000
 31
0.000000
  0
ARC
  8
203
 10
7.500000
 20
13.200000
 30
0.000000
 40
0.100000
 50
90.000000
 51
180.000000
  0
LINE
  8
203
 10
7.400000
 20
13.200000
 30
0.000000
 11
7.400000
 21
13.100000
 31
0.000000
  0
LINE
  8
203
 10
7.600000
 20
13.100000
 30
0.000000
 11
8.168300
 21
12.624200
 31
0.000000
  0
LINE
  8
203
 10
7.400000
 20
13.100000
 30
0.000000
 11
6.802800
 21
12.593800
 31
0.000000
  0
LINE
  8
203
 10
6.802800
 20
12.593800
 30
0.000000
 11
6.785600
 21
12.578000
 31
0.000000
  0
ARC
  8
203
 10
7.540022
 20
11.825873
 30
0.000000
 40
1.065292
 50
135.087300
 51
252.337374
  0
LINE
  8
203
 10
7.216800
 20
10.810800
 30
0.000000
 11
7.242900
 21
10.803600
 31
0.000000
  0
LINE
  8
203
 10
8.168300
 20
12.624200
 30
0.000000
 11
8.193300
 21
12.601200
 31
0.000000
  0
ARC
  8
203
 10
7.458550
 20
11.826991
 30
0.000000
 40
1.067360
 50
289.571660
 51
46.497908
  0
LINE
  8
203
 10
7.816100
 20
10.821300
 30
0.000000
 11
7.757700
 21
10.801400
 31
0.000000
  0
LINE
  8
203
 10
7.757500
 20
10.345000
 30
0.000000
 11
7.757500
 21
10.300000
 31
0.000000
  0
ARC
  8
203
 10
7.735000
 20
10.297500
 30
0.000000
 40
0.022638
 50
276.340192
 51
6.340192
  0
LINE
  8
203
 10
7.737500
 20
10.275000
 30
0.000000
 11
7.262500
 21
10.275000
 31
0.000000
  0
ARC
  8
203
 10
7.265000
 20
10.297500
 30
0.000000
 40
0.022638
 50
173.659808
 51
263.659808
  0
LINE
  8
203
 10
7.242500
 20
10.300000
 30
0.000000
 11
7.242500
 21
10.345000
 31
0.000000
  0
LINE
  8
203
 10
9.857500
 20
10.455000
 30
0.000000
 11
9.890000
 21
10.455000
 31
0.000000
  0
ARC
  8
203
 10
9.890000
 20
10.430000
 30
0.000000
 40
0.025000
 50
0.000000
 51
90.000000
  0
LINE
  8
203
 10
9.915000
 20
10.430000
 30
0.000000
 11
9.915000
 21
10.370000
 31
0.000000
  0
ARC
  8
203
 10
9.890000
 20
10.370000
 30
0.000000
 40
0.025000
 50
270.000000
 51
0.000000
  0
LINE
  8
203
 10
9.890000
 20
10.345000
 30
0.000000
 11
9.857500
 21
10.345000
 31
0.000000
  0
LINE
  8
203
 10
9.342500
 20
10.345000
 30
0.000000
 11
9.310000
 21
10.345000
 31
0.000000
  0
ARC
  8
203
 10
9.310000
 20
10.370000
 30
0.000000
 40
0.025000
 50
180.000000
 51
270.000000
  0
LINE
  8
203
 10
9.285000
 20
10.370000
 30
0.000000
 11
9.285000
 21
10.430000
 31
0.000000
  0
ARC
  8
203
 10
9.310000
 20
10.430000
 30
0.000000
 40
0.025000
 50
90.000000
 51
180.000000
  0
LINE
  8
203
 10
9.310000
 20
10.455000
 30
0.000000
 11
9.342500
 21
10.455000
 31
0.000000
  0
LINE
  8
203
 10
9.342500
 20
10.455000
 30
0.000000
 11
9.342900
 21
10.803600
 31
0.000000
  0
LINE
  8
203
 10
9.857500
 20
10.455000
 30
0.000000
 11
9.857700
 21
10.801400
 31
0.000000
  0
ARC
  8
203
 10
9.600000
 20
13.200000
 30
0.000000
 40
0.100000
 50
0.000000
 51
90.000000
  0
LINE
  8
203
 10
9.700000
 20
13.200000
 30
0.000000
 11
9.700000
 21
13.100000
 31
0.000000
  0
ARC
  8
203
 10
9.600000
 20
13.200000
 30
0.000000
 40
0.100000
 50
90.000000
 51
180.000000
  0
LINE
  8
203
 10
9.500000
 20
13.200000
 30
0.000000
 11
9.500000
 21
13.100000
 31
0.000000
  0
LINE
  8
203
 10
9.700000
 20
13.100000
 30
0.000000
 11
10.268300
 21
12.624200
 31
0.000000
  0
LINE
  8
203
 10
9.500000
 20
13.100000
 30
0.000000
 11
8.902800
 21
12.593800
 31
0.000000
  0
LINE
  8
203
 10
8.902800
 20
12.593800
 30
0.000000
 11
8.885600
 21
12.578000
 31
0.000000
  0
ARC
  8
203
 10
9.640022
 20
11.825873
 30
0.000000
 40
1.065292
 50
135.087300
 51
252.337374
  0
LINE
  8
203
 10
9.316800
 20
10.810800
 30
0.000000
 11
9.342900
 21
10.803600
 31
0.000000
  0
LINE
  8
203
 10
10.268300
 20
12.624200
 30
0.000000
 11
10.293300
 21
12.601200
 31
0.000000
  0
ARC
  8
203
 10
9.558550
 20
11.826991
 30
0.000000
 40
1.067360
 50
289.571660
 51
46.497908
  0
LINE
  8
203
 10
9.916100
 20
10.821300
 30
0.000000
 11
9.857700
 21
10.801400
 31
0.000000
  0
LINE
  8
203
 10
9.857500
 20
10.345000
 30
0.000000
 11
9.857500
 21
10.300000
 31
0.000000
  0
ARC
  8
203
 10
9.835000
 20
10.297500
 30
0.000000
 40
0.022638
 50
276.340192
 51
6.340192
  0
LINE
  8
203
 10
9.837500
 20
10.275000
 30
0.000000
 11
9.362500
 21
10.275000
 31
0.000000
  0
ARC
  8
203
 10
9.365000
 20
10.297500
 30
0.000000
 40
0.022638
 50
173.659808
 51
263.659808
  0
LINE
  8
203
 10
9.342500
 20
10.300000
 30
0.000000
 11
9.342500
 21
10.345000
 31
0.000000
  0
LINE
  8
203
 10
11.957500
 20
10.455000
 30
0.000000
 11
11.990000
 21
10.455000
 31
0.000000
  0
ARC
  8
203
 10
11.990000
 20
10.430000
 30
0.000000
 40
0.025000
 50
0.000000
 51
90.000000
  0
LINE
  8
203
 10
12.015000
 20
10.430000
 30
0.000000
 11
12.015000
 21
10.370000
 31
0.000000
  0
ARC
  8
203
 10
11.990000
 20
10.370000
 30
0.000000
 40
0.025000
 50
270.000000
 51
0.000000
  0
LINE
  8
203
 10
11.990000
 20
10.345000
 30
0.000000
 11
11.957500
 21
10.345000
 31
0.000000
  0
LINE
  8
203
 10
11.442500
 20
10.345000
 30
0.000000
 11
11.410000
 21
10.345000
 31
0.000000
  0
ARC
  8
203
 10
11.410000
 20
10.370000
 30
0.000000
 40
0.025000
 50
180.000000
 51
270.000000
  0
LINE
  8
203
 10
11.385000
 20
10.370000
 30
0.000000
 11
11.385000
 21
10.430000
 31
0.000000
  0
ARC
  8
203
 10
11.410000
 20
10.430000
 30
0.000000
 40
0.025000
 50
90.000000
 51
180.000000
  0
LINE
  8
203
 10
11.410000
 20
10.455000
 30
0.000000
 11
11.442500
 21
10.455000
 31
0.000000
  0
LINE
  8
203
 10
11.442500
 20
10.455000
 30
0.000000
 11
11.442900
 21
10.803600
 31
0.000000
  0
LINE
  8
203
 10
11.957500
 20
10.455000
 30
0.000000
 11
11.957700
 21
10.801400
 31
0.000000
  0
ARC
  8
203
 10
11.700000
 20
13.200000
 30
0.000000
 40
0.100000
 50
0.000000
 51
90.000000
  0
LINE
  8
203
 10
11.800000
 20
13.200000
 30
0.000000
 11
11.800000
 21
13.100000
 31
0.000000
  0
ARC
  8
203
 10
11.700000
 20
13.200000
 30
0.000000
 40
0.100000
 50
90.000000
 51
180.000000
  0
LINE
  8
203
 10
11.600000
 20
13.200000
 30
0.000000
 11
11.600000
 21
13.100000
 31
0.000000
  0
LINE
  8
203
 10
11.800000
 20
13.100000
 30
0.000000
 11
12.368300
 21
12.624200
 31
0.000000
  0
LINE
  8
203
 10
11.600000
 20
13.100000
 30
0.000000
 11
11.002800
 21
12.593800
 31
0.000000
  0
LINE
  8
203
 10
11.002800
 20
12.593800
 30
0.000000
 11
10.985600
 21
12.578000
 31
0.000000
  0
ARC
  8
203
 10
11.740022
 20
11.825873
 30
0.000000
 40
1.065292
 50
135.087300
 51
252.337374
  0
LINE
  8
203
 10
11.416800
 20
10.810800
 30
0.000000
 11
11.442900
 21
10.803600
 31
0.000000
  0
LINE
  8
203
 10
12.368300
 20
12.624200
 30
0.000000
 11
12.393300
 21
12.601200
 31
0.000000
  0
ARC
  8
203
 10
11.658550
 20
11.826991
 30
0.000000
 40
1.067360
 50
289.571660
 51
46.497908
  0
LINE
  8
203
 10
12.016100
 20
10.821300
 30
0.000000
 11
11.957700
 21
10.801400
 31
0.000000
  0
LINE
  8
203
 10
11.957500
 20
10.345000
 30
0.000000
 11
11.957500
 21
10.300000
 31
0.000000
  0
ARC
  8
203
 10
11.935000
 20
10.297500
 30
0.000000
 40
0.022638
 50
276.340192
 51
6.340192
  0
LINE
  8
203
 10
11.937500
 20
10.275000
 30
0.000000
 11
11.462500
 21
10.275000
 31
0.000000
  0
ARC
  8
203
 10
11.465000
 20
10.297500
 30
0.000000
 40
0.022638
 50
173.659808
 51
263.659808
  0
LINE
  8
203
 10
11.442500
 20
10.300000
 30
0.000000
 11
11.442500
 21
10.345000
 31
0.000000
  0
LINE
  8
203
 10
14.057500
 20
10.455000
 30
0.000000
 11
14.090000
 21
10.455000
 31
0.000000
  0
ARC
  8
203
 10
14.090000
 20
10.430000
 30
0.000000
 40
0.025000
 50
0.000000
 51
90.000000
  0
LINE
  8
203
 10
14.115000
 20
10.430000
 30
0.000000
 11
14.115000
 21
10.370000
 31
0.000000
  0
ARC
  8
203
 10
14.090000
 20
10.370000
 30
0.000000
 40
0.025000
 50
270.000000
 51
0.000000
  0
LINE
  8
203
 10
14.090000
 20
10.345000
 30
0.000000
 11
14.057500
 21
10.345000
 31
0.000000
  0
LINE
  8
203
 10
13.542500
 20
10.345000
 30
0.000000
 11
13.510000
 21
10.345000
 31
0.000000
  0
ARC
  8
203
 10
13.510000
 20
10.370000
 30
0.000000
 40
0.025000
 50
180.000000
 51
270.000000
  0
LINE
  8
203
 10
13.485000
 20
10.370000
 30
0.000000
 11
13.485000
 21
10.430000
 31
0.000000
  0
ARC
  8
203
 10
13.510000
 20
10.430000
 30
0.000000
 40
0.025000
 50
90.000000
 51
180.000000
  0
LINE
  8
203
 10
13.510000
 20
10.455000
 30
0.000000
 11
13.542500
 21
10.455000
 31
0.000000
  0
LINE
  8
203
 10
13.542500
 20
10.455000
 30
0.000000
 11
13.542900
 21
10.803600
 31
0.000000
  0
LINE
  8
203
 10
14.057500
 20
10.455000
 30
0.000000
 11
14.057700
 21
10.801400
 31
0.000000
  0
ARC
  8
203
 10
13.800000
 20
13.200000
 30
0.000000
 40
0.100000
 50
0.000000
 51
90.000000
  0
LINE
  8
203
 10
13.900000
 20
13.200000
 30
0.000000
 11
13.900000
 21
13.100000
 31
0.000000
  0
ARC
  8
203
 10
13.800000
 20
13.200000
 30
0.000000
 40
0.100000
 50
90.000000
 51
180.000000
  0
LINE
  8
203
 10
13.700000
 20
13.200000
 30
0.000000
 11
13.700000
 21
13.100000
 31
0.000000
  0
LINE
  8
203
 10
13.900000
 20
13.100000
 30
0.000000
 11
14.468300
 21
12.624200
 31
0.000000
  0
LINE
  8
203
 10
13.700000
 20
13.100000
 30
0.000000
 11
13.102800
 21
12.593800
 31
0.000000
  0
LINE
  8
203
 10
13.102800
 20
12.593800
 30
0.000000
 11
13.085600
 21
12.578000
 31
0.000000
  0
ARC
  8
203
 10
13.840022
 20
11.825873
 30
0.000000
 40
1.065292
 50
135.087300
 51
252.337374
  0
LINE
  8
203
 10
13.516800
 20
10.810800
 30
0.000000
 11
13.542900
 21
10.803600
 31
0.000000
  0
LINE
  8
203
 10
14.468300
 20
12.624200
 30
0.000000
 11
14.493300
 21
12.601200
 31
0.000000
  0
ARC
  8
203
 10
13.758550
 20
11.826991
 30
0.000000
 40
1.067360
 50
289.571660
 51
46.497908
  0
LINE
  8
203
 10
14.116100
 20
10.821300
 30
0.000000
 11
14.057700
 21
10.801400
 31
0.000000
  0
LINE
  8
203
 10
14.057500
 20
10.345000
 30
0.000000
 11
14.057500
 21
10.300000
 31
0.000000
  0
ARC
  8
203
 10
14.035000
 20
10.297500
 30
0.000000
 40
0.022638
 50
276.340192
 51
6.340192
  0
LINE
  8
203
 10
14.037500
 20
10.275000
 30
0.000000
 11
13.562500
 21
10.275000
 31
0.000000
  0
ARC
  8
203
 10
13.565000
 20
10.297500
 30
0.000000
 40
0.022638
 50
173.659808
 51
263.659808
  0
LINE
  8
203
 10
13.542500
 20
10.300000
 30
0.000000
 11
13.542500
 21
10.345000
 31
0.000000
  0
LINE
  8
203
 10
16.157500
 20
10.455000
 30
0.000000
 11
16.190000
 21
10.455000
 31
0.000000
  0
ARC
  8
203
 10
16.190000
 20
10.430000
 30
0.000000
 40
0.025000
 50
0.000000
 51
90.000000
  0
LINE
  8
203
 10
16.215000
 20
10.430000
 30
0.000000
 11
16.215000
 21
10.370000
 31
0.000000
  0
ARC
  8
203
 10
16.190000
 20
10.370000
 30
0.000000
 40
0.025000
 50
270.000000
 51
0.000000
  0
LINE
  8
203
 10
16.190000
 20
10.345000
 30
0.000000
 11
16.157500
 21
10.345000
 31
0.000000
  0
LINE
  8
203
 10
15.642500
 20
10.345000
 30
0.000000
 11
15.610000
 21
10.345000
 31
0.000000
  0
ARC
  8
203
 10
15.610000
 20
10.370000
 30
0.000000
 40
0.025000
 50
180.000000
 51
270.000000
  0
LINE
  8
203
 10
15.585000
 20
10.370000
 30
0.000000
 11
15.585000
 21
10.430000
 31
0.000000
  0
ARC
  8
203
 10
15.610000
 20
10.430000
 30
0.000000
 40
0.025000
 50
90.000000
 51
180.000000
  0
LINE
  8
203
 10
15.610000
 20
10.455000
 30
0.000000
 11
15.642500
 21
10.455000
 31
0.000000
  0
LINE
  8
203
 10
15.642500
 20
10.455000
 30
0.000000
 11
15.642900
 21
10.803600
 31
0.000000
  0
LINE
  8
203
 10
16.157500
 20
10.455000
 30
0.000000
 11
16.157700
 21
10.801400
 31
0.000000
  0
ARC
  8
203
 10
15.900000
 20
13.200000
 30
0.000000
 40
0.100000
 50
0.000000
 51
90.000000
  0
LINE
  8
203
 10
16.000000
 20
13.200000
 30
0.000000
 11
16.000000
 21
13.100000
 31
0.000000
  0
ARC
  8
203
 10
15.900000
 20
13.200000
 30
0.000000
 40
0.100000
 50
90.000000
 51
180.000000
  0
LINE
  8
203
 10
15.800000
 20
13.200000
 30
0.000000
 11
15.800000
 21
13.100000
 31
0.000000
  0
LINE
  8
203
 10
16.000000
 20
13.100000
 30
0.000000
 11
16.568300
 21
12.624200
 31
0.000000
  0
LINE
  8
203
 10
15.800000
 20
13.100000
 30
0.000000
 11
15.202800
 21
12.593800
 31
0.000000
  0
LINE
  8
203
 10
15.202800
 20
12.593800
 30
0.000000
 11
15.185600
 21
12.578000
 31
0.000000
  0
ARC
  8
203
 10
15.940022
 20
11.825873
 30
0.000000
 40
1.065292
 50
135.087300
 51
252.337374
  0
LINE
  8
203
 10
15.616800
 20
10.810800
 30
0.000000
 11
15.642900
 21
10.803600
 31
0.000000
  0
LINE
  8
203
 10
16.568300
 20
12.624200
 30
0.000000
 11
16.593300
 21
12.601200
 31
0.000000
  0
ARC
  8
203
 10
15.858550
 20
11.826991
 30
0.000000
 40
1.067360
 50
289.571660
 51
46.497908
  0
LINE
  8
203
 10
16.216100
 20
10.821300
 30
0.000000
 11
16.157700
 21
10.801400
 31
0.000000
  0
LINE
  8
203
 10
16.157500
 20
10.345000
 30
0.000000
 11
16.157500
 21
10.300000
 31
0.000000
  0
ARC
  8
203
 10
16.135000
 20
10.297500
 30
0.000000
 40
0.022638
 50
276.340192
 51
6.340192
  0
LINE
  8
203
 10
16.137500
 20
10.275000
 30
0.000000
 11
15.662500
 21
10.275000
 31
0.000000
  0
ARC
  8
203
 10
15.665000
 20
10.297500
 30
0.000000
 40
0.022638
 50
173.659808
 51
263.659808
  0
LINE
  8
203
 10
15.642500
 20
10.300000
 30
0.000000
 11
15.642500
 21
10.345000
 31
0.000000
  0
LINE
  8
203
 10
18.257500
 20
10.455000
 30
0.000000
 11
18.290000
 21
10.455000
 31
0.000000
  0
ARC
  8
203
 10
18.290000
 20
10.430000
 30
0.000000
 40
0.025000
 50
0.000000
 51
90.000000
  0
LINE
  8
203
 10
18.315000
 20
10.430000
 30
0.000000
 11
18.315000
 21
10.370000
 31
0.000000
  0
ARC
  8
203
 10
18.290000
 20
10.370000
 30
0.000000
 40
0.025000
 50
270.000000
 51
0.000000
  0
LINE
  8
203
 10
18.290000
 20
10.345000
 30
0.000000
 11
18.257500
 21
10.345000
 31
0.000000
  0
LINE
  8
203
 10
17.742500
 20
10.345000
 30
0.000000
 11
17.710000
 21
10.345000
 31
0.000000
  0
ARC
  8
203
 10
17.710000
 20
10.370000
 30
0.000000
 40
0.025000
 50
180.000000
 51
270.000000
  0
LINE
  8
203
 10
17.685000
 20
10.370000
 30
0.000000
 11
17.685000
 21
10.430000
 31
0.000000
  0
ARC
  8
203
 10
17.710000
 20
10.430000
 30
0.000000
 40
0.025000
 50
90.000000
 51
180.000000
  0
LINE
  8
203
 10
17.710000
 20
10.455000
 30
0.000000
 11
17.742500
 21
10.455000
 31
0.000000
  0
LINE
  8
203
 10
17.742500
 20
10.455000
 30
0.000000
 11
17.742900
 21
10.803600
 31
0.000000
  0
LINE
  8
203
 10
18.257500
 20
10.455000
 30
0.000000
 11
18.257700
 21
10.801400
 31
0.000000
  0
ARC
  8
203
 10
18.000000
 20
13.200000
 30
0.000000
 40
0.100000
 50
0.000000
 51
90.000000
  0
LINE
  8
203
 10
18.100000
 20
13.200000
 30
0.000000
 11
18.100000
 21
13.100000
 31
0.000000
  0
ARC
  8
203
 10
18.000000
 20
13.200000
 30
0.000000
 40
0.100000
 50
90.000000
 51
180.000000
  0
LINE
  8
203
 10
17.900000
 20
13.200000
 30
0.000000
 11
17.900000
 21
13.100000
 31
0.000000
  0
LINE
  8
203
 10
18.100000
 20
13.100000
 30
0.000000
 11
18.668300
 21
12.624200
 31
0.000000
  0
LINE
  8
203
 10
17.900000
 20
13.100000
 30
0.000000
 11
17.302800
 21
12.593800
 31
0.000000
  0
LINE
  8
203
 10
17.302800
 20
12.593800
 30
0.000000
 11
17.285600
 21
12.578000
 31
0.000000
  0
ARC
  8
203
 10
18.040022
 20
11.825873
 30
0.000000
 40
1.065292
 50
135.087300
 51
252.337374
  0
LINE
  8
203
 10
17.716800
 20
10.810800
 30
0.000000
 11
17.742900
 21
10.803600
 31
0.000000
  0
LINE
  8
203
 10
18.668300
 20
12.624200
 30
0.000000
 11
18.693300
 21
12.601200
 31
0.000000
  0
ARC
  8
203
 10
17.958550
 20
11.826991
 30
0.000000
 40
1.067360
 50
289.571660
 51
46.497908
  0
LINE
  8
203
 10
18.316100
 20
10.821300
 30
0.000000
 11
18.257700
 21
10.801400
 31
0.000000
  0
LINE
  8
203
 10
18.257500
 20
10.345000
 30
0.000000
 11
18.257500
 21
10.300000
 31
0.000000
  0
ARC
  8
203
 10
18.235000
 20
10.297500
 30
0.000000
 40
0.022638
 50
276.340192
 51
6.340192
  0
LINE
  8
203
 10
18.237500
 20
10.275000
 30
0.000000
 11
17.762500
 21
10.275000
 31
0.000000
  0
ARC
  8
203
 10
17.765000
 20
10.297500
 30
0.000000
 40
0.022638
 50
173.659808
 51
263.659808
  0
LINE
  8
203
 10
17.742500
 20
10.300000
 30
0.000000
 11
17.742500
 21
10.345000
 31
0.000000
  0
LINE
  8
203
 10
20.357500
 20
10.455000
 30
0.000000
 11
20.390000
 21
10.455000
 31
0.000000
  0
ARC
  8
203
 10
20.390000
 20
10.430000
 30
0.000000
 40
0.025000
 50
0.000000
 51
90.000000
  0
LINE
  8
203
 10
20.415000
 20
10.430000
 30
0.000000
 11
20.415000
 21
10.370000
 31
0.000000
  0
ARC
  8
203
 10
20.390000
 20
10.370000
 30
0.000000
 40
0.025000
 50
270.000000
 51
0.000000
  0
LINE
  8
203
 10
20.390000
 20
10.345000
 30
0.000000
 11
20.357500
 21
10.345000
 31
0.000000
  0
LINE
  8
203
 10
19.842500
 20
10.345000
 30
0.000000
 11
19.810000
 21
10.345000
 31
0.000000
  0
ARC
  8
203
 10
19.810000
 20
10.370000
 30
0.000000
 40
0.025000
 50
180.000000
 51
270.000000
  0
LINE
  8
203
 10
19.785000
 20
10.370000
 30
0.000000
 11
19.785000
 21
10.430000
 31
0.000000
  0
ARC
  8
203
 10
19.810000
 20
10.430000
 30
0.000000
 40
0.025000
 50
90.000000
 51
180.000000
  0
LINE
  8
203
 10
19.810000
 20
10.455000
 30
0.000000
 11
19.842500
 21
10.455000
 31
0.000000
  0
LINE
  8
203
 10
19.842500
 20
10.455000
 30
0.000000
 11
19.842900
 21
10.803600
 31
0.000000
  0
LINE
  8
203
 10
20.357500
 20
10.455000
 30
0.000000
 11
20.357700
 21
10.801400
 31
0.000000
  0
ARC
  8
203
 10
20.100000
 20
13.200000
 30
0.000000
 40
0.100000
 50
0.000000
 51
90.000000
  0
LINE
  8
203
 10
20.200000
 20
13.200000
 30
0.000000
 11
20.200000
 21
13.100000
 31
0.000000
  0
ARC
  8
203
 10
20.100000
 20
13.200000
 30
0.000000
 40
0.100000
 50
90.000000
 51
180.000000
  0
LINE
  8
203
 10
20.000000
 20
13.200000
 30
0.000000
 11
20.000000
 21
13.100000
 31
0.000000
  0
LINE
  8
203
 10
20.200000
 20
13.100000
 30
0.000000
 11
20.768300
 21
12.624200
 31
0.000000
  0
LINE
  8
203
 10
20.000000
 20
13.100000
 30
0.000000
 11
19.402800
 21
12.593800
 31
0.000000
  0
LINE
  8
203
 10
19.402800
 20
12.593800
 30
0.000000
 11
19.385600
 21
12.578000
 31
0.000000
  0
ARC
  8
203
 10
20.140022
 20
11.825873
 30
0.000000
 40
1.065292
 50
135.087300
 51
252.337374
  0
LINE
  8
203
 10
19.816800
 20
10.810800
 30
0.000000
 11
19.842900
 21
10.803600
 31
0.000000
  0
LINE
  8
203
 10
20.768300
 20
12.624200
 30
0.000000
 11
20.793300
 21
12.601200
 31
0.000000
  0
ARC
  8
203
 10
20.058550
 20
11.826991
 30
0.000000
 40
1.067360
 50
289.571660
 51
46.497908
  0
LINE
  8
203
 10
20.416100
 20
10.821300
 30
0.000000
 11
20.357700
 21
10.801400
 31
0.000000
  0
LINE
  8
203
 10
20.357500
 20
10.345000
 30
0.000000
 11
20.357500
 21
10.300000
 31
0.000000
  0
ARC
  8
203
 10
20.335000
 20
10.297500
 30
0.000000
 40
0.022638
 50
276.340192
 51
6.340192
  0
LINE
  8
203
 10
20.337500
 20
10.275000
 30
0.000000
 11
19.862500
 21
10.275000
 31
0.000000
  0
ARC
  8
203
 10
19.865000
 20
10.297500
 30
0.000000
 40
0.022638
 50
173.659808
 51
263.659808
  0
LINE
  8
203
 10
19.842500
 20
10.300000
 30
0.000000
 11
19.842500
 21
10.345000
 31
0.000000
  0
LINE
  8
203
 10
22.457500
 20
10.455000
 30
0.000000
 11
22.490000
 21
10.455000
 31
0.000000
  0
ARC
  8
203
 10
22.490000
 20
10.430000
 30
0.000000
 40
0.025000
 50
0.000000
 51
90.000000
  0
LINE
  8
203
 10
22.515000
 20
10.430000
 30
0.000000
 11
22.515000
 21
10.370000
 31
0.000000
  0
ARC
  8
203
 10
22.490000
 20
10.370000
 30
0.000000
 40
0.025000
 50
270.000000
 51
0.000000
  0
LINE
  8
203
 10
22.490000
 20
10.345000
 30
0.000000
 11
22.457500
 21
10.345000
 31
0.000000
  0
LINE
  8
203
 10
21.942500
 20
10.345000
 30
0.000000
 11
21.910000
 21
10.345000
 31
0.000000
  0
ARC
  8
203
 10
21.910000
 20
10.370000
 30
0.000000
 40
0.025000
 50
180.000000
 51
270.000000
  0
LINE
  8
203
 10
21.885000
 20
10.370000
 30
0.000000
 11
21.885000
 21
10.430000
 31
0.000000
  0
ARC
  8
203
 10
21.910000
 20
10.430000
 30
0.000000
 40
0.025000
 50
90.000000
 51
180.000000
  0
LINE
  8
203
 10
21.910000
 20
10.455000
 30
0.000000
 11
21.942500
 21
10.455000
 31
0.000000
  0
LINE
  8
203
 10
21.942500
 20
10.455000
 30
0.000000
 11
21.942900
 21
10.803600
 31
0.000000
  0
LINE
  8
203
 10
22.457500
 20
10.455000
 30
0.000000
 11
22.457700
 21
10.801400
 31
0.000000
  0
ARC
  8
203
 10
22.200000
 20
13.200000
 30
0.000000
 40
0.100000
 50
0.000000
 51
90.000000
  0
LINE
  8
203
 10
22.300000
 20
13.200000
 30
0.000000
 11
22.300000
 21
13.100000
 31
0.000000
  0
ARC
  8
203
 10
22.200000
 20
13.200000
 30
0.000000
 40
0.100000
 50
90.000000
 51
180.000000
  0
LINE
  8
203
 10
22.100000
 20
13.200000
 30
0.000000
 11
22.100000
 21
13.100000
 31
0.000000
  0
LINE
  8
203
 10
22.300000
 20
13.100000
 30
0.000000
 11
22.868300
 21
12.624200
 31
0.000000
  0
LINE
  8
203
 10
22.100000
 20
13.100000
 30
0.000000
 11
21.502800
 21
12.593800
 31
0.000000
  0
LINE
  8
203
 10
21.502800
 20
12.593800
 30
0.000000
 11
21.485600
 21
12.578000
 31
0.000000
  0
ARC
  8
203
 10
22.240022
 20
11.825873
 30
0.000000
 40
1.065292
 50
135.087300
 51
252.337374
  0
LINE
  8
203
 10
21.916800
 20
10.810800
 30
0.000000
 11
21.942900
 21
10.803600
 31
0.000000
  0
LINE
  8
203
 10
22.868300
 20
12.624200
 30
0.000000
 11
22.893300
 21
12.601200
 31
0.000000
  0
ARC
  8
203
 10
22.158550
 20
11.826991
 30
0.000000
 40
1.067360
 50
289.571660
 51
46.497908
  0
LINE
  8
203
 10
22.516100
 20
10.821300
 30
0.000000
 11
22.457700
 21
10.801400
 31
0.000000
  0
LINE
  8
203
 10
22.457500
 20
10.345000
 30
0.000000
 11
22.457500
 21
10.300000
 31
0.000000
  0
ARC
  8
203
 10
22.435000
 20
10.297500
 30
0.000000
 40
0.022638
 50
276.340192
 51
6.340192
  0
LINE
  8
203
 10
22.437500
 20
10.275000
 30
0.000000
 11
21.962500
 21
10.275000
 31
0.000000
  0
ARC
  8
203
 10
21.965000
 20
10.297500
 30
0.000000
 40
0.022638
 50
173.659808
 51
263.659808
  0
LINE
  8
203
 10
21.942500
 20
10.300000
 30
0.000000
 11
21.942500
 21
10.345000
 31
0.000000
  0
ENDSEC
  0
EOF
