  0
SECTION
  2
HEADER
  9
$ACADVER
  1
AC1009
  9
$FILLMODE
 70
0
  9
$EXTMIN
 10
-59.0148
 20
-61.9760
 30
0.0000
  9
$EXTMAX
 10
104.2162
 20
66.6348
 30
0.0000
  0
ENDSEC
  0
SECTION
  2
TABLES
  0
TABLE
  2
LTYPE
 70
1
  0
LTYPE
  2
CONTINUOUS
 70
64
  3
Solid line
 72
65
 73
0
 40
0
  0
ENDTAB
  0
TABLE
  2
LAYER
 70
255
  0
LAYER
  2
31
 70
64
 62
80
  6
CONTINUOUS
  0
LAYER
  2
48
 70
64
 62
253
  6
CONTINUOUS
  0
ENDTAB
  0
ENDSEC
  0
SECTION
  2
BLOCKS
  0
BLOCK
  8
0
  2
RECT
 70
64
 10
0.0000
 20
0.0000
 30
0.0000
  3
RECT
  0
SOLID
  8
0
 10
-0.5000
 20
-0.5000
 30
0.0000
 11
0.5000
 21
-0.5000
 31
0.0000
 12
-0.5000
 22
0.5000
 32
0.0000
 13
0.5000
 23
0.5000
 33
0.0000
  0
ENDBLK
  8
0
  0
BLOCK
  8
0
  2
PIE
 70
64
 10
0.0000
 20
0.0000
 30
0.0000
  3
PIE
  0
CIRCLE
  8
0
 10
0.0000
 20
0.0000
 30
0.0000
 40
0.5000
  0
ENDBLK
  8
0
  0
BLOCK
  8
0
  2
OCTAGONP
 70
64
 10
0.0000
 20
0.0000
 30
0.0000
  3
OCTAGONP
  0
POLYLINE
  8
0
 66
1
 10
0.0000
 20
0.0000
 30
0.0000
 40
0.0000
 41
0.0000
 70
1
  0
VERTEX
  8
0
 10
-0.5000
 20
-0.2071
 30
0.0000
  0
VERTEX
  8
0
 10
-0.5000
 20
0.2071
 30
0.0000
  0
VERTEX
  8
0
 10
-0.2071
 20
0.5000
 30
0.0000
  0
VERTEX
  8
0
 10
0.2071
 20
0.5000
 30
0.0000
  0
VERTEX
  8
0
 10
0.5000
 20
0.2071
 30
0.0000
  0
VERTEX
  8
0
 10
0.5000
 20
-0.2071
 30
0.0000
  0
VERTEX
  8
0
 10
0.2071
 20
-0.5000
 30
0.0000
  0
VERTEX
  8
0
 10
-0.2071
 20
-0.5000
 30
0.0000
  0
SEQEND
  8
0
  0
ENDBLK
  8
0
  0
BLOCK
  8
0
  2
SQUAREP
 70
64
 10
0.0000
 20
0.0000
 30
0.0000
  3
SQUAREP
  0
SOLID
  8
0
 10
-0.5000
 20
-0.5000
 30
0.0000
 11
0.5000
 21
-0.5000
 31
0.0000
 12
-0.5000
 22
0.5000
 32
0.0000
 13
0.5000
 23
0.5000
 33
0.0000
  0
ENDBLK
  8
0
  0
BLOCK
  8
0
  2
ROUNDP
 70
64
 10
0.0000
 20
0.0000
 30
0.0000
  3
ROUNDP
  0
CIRCLE
  8
0
 10
0.0000
 20
0.0000
 30
0.0000
 40
0.5000
  0
ENDBLK
  8
0
  0
BLOCK
  8
0
  2
ANNULUSP
 70
64
 10
0.0000
 20
0.0000
 30
0.0000
  3
ANNULUSP
  0
CIRCLE
  8
0
 10
0.0000
 20
0.0000
 30
0.0000
 40
0.5000
  0
ENDBLK
  8
0
  0
BLOCK
  8
0
  2
THERMALP
 70
64
 10
0.0000
 20
0.0000
 30
0.0000
  3
THERMALP
  0
LINE
  8
0
 10
-0.2379
 20
0.4500
 30
0.0000
 11
0.2379
 21
0.4500
 31
0.0000
  0
LINE
  8
0
 10
0.4500
 20
0.2379
 30
0.0000
 11
0.4500
 21
-0.2379
 31
0.0000
  0
LINE
  8
0
 10
0.2379
 20
-0.4500
 30
0.0000
 11
-0.2379
 21
-0.4500
 31
0.0000
  0
LINE
  8
0
 10
-0.4500
 20
-0.2379
 30
0.0000
 11
-0.4500
 21
0.2379
 31
0.0000
  0
ENDBLK
  8
0
  0
BLOCK
  8
0
  2
OCTAGONV
 70
64
 10
0.0000
 20
0.0000
 30
0.0000
  3
OCTAGONV
  0
POLYLINE
  8
0
 66
1
 10
0.0000
 20
0.0000
 30
0.0000
 40
0.0000
 41
0.0000
 70
1
  0
VERTEX
  8
0
 10
-0.5000
 20
-0.2071
 30
0.0000
  0
VERTEX
  8
0
 10
-0.5000
 20
0.2071
 30
0.0000
  0
VERTEX
  8
0
 10
-0.2071
 20
0.5000
 30
0.0000
  0
VERTEX
  8
0
 10
0.2071
 20
0.5000
 30
0.0000
  0
VERTEX
  8
0
 10
0.5000
 20
0.2071
 30
0.0000
  0
VERTEX
  8
0
 10
0.5000
 20
-0.2071
 30
0.0000
  0
VERTEX
  8
0
 10
0.2071
 20
-0.5000
 30
0.0000
  0
VERTEX
  8
0
 10
-0.2071
 20
-0.5000
 30
0.0000
  0
SEQEND
  8
0
  0
ENDBLK
  8
0
  0
BLOCK
  8
0
  2
SQUAREV
 70
64
 10
0.0000
 20
0.0000
 30
0.0000
  3
SQUAREV
  0
SOLID
  8
0
 10
-0.5000
 20
-0.5000
 30
0.0000
 11
0.5000
 21
-0.5000
 31
0.0000
 12
-0.5000
 22
0.5000
 32
0.0000
 13
0.5000
 23
0.5000
 33
0.0000
  0
ENDBLK
  8
0
  0
BLOCK
  8
0
  2
ROUNDV
 70
64
 10
0.0000
 20
0.0000
 30
0.0000
  3
ROUNDV
  0
CIRCLE
  8
0
 10
0.0000
 20
0.0000
 30
0.0000
 40
0.5000
  0
ENDBLK
  8
0
  0
BLOCK
  8
0
  2
ANNULUSV
 70
64
 10
0.0000
 20
0.0000
 30
0.0000
  3
ANNULUSV
  0
CIRCLE
  8
0
 10
0.0000
 20
0.0000
 30
0.0000
 40
0.5000
  0
ENDBLK
  8
0
  0
BLOCK
  8
0
  2
THERMALV
 70
64
 10
0.0000
 20
0.0000
 30
0.0000
  3
THERMALV
  0
LINE
  8
0
 10
-0.2379
 20
0.4500
 30
0.0000
 11
0.2379
 21
0.4500
 31
0.0000
  0
LINE
  8
0
 10
0.4500
 20
0.2379
 30
0.0000
 11
0.4500
 21
-0.2379
 31
0.0000
  0
LINE
  8
0
 10
0.2379
 20
-0.4500
 30
0.0000
 11
-0.2379
 21
-0.4500
 31
0.0000
  0
LINE
  8
0
 10
-0.4500
 20
-0.2379
 30
0.0000
 11
-0.4500
 21
0.2379
 31
0.0000
  0
ENDBLK
  8
0
  0
ENDSEC
  0
SECTION
  2
ENTITIES
  0
LINE
  8
48
 10
-4.2105
 20
45.2701
 30
0.0000
 11
-1.5701
 21
32.8477
 31
0.0000
  0
LINE
  8
48
 10
-1.5701
 20
32.8477
 30
0.0000
 11
-16.4770
 21
29.6791
 31
0.0000
  0
LINE
  8
48
 10
-16.4770
 20
29.6791
 30
0.0000
 11
-17.9705
 21
29.3649
 31
0.0000
  0
LINE
  8
48
 10
-4.2105
 20
45.2701
 30
0.0000
 11
0.7585
 21
46.3263
 31
0.0000
  0
LINE
  8
48
 10
0.7585
 20
46.3263
 30
0.0000
 11
23.6220
 21
24.6380
 31
0.0000
  0
LINE
  8
48
 10
-18.9615
 20
29.1510
 30
0.0000
 11
-17.9705
 21
29.3649
 31
0.0000
  0
LINE
  8
48
 10
-18.9615
 20
29.1510
 30
0.0000
 11
-23.9305
 21
28.0948
 31
0.0000
  0
LINE
  8
48
 10
-23.9305
 20
28.0948
 30
0.0000
 11
-26.5710
 21
40.5173
 31
0.0000
  0
LINE
  8
48
 10
-26.5710
 20
40.5173
 30
0.0000
 11
-31.5400
 21
39.4611
 31
0.0000
  0
LINE
  8
48
 10
-31.5400
 20
39.4611
 30
0.0000
 11
-34.0360
 21
-1.1430
 31
0.0000
  0
LINE
  8
48
 10
13.3350
 20
-42.5450
 30
0.0000
 11
13.3350
 21
-38.7858
 31
0.0000
  0
LINE
  8
48
 10
13.3350
 20
-42.5450
 30
0.0000
 11
0.1270
 21
-42.5450
 31
0.0000
  0
LINE
  8
48
 10
0.1270
 20
-42.5450
 30
0.0000
 11
-0.1270
 21
-42.5450
 31
0.0000
  0
LINE
  8
48
 10
-0.1270
 20
-42.5450
 30
0.0000
 11
-13.3350
 21
-42.5450
 31
0.0000
  0
LINE
  8
48
 10
-13.3350
 20
-38.7858
 30
0.0000
 11
-13.3350
 21
-42.5450
 31
0.0000
  0
LINE
  8
48
 10
-10.1600
 20
-31.0642
 30
0.0000
 11
-10.1600
 21
-38.7858
 31
0.0000
  0
LINE
  8
48
 10
-10.1600
 20
-38.7858
 30
0.0000
 11
-13.3350
 21
-38.7858
 31
0.0000
  0
LINE
  8
48
 10
-10.1600
 20
-31.0642
 30
0.0000
 11
-13.9446
 21
-31.0642
 31
0.0000
  0
LINE
  8
48
 10
13.9446
 20
-31.0642
 30
0.0000
 11
10.1600
 21
-31.0642
 31
0.0000
  0
LINE
  8
48
 10
10.1600
 20
-31.0642
 30
0.0000
 11
10.1600
 21
-38.7858
 31
0.0000
  0
LINE
  8
48
 10
10.1600
 20
-38.7858
 30
0.0000
 11
13.3350
 21
-38.7858
 31
0.0000
  0
LINE
  8
48
 10
-6.0960
 20
13.3350
 30
0.0000
 11
-9.8298
 21
13.3350
 31
0.0000
  0
LINE
  8
48
 10
-9.8298
 20
-12.9540
 30
0.0000
 11
-6.0960
 21
-12.9540
 31
0.0000
  0
LINE
  8
48
 10
-17.6022
 20
-9.7790
 30
0.0000
 11
-9.8298
 21
-9.7790
 31
0.0000
  0
LINE
  8
48
 10
-9.8298
 20
-9.7790
 30
0.0000
 11
-9.8298
 21
-12.9540
 31
0.0000
  0
LINE
  8
48
 10
-17.6022
 20
-9.7790
 30
0.0000
 11
-17.6022
 21
-12.9540
 31
0.0000
  0
LINE
  8
48
 10
-17.6022
 20
13.3350
 30
0.0000
 11
-17.6022
 21
10.0330
 31
0.0000
  0
LINE
  8
48
 10
-17.6022
 20
10.0330
 30
0.0000
 11
-9.8298
 21
10.0330
 31
0.0000
  0
LINE
  8
48
 10
-9.8298
 20
10.0330
 30
0.0000
 11
-9.8298
 21
13.3350
 31
0.0000
  0
LINE
  8
48
 10
-17.6022
 20
13.3350
 30
0.0000
 11
-21.3360
 21
13.3350
 31
0.0000
  0
LINE
  8
48
 10
-17.6022
 20
-12.9540
 30
0.0000
 11
-21.3360
 21
-12.9540
 31
0.0000
  0
ARC
  8
48
 10
1.5542
 20
1.0883
 30
0.0000
 40
35.6931
 50
184.5078
 51
244.2639
  0
LINE
  8
48
 10
23.6220
 20
24.6380
 30
0.0000
 11
27.3253
 21
20.4775
 31
0.0000
  0
LINE
  8
48
 10
0.1270
 20
-25.4000
 30
0.0000
 11
0.1270
 21
-42.5450
 31
0.0000
  0
LINE
  8
48
 10
-0.1270
 20
-42.5450
 30
0.0000
 11
-0.1270
 21
-25.4000
 31
0.0000
  0
LINE
  8
48
 10
-21.3360
 20
13.3350
 30
0.0000
 11
-21.3360
 21
0.0000
 31
0.0000
  0
LINE
  8
48
 10
-21.3360
 20
-0.5080
 30
0.0000
 11
-21.3360
 21
-12.9540
 31
0.0000
  0
LINE
  8
48
 10
-6.0960
 20
0.1270
 30
0.0000
 11
-6.0960
 21
6.6040
 31
0.0000
  0
LINE
  8
48
 10
-6.0960
 20
7.1120
 30
0.0000
 11
-6.0960
 21
16.6370
 31
0.0000
  0
LINE
  8
48
 10
15.4940
 20
16.6370
 30
0.0000
 11
7.5438
 21
16.6370
 31
0.0000
  0
LINE
  8
48
 10
4.0640
 20
16.6370
 30
0.0000
 11
1.5240
 21
16.6370
 31
0.0000
  0
LINE
  8
48
 10
-1.9558
 20
16.6370
 30
0.0000
 11
-6.0960
 21
16.6370
 31
0.0000
  0
ARC
  8
48
 10
15.1765
 20
8.0645
 30
0.0000
 40
7.9438
 50
272.2906
 51
2.2906
  0
ARC
  8
48
 10
15.4940
 20
9.0170
 30
0.0000
 40
7.6200
 50
0.0000
 51
90.0000
  0
LINE
  8
48
 10
-1.9558
 20
16.6370
 30
0.0000
 11
-1.9558
 21
12.1920
 31
0.0000
  0
LINE
  8
48
 10
-1.9558
 20
12.1920
 30
0.0000
 11
1.5240
 21
12.1920
 31
0.0000
  0
LINE
  8
48
 10
1.5240
 20
12.1920
 30
0.0000
 11
1.5240
 21
16.6370
 31
0.0000
  0
LINE
  8
48
 10
7.5438
 20
16.6370
 30
0.0000
 11
7.5438
 21
12.1920
 31
0.0000
  0
LINE
  8
48
 10
7.5438
 20
12.1920
 30
0.0000
 11
4.0640
 21
12.1920
 31
0.0000
  0
LINE
  8
48
 10
4.0640
 20
12.1920
 30
0.0000
 11
4.0640
 21
16.6370
 31
0.0000
  0
LINE
  8
48
 10
7.5438
 20
4.5720
 30
0.0000
 11
4.0640
 21
4.5720
 31
0.0000
  0
LINE
  8
48
 10
1.5240
 20
4.5720
 30
0.0000
 11
-1.9558
 21
4.5720
 31
0.0000
  0
LINE
  8
48
 10
-6.0960
 20
-16.3830
 30
0.0000
 11
-6.0960
 21
-6.6040
 31
0.0000
  0
LINE
  8
48
 10
-6.0960
 20
-6.0960
 30
0.0000
 11
-6.0960
 21
0.1270
 31
0.0000
  0
LINE
  8
48
 10
15.4940
 20
0.1270
 30
0.0000
 11
7.5438
 21
0.1270
 31
0.0000
  0
LINE
  8
48
 10
4.0640
 20
0.1270
 30
0.0000
 11
1.5240
 21
0.1270
 31
0.0000
  0
LINE
  8
48
 10
-1.9558
 20
0.1270
 30
0.0000
 11
-6.0960
 21
0.1270
 31
0.0000
  0
LINE
  8
48
 10
15.4940
 20
-16.3830
 30
0.0000
 11
7.5438
 21
-16.3830
 31
0.0000
  0
LINE
  8
48
 10
4.0640
 20
-16.3830
 30
0.0000
 11
1.5240
 21
-16.3830
 31
0.0000
  0
LINE
  8
48
 10
-1.9558
 20
-16.3830
 30
0.0000
 11
-6.0960
 21
-16.3830
 31
0.0000
  0
ARC
  8
48
 10
15.4940
 20
-8.7630
 30
0.0000
 40
7.6200
 50
270.0000
 51
0.0000
  0
LINE
  8
48
 10
23.1140
 20
-8.7630
 30
0.0000
 11
23.1140
 21
-8.3566
 31
0.0000
  0
LINE
  8
48
 10
23.1140
 20
-7.8486
 30
0.0000
 11
23.1140
 21
-7.4930
 31
0.0000
  0
ARC
  8
48
 10
15.4940
 20
-7.4930
 30
0.0000
 40
7.6200
 50
0.0000
 51
90.0000
  0
LINE
  8
48
 10
-1.9558
 20
4.5720
 30
0.0000
 11
-1.9558
 21
-4.3180
 31
0.0000
  0
LINE
  8
48
 10
-1.9558
 20
-4.3180
 30
0.0000
 11
1.5240
 21
-4.3180
 31
0.0000
  0
LINE
  8
48
 10
1.5240
 20
-4.3180
 30
0.0000
 11
1.5240
 21
4.5720
 31
0.0000
  0
LINE
  8
48
 10
7.5438
 20
4.5720
 30
0.0000
 11
7.5438
 21
-4.3180
 31
0.0000
  0
LINE
  8
48
 10
7.5438
 20
-4.3180
 30
0.0000
 11
4.0640
 21
-4.3180
 31
0.0000
  0
LINE
  8
48
 10
4.0640
 20
-4.3180
 30
0.0000
 11
4.0640
 21
4.5720
 31
0.0000
  0
LINE
  8
48
 10
7.5438
 20
-16.3830
 30
0.0000
 11
7.5438
 21
-11.9380
 31
0.0000
  0
LINE
  8
48
 10
7.5438
 20
-11.9380
 30
0.0000
 11
4.0640
 21
-11.9380
 31
0.0000
  0
LINE
  8
48
 10
4.0640
 20
-11.9380
 30
0.0000
 11
4.0640
 21
-16.3830
 31
0.0000
  0
LINE
  8
48
 10
1.5240
 20
-16.3830
 30
0.0000
 11
1.5240
 21
-11.9380
 31
0.0000
  0
LINE
  8
48
 10
1.5240
 20
-11.9380
 30
0.0000
 11
-1.9558
 21
-11.9380
 31
0.0000
  0
LINE
  8
48
 10
-1.9558
 20
-11.9380
 30
0.0000
 11
-1.9558
 21
-16.3830
 31
0.0000
  0
LINE
  8
48
 10
-7.2390
 20
17.4244
 30
0.0000
 11
5.4610
 21
17.4244
 31
0.0000
  0
LINE
  8
48
 10
-7.2390
 20
17.4244
 30
0.0000
 11
-7.2390
 21
19.7866
 31
0.0000
  0
LINE
  8
48
 10
-7.2390
 20
20.3200
 30
0.0000
 11
-7.2390
 21
22.5044
 31
0.0000
  0
LINE
  8
48
 10
-7.2390
 20
22.5044
 30
0.0000
 11
5.4610
 21
22.5298
 31
0.0000
  0
LINE
  8
48
 10
5.4610
 20
17.4244
 30
0.0000
 11
5.4610
 21
22.5298
 31
0.0000
  0
LINE
  8
48
 10
-6.7564
 20
-23.1140
 30
0.0000
 11
5.9436
 21
-23.1140
 31
0.0000
  0
LINE
  8
48
 10
-6.7564
 20
-23.1140
 30
0.0000
 11
-6.7564
 21
-20.8534
 31
0.0000
  0
LINE
  8
48
 10
-6.7564
 20
-20.3200
 30
0.0000
 11
-6.7564
 21
-18.0340
 31
0.0000
  0
LINE
  8
48
 10
-6.7564
 20
-18.0340
 30
0.0000
 11
5.9436
 21
-18.0086
 31
0.0000
  0
LINE
  8
48
 10
5.9436
 20
-23.1140
 30
0.0000
 11
5.9436
 21
-18.0086
 31
0.0000
  0
LINE
  8
31
 10
-9.6934
 20
28.6021
 30
0.0000
 11
-5.6764
 21
29.2689
 31
0.0000
  0
LINE
  8
31
 10
-9.3506
 20
27.1172
 30
0.0000
 11
-5.5050
 21
28.5264
 31
0.0000
  0
ARC
  8
31
 10
-5.6371
 20
28.8869
 30
0.0000
 40
0.3840
 50
290.1247
 51
95.8756
  0
LINE
  8
31
 10
-7.9077
 20
29.9007
 30
0.0000
 11
-15.3324
 21
28.1866
 31
0.0000
  0
LINE
  8
31
 10
-15.3324
 20
28.1866
 30
0.0000
 11
-14.6468
 21
25.2167
 31
0.0000
  0
LINE
  8
31
 10
-14.6468
 20
25.2167
 30
0.0000
 11
-7.2221
 21
26.9308
 31
0.0000
  0
LINE
  8
31
 10
-7.2221
 20
26.9308
 30
0.0000
 11
-7.3706
 21
27.5743
 31
0.0000
  0
LINE
  8
31
 10
-7.9077
 20
29.9007
 30
0.0000
 11
-7.7363
 21
29.1582
 31
0.0000
  0
LINE
  8
48
 10
27.3253
 20
20.4775
 30
0.0000
 11
27.3558
 21
20.4343
 31
0.0000
  0
ARC
  8
48
 10
-1.0676
 20
0.3705
 30
0.0000
 40
34.7915
 50
0.2348
 51
35.2179
  0
LINE
  8
48
 10
13.9446
 20
-31.0642
 30
0.0000
 11
14.0030
 21
-31.0363
 31
0.0000
  0
ARC
  8
48
 10
-0.9661
 20
0.2614
 30
0.0000
 40
34.6932
 50
295.5609
 51
359.5683
  0
ARC
  8
48
 10
-0.0013
 20
0.2487
 30
0.0000
 40
25.9105
 50
180.5500
 51
359.4500
  0
ARC
  8
48
 10
0.0000
 20
0.2593
 30
0.0000
 40
25.9092
 50
0.5500
 51
179.4500
  0
LINE
  8
31
 10
-31.6100
 20
-7.4200
 30
0.0000
 11
-31.5500
 21
-7.7500
 31
0.0000
  0
LINE
  8
31
 10
-31.5500
 20
-7.7500
 30
0.0000
 11
-31.2700
 21
-7.8800
 31
0.0000
  0
LINE
  8
31
 10
-31.2700
 20
-7.8800
 30
0.0000
 11
-30.9100
 21
-7.8700
 31
0.0000
  0
LINE
  8
31
 10
-30.9100
 20
-7.8700
 30
0.0000
 11
-30.6900
 21
-7.6600
 31
0.0000
  0
LINE
  8
31
 10
-30.6900
 20
-7.6600
 30
0.0000
 11
-30.6700
 21
-7.3000
 31
0.0000
  0
LINE
  8
31
 10
-30.6700
 20
-7.3000
 30
0.0000
 11
-30.6700
 21
-6.2800
 31
0.0000
  0
LINE
  8
31
 10
-30.6700
 20
-6.2800
 30
0.0000
 11
-30.4400
 21
-6.1600
 31
0.0000
  0
LINE
  8
31
 10
-30.4400
 20
-6.1600
 30
0.0000
 11
-27.3600
 21
-6.1600
 31
0.0000
  0
LINE
  8
31
 10
-27.3600
 20
-6.1600
 30
0.0000
 11
-27.0500
 21
-6.1300
 31
0.0000
  0
LINE
  8
31
 10
-27.0500
 20
-6.1300
 30
0.0000
 11
-26.8600
 21
-5.8800
 31
0.0000
  0
LINE
  8
31
 10
-26.8600
 20
-5.8800
 30
0.0000
 11
-26.8400
 21
-5.5100
 31
0.0000
  0
LINE
  8
31
 10
-26.8400
 20
-5.5100
 30
0.0000
 11
-26.9200
 21
-5.2000
 31
0.0000
  0
LINE
  8
31
 10
-26.9200
 20
-5.2000
 30
0.0000
 11
-27.2100
 21
-5.0600
 31
0.0000
  0
LINE
  8
31
 10
-27.2100
 20
-5.0600
 30
0.0000
 11
-27.5600
 21
-5.0500
 31
0.0000
  0
LINE
  8
31
 10
-27.5600
 20
-5.0500
 30
0.0000
 11
-30.6300
 21
-5.0500
 31
0.0000
  0
LINE
  8
31
 10
-30.6300
 20
-5.0500
 30
0.0000
 11
-30.6700
 21
-4.7400
 31
0.0000
  0
LINE
  8
31
 10
-30.6700
 20
-4.7400
 30
0.0000
 11
-30.6700
 21
-4.0600
 31
0.0000
  0
LINE
  8
31
 10
-30.6700
 20
-4.0600
 30
0.0000
 11
-30.6700
 21
-3.6900
 31
0.0000
  0
LINE
  8
31
 10
-30.6700
 20
-3.6900
 30
0.0000
 11
-30.7900
 21
-3.4100
 31
0.0000
  0
LINE
  8
31
 10
-30.7900
 20
-3.4100
 30
0.0000
 11
-31.1100
 21
-3.3500
 31
0.0000
  0
LINE
  8
31
 10
-31.1100
 20
-3.3500
 30
0.0000
 11
-31.4600
 21
-3.3800
 31
0.0000
  0
LINE
  8
31
 10
-31.4600
 20
-3.3800
 30
0.0000
 11
-31.6100
 21
-3.6500
 31
0.0000
  0
LINE
  8
31
 10
-31.6100
 20
-3.6500
 30
0.0000
 11
-31.6100
 21
-4.0100
 31
0.0000
  0
LINE
  8
31
 10
-31.6100
 20
-4.0100
 30
0.0000
 11
-31.6100
 21
-7.4200
 31
0.0000
  0
LINE
  8
31
 10
-30.3900
 20
7.2000
 30
0.0000
 11
-30.6900
 21
7.0500
 31
0.0000
  0
LINE
  8
31
 10
-30.6900
 20
7.0500
 30
0.0000
 11
-30.9700
 21
6.8500
 31
0.0000
  0
LINE
  8
31
 10
-30.9700
 20
6.8500
 30
0.0000
 11
-31.2000
 21
6.6100
 31
0.0000
  0
LINE
  8
31
 10
-31.2000
 20
6.6100
 30
0.0000
 11
-31.4000
 21
6.3100
 31
0.0000
  0
LINE
  8
31
 10
-31.4000
 20
6.3100
 30
0.0000
 11
-31.5400
 21
6.0000
 31
0.0000
  0
LINE
  8
31
 10
-31.5400
 20
6.0000
 30
0.0000
 11
-31.6000
 21
5.6900
 31
0.0000
  0
LINE
  8
31
 10
-31.6000
 20
5.6900
 30
0.0000
 11
-31.6100
 21
5.3600
 31
0.0000
  0
LINE
  8
31
 10
-31.6100
 20
5.3600
 30
0.0000
 11
-31.6100
 21
4.3500
 31
0.0000
  0
LINE
  8
31
 10
-31.6100
 20
4.3500
 30
0.0000
 11
-31.6100
 21
3.9700
 31
0.0000
  0
LINE
  8
31
 10
-31.6100
 20
3.9700
 30
0.0000
 11
-31.5100
 21
3.6600
 31
0.0000
  0
LINE
  8
31
 10
-31.5100
 20
3.6600
 30
0.0000
 11
-31.2400
 21
3.5600
 31
0.0000
  0
LINE
  8
31
 10
-31.2400
 20
3.5600
 30
0.0000
 11
-27.5300
 21
3.5600
 31
0.0000
  0
LINE
  8
31
 10
-27.5300
 20
3.5600
 30
0.0000
 11
-27.1700
 21
3.5700
 31
0.0000
  0
LINE
  8
31
 10
-27.1700
 20
3.5700
 30
0.0000
 11
-26.9400
 21
3.6900
 31
0.0000
  0
LINE
  8
31
 10
-26.9400
 20
3.6900
 30
0.0000
 11
-26.8400
 21
4.0300
 31
0.0000
  0
LINE
  8
31
 10
-26.8400
 20
4.0300
 30
0.0000
 11
-26.8800
 21
4.4500
 31
0.0000
  0
LINE
  8
31
 10
-26.8800
 20
4.4500
 30
0.0000
 11
-27.0500
 21
4.6500
 31
0.0000
  0
LINE
  8
31
 10
-27.0500
 20
4.6500
 30
0.0000
 11
-27.3700
 21
4.7100
 31
0.0000
  0
LINE
  8
31
 10
-27.3700
 20
4.7100
 30
0.0000
 11
-28.0500
 21
4.7100
 31
0.0000
  0
LINE
  8
31
 10
-28.0500
 20
4.7100
 30
0.0000
 11
-28.1600
 21
4.9400
 31
0.0000
  0
LINE
  8
31
 10
-28.1600
 20
4.9400
 30
0.0000
 11
-28.1600
 21
5.2800
 31
0.0000
  0
LINE
  8
31
 10
-28.1600
 20
5.2800
 30
0.0000
 11
-28.1600
 21
5.6100
 31
0.0000
  0
LINE
  8
31
 10
-28.1600
 20
5.6100
 30
0.0000
 11
-28.2100
 21
5.9200
 31
0.0000
  0
LINE
  8
31
 10
-28.2100
 20
5.9200
 30
0.0000
 11
-28.3200
 21
6.2300
 31
0.0000
  0
LINE
  8
31
 10
-29.3100
 20
5.7200
 30
0.0000
 11
-29.3100
 21
4.7100
 31
0.0000
  0
LINE
  8
31
 10
-29.3100
 20
4.7100
 30
0.0000
 11
-29.6400
 21
4.7100
 31
0.0000
  0
LINE
  8
31
 10
-29.6400
 20
4.7100
 30
0.0000
 11
-30.3200
 21
4.7100
 31
0.0000
  0
LINE
  8
31
 10
-30.3200
 20
4.7100
 30
0.0000
 11
-30.4600
 21
4.9000
 31
0.0000
  0
LINE
  8
31
 10
-30.4600
 20
4.9000
 30
0.0000
 11
-30.4600
 21
5.2400
 31
0.0000
  0
LINE
  8
31
 10
-30.4600
 20
5.2400
 30
0.0000
 11
-30.4600
 21
5.5700
 31
0.0000
  0
LINE
  8
31
 10
-30.4600
 20
5.5700
 30
0.0000
 11
-30.3400
 21
5.8800
 31
0.0000
  0
LINE
  8
31
 10
-30.3400
 20
5.8800
 30
0.0000
 11
-30.0800
 21
6.0700
 31
0.0000
  0
LINE
  8
31
 10
-30.0800
 20
6.0700
 30
0.0000
 11
-29.7100
 21
6.0800
 31
0.0000
  0
LINE
  8
31
 10
-29.7100
 20
6.0800
 30
0.0000
 11
-29.4500
 21
5.9100
 31
0.0000
  0
LINE
  8
31
 10
-29.4500
 20
5.9100
 30
0.0000
 11
-29.3100
 21
5.7200
 31
0.0000
  0
LINE
  8
31
 10
-28.3200
 20
6.2400
 30
0.0000
 11
-28.5000
 21
6.5400
 31
0.0000
  0
LINE
  8
31
 10
-28.5000
 20
6.5400
 30
0.0000
 11
-28.7100
 21
6.8000
 31
0.0000
  0
LINE
  8
31
 10
-28.7100
 20
6.8000
 30
0.0000
 11
-28.9800
 21
7.0100
 31
0.0000
  0
LINE
  8
31
 10
-28.9800
 20
7.0100
 30
0.0000
 11
-29.2900
 21
7.1500
 31
0.0000
  0
LINE
  8
31
 10
-29.2900
 20
7.1500
 30
0.0000
 11
-29.6100
 21
7.2300
 31
0.0000
  0
LINE
  8
31
 10
-29.6100
 20
7.2300
 30
0.0000
 11
-29.9600
 21
7.2500
 31
0.0000
  0
LINE
  8
31
 10
-29.9600
 20
7.2500
 30
0.0000
 11
-30.2900
 21
7.2500
 31
0.0000
  0
LINE
  8
31
 10
-30.2900
 20
7.2500
 30
0.0000
 11
-30.3900
 21
7.2000
 31
0.0000
  0
CIRCLE
  8
48
 10
14.2240
 20
8.3820
 30
0.0000
 40
2.7940
  0
CIRCLE
  8
48
 10
2.7940
 20
8.3820
 30
0.0000
 40
1.3970
  0
CIRCLE
  8
48
 10
14.2240
 20
-8.1280
 30
0.0000
 40
2.7940
  0
CIRCLE
  8
48
 10
2.7940
 20
-8.1280
 30
0.0000
 40
1.3970
  0
CIRCLE
  8
48
 10
-0.3949
 20
39.5838
 30
0.0000
 40
0.7620
  0
CIRCLE
  8
48
 10
-27.7244
 20
33.7747
 30
0.0000
 40
0.7620
  0
CIRCLE
  8
48
 10
-0.8773
 20
19.9570
 30
0.0000
 40
0.7620
  0
CIRCLE
  8
48
 10
-0.3947
 20
-20.5814
 30
0.0000
 40
0.7620
  0
CIRCLE
  8
31
 10
-9.5220
 20
27.8597
 30
0.0000
 40
0.7709
  0
CIRCLE
  8
31
 10
-8.2845
 20
28.1454
 30
0.0000
 40
0.0803
  0
CIRCLE
  8
31
 10
-7.5421
 20
28.3168
 30
0.0000
 40
0.0803
  0
CIRCLE
  8
31
 10
-29.2786
 20
0.1143
 30
0.0000
 40
1.2458
  0
CIRCLE
  8
31
 10
-29.2786
 20
0.1422
 30
0.0000
 40
2.4065
  0
ENDSEC
  0
EOF
