  0
SECTION
  2
HEADER
  9
$ACADVER
  1
AC1009
  9
$FILLMODE
 70
0
  9
$EXTMIN
 10
-1.623418
 20
-2.440000
 30
0.000000
  9
$EXTMAX
 10
3.902551
 20
2.103900
 30
0.000000
  0
ENDSEC
  0
SECTION
  2
TABLES
  0
TABLE
  2
LTYPE
 70
1
  0
LTYPE
  2
CONTINUOUS
 70
64
  3
Solid line
 72
65
 73
0
 40
0
  0
ENDTAB
  0
TABLE
  2
LAYER
 70
255
  0
LAYER
  2
20
 70
64
 62
253
  6
CONTINUOUS
  0
ENDTAB
  0
ENDSEC
  0
SECTION
  2
BLOCKS
  0
BLOCK
  8
0
  2
RECT
 70
64
 10
0.000000
 20
0.000000
 30
0.000000
  3
RECT
  0
SOLID
  8
0
 10
-0.500000
 20
-0.500000
 30
0.000000
 11
0.500000
 21
-0.500000
 31
0.000000
 12
-0.500000
 22
0.500000
 32
0.000000
 13
0.500000
 23
0.500000
 33
0.000000
  0
ENDBLK
  8
0
  0
BLOCK
  8
0
  2
PIE
 70
64
 10
0.000000
 20
0.000000
 30
0.000000
  3
PIE
  0
CIRCLE
  8
0
 10
0.000000
 20
0.000000
 30
0.000000
 40
0.500000
  0
ENDBLK
  8
0
  0
BLOCK
  8
0
  2
OCTAGONP
 70
64
 10
0.000000
 20
0.000000
 30
0.000000
  3
OCTAGONP
  0
POLYLINE
  8
0
 66
1
 10
0.000000
 20
0.000000
 30
0.000000
 40
0.000000
 41
0.000000
 70
1
  0
VERTEX
  8
0
 10
-0.500000
 20
-0.207107
 30
0.000000
  0
VERTEX
  8
0
 10
-0.500000
 20
0.207107
 30
0.000000
  0
VERTEX
  8
0
 10
-0.207107
 20
0.500000
 30
0.000000
  0
VERTEX
  8
0
 10
0.207107
 20
0.500000
 30
0.000000
  0
VERTEX
  8
0
 10
0.500000
 20
0.207107
 30
0.000000
  0
VERTEX
  8
0
 10
0.500000
 20
-0.207107
 30
0.000000
  0
VERTEX
  8
0
 10
0.207107
 20
-0.500000
 30
0.000000
  0
VERTEX
  8
0
 10
-0.207107
 20
-0.500000
 30
0.000000
  0
SEQEND
  8
0
  0
ENDBLK
  8
0
  0
BLOCK
  8
0
  2
SQUAREP
 70
64
 10
0.000000
 20
0.000000
 30
0.000000
  3
SQUAREP
  0
SOLID
  8
0
 10
-0.500000
 20
-0.500000
 30
0.000000
 11
0.500000
 21
-0.500000
 31
0.000000
 12
-0.500000
 22
0.500000
 32
0.000000
 13
0.500000
 23
0.500000
 33
0.000000
  0
ENDBLK
  8
0
  0
BLOCK
  8
0
  2
ROUNDP
 70
64
 10
0.000000
 20
0.000000
 30
0.000000
  3
ROUNDP
  0
CIRCLE
  8
0
 10
0.000000
 20
0.000000
 30
0.000000
 40
0.500000
  0
ENDBLK
  8
0
  0
BLOCK
  8
0
  2
ANNULUSP
 70
64
 10
0.000000
 20
0.000000
 30
0.000000
  3
ANNULUSP
  0
CIRCLE
  8
0
 10
0.000000
 20
0.000000
 30
0.000000
 40
0.500000
  0
ENDBLK
  8
0
  0
BLOCK
  8
0
  2
THERMALP
 70
64
 10
0.000000
 20
0.000000
 30
0.000000
  3
THERMALP
  0
LINE
  8
0
 10
-0.237868
 20
0.450000
 30
0.000000
 11
0.237868
 21
0.450000
 31
0.000000
  0
LINE
  8
0
 10
0.450000
 20
0.237868
 30
0.000000
 11
0.450000
 21
-0.237868
 31
0.000000
  0
LINE
  8
0
 10
0.237868
 20
-0.450000
 30
0.000000
 11
-0.237868
 21
-0.450000
 31
0.000000
  0
LINE
  8
0
 10
-0.450000
 20
-0.237868
 30
0.000000
 11
-0.450000
 21
0.237868
 31
0.000000
  0
ENDBLK
  8
0
  0
BLOCK
  8
0
  2
OCTAGONV
 70
64
 10
0.000000
 20
0.000000
 30
0.000000
  3
OCTAGONV
  0
POLYLINE
  8
0
 66
1
 10
0.000000
 20
0.000000
 30
0.000000
 40
0.000000
 41
0.000000
 70
1
  0
VERTEX
  8
0
 10
-0.500000
 20
-0.207107
 30
0.000000
  0
VERTEX
  8
0
 10
-0.500000
 20
0.207107
 30
0.000000
  0
VERTEX
  8
0
 10
-0.207107
 20
0.500000
 30
0.000000
  0
VERTEX
  8
0
 10
0.207107
 20
0.500000
 30
0.000000
  0
VERTEX
  8
0
 10
0.500000
 20
0.207107
 30
0.000000
  0
VERTEX
  8
0
 10
0.500000
 20
-0.207107
 30
0.000000
  0
VERTEX
  8
0
 10
0.207107
 20
-0.500000
 30
0.000000
  0
VERTEX
  8
0
 10
-0.207107
 20
-0.500000
 30
0.000000
  0
SEQEND
  8
0
  0
ENDBLK
  8
0
  0
BLOCK
  8
0
  2
SQUAREV
 70
64
 10
0.000000
 20
0.000000
 30
0.000000
  3
SQUAREV
  0
SOLID
  8
0
 10
-0.500000
 20
-0.500000
 30
0.000000
 11
0.500000
 21
-0.500000
 31
0.000000
 12
-0.500000
 22
0.500000
 32
0.000000
 13
0.500000
 23
0.500000
 33
0.000000
  0
ENDBLK
  8
0
  0
BLOCK
  8
0
  2
ROUNDV
 70
64
 10
0.000000
 20
0.000000
 30
0.000000
  3
ROUNDV
  0
CIRCLE
  8
0
 10
0.000000
 20
0.000000
 30
0.000000
 40
0.500000
  0
ENDBLK
  8
0
  0
BLOCK
  8
0
  2
ANNULUSV
 70
64
 10
0.000000
 20
0.000000
 30
0.000000
  3
ANNULUSV
  0
CIRCLE
  8
0
 10
0.000000
 20
0.000000
 30
0.000000
 40
0.500000
  0
ENDBLK
  8
0
  0
BLOCK
  8
0
  2
THERMALV
 70
64
 10
0.000000
 20
0.000000
 30
0.000000
  3
THERMALV
  0
LINE
  8
0
 10
-0.237868
 20
0.450000
 30
0.000000
 11
0.237868
 21
0.450000
 31
0.000000
  0
LINE
  8
0
 10
0.450000
 20
0.237868
 30
0.000000
 11
0.450000
 21
-0.237868
 31
0.000000
  0
LINE
  8
0
 10
0.237868
 20
-0.450000
 30
0.000000
 11
-0.237868
 21
-0.450000
 31
0.000000
  0
LINE
  8
0
 10
-0.450000
 20
-0.237868
 30
0.000000
 11
-0.450000
 21
0.237868
 31
0.000000
  0
ENDBLK
  8
0
  0
ENDSEC
  0
SECTION
  2
ENTITIES
  0
ARC
  8
20
 10
0.001051
 20
-0.000145
 30
0.000000
 40
1.000000
 50
11.999995
 51
101.999995
  0
ARC
  8
20
 10
0.001051
 20
-0.000145
 30
0.000000
 40
1.000000
 50
101.999999
 51
191.999999
  0
ARC
  8
20
 10
0.001051
 20
-0.000145
 30
0.000000
 40
1.000000
 50
191.999995
 51
281.999995
  0
ARC
  8
20
 10
0.001051
 20
-0.000145
 30
0.000000
 40
1.000000
 50
281.999999
 51
11.999999
  0
LINE
  8
20
 10
-0.156769
 20
1.704289
 30
0.000000
 11
-0.052813
 21
1.215215
 31
0.000000
  0
LINE
  8
20
 10
-0.052813
 20
1.215215
 30
0.000000
 11
-0.639702
 21
1.090468
 31
0.000000
  0
LINE
  8
20
 10
-0.639702
 20
1.090468
 30
0.000000
 11
-0.577328
 21
0.797023
 31
0.000000
  0
LINE
  8
20
 10
-0.156769
 20
1.704289
 30
0.000000
 11
0.038860
 21
1.745871
 31
0.000000
  0
LINE
  8
20
 10
0.038860
 20
1.745871
 30
0.000000
 11
0.900000
 21
0.800000
 31
0.000000
  0
LINE
  8
20
 10
-0.737517
 20
1.069676
 30
0.000000
 11
-0.664748
 21
0.727325
 31
0.000000
  0
LINE
  8
20
 10
-0.737517
 20
1.069676
 30
0.000000
 11
-0.933146
 21
1.028094
 31
0.000000
  0
LINE
  8
20
 10
-0.933146
 20
1.028094
 30
0.000000
 11
-1.037102
 21
1.517168
 31
0.000000
  0
LINE
  8
20
 10
-1.037102
 20
1.517168
 30
0.000000
 11
-1.232732
 21
1.475586
 31
0.000000
  0
LINE
  8
20
 10
-1.232732
 20
1.475586
 30
0.000000
 11
-1.200000
 21
-0.050000
 31
0.000000
  0
LINE
  8
20
 10
0.415000
 20
-1.550000
 30
0.000000
 11
0.415000
 21
-1.450000
 31
0.000000
  0
LINE
  8
20
 10
0.415000
 20
-1.550000
 30
0.000000
 11
-0.415000
 21
-1.550000
 31
0.000000
  0
LINE
  8
20
 10
-0.415000
 20
-1.450000
 30
0.000000
 11
-0.415000
 21
-1.550000
 31
0.000000
  0
LINE
  8
20
 10
0.850000
 20
-1.550000
 30
0.000000
 11
0.850000
 21
-1.050000
 31
0.000000
  0
LINE
  8
20
 10
1.650000
 20
-1.050000
 30
0.000000
 11
1.485000
 21
-1.050000
 31
0.000000
  0
LINE
  8
20
 10
1.415000
 20
-1.050000
 30
0.000000
 11
1.205000
 21
-1.050000
 31
0.000000
  0
LINE
  8
20
 10
0.945000
 20
-1.050000
 30
0.000000
 11
0.850000
 21
-1.050000
 31
0.000000
  0
LINE
  8
20
 10
1.650000
 20
-1.550000
 30
0.000000
 11
1.485000
 21
-1.550000
 31
0.000000
  0
LINE
  8
20
 10
1.415000
 20
-1.550000
 30
0.000000
 11
1.205000
 21
-1.550000
 31
0.000000
  0
LINE
  8
20
 10
0.945000
 20
-1.550000
 30
0.000000
 11
0.850000
 21
-1.550000
 31
0.000000
  0
ARC
  8
20
 10
1.650000
 20
-1.300000
 30
0.000000
 40
0.250000
 50
270.000000
 51
0.000000
  0
ARC
  8
20
 10
1.650000
 20
-1.300000
 30
0.000000
 40
0.250000
 50
0.000000
 51
90.000000
  0
LINE
  8
20
 10
0.945000
 20
-1.050000
 30
0.000000
 11
0.945000
 21
-1.155000
 31
0.000000
  0
LINE
  8
20
 10
0.945000
 20
-1.155000
 30
0.000000
 11
1.205000
 21
-1.155000
 31
0.000000
  0
LINE
  8
20
 10
1.205000
 20
-1.155000
 30
0.000000
 11
1.205000
 21
-1.050000
 31
0.000000
  0
LINE
  8
20
 10
1.485000
 20
-1.050000
 30
0.000000
 11
1.485000
 21
-1.155000
 31
0.000000
  0
LINE
  8
20
 10
1.485000
 20
-1.155000
 30
0.000000
 11
1.415000
 21
-1.155000
 31
0.000000
  0
LINE
  8
20
 10
1.415000
 20
-1.155000
 30
0.000000
 11
1.415000
 21
-1.050000
 31
0.000000
  0
LINE
  8
20
 10
1.485000
 20
-1.550000
 30
0.000000
 11
1.485000
 21
-1.445000
 31
0.000000
  0
LINE
  8
20
 10
1.485000
 20
-1.445000
 30
0.000000
 11
1.415000
 21
-1.445000
 31
0.000000
  0
LINE
  8
20
 10
1.415000
 20
-1.445000
 30
0.000000
 11
1.415000
 21
-1.550000
 31
0.000000
  0
LINE
  8
20
 10
1.205000
 20
-1.550000
 30
0.000000
 11
1.205000
 21
-1.445000
 31
0.000000
  0
LINE
  8
20
 10
1.205000
 20
-1.445000
 30
0.000000
 11
0.945000
 21
-1.445000
 31
0.000000
  0
LINE
  8
20
 10
0.945000
 20
-1.445000
 30
0.000000
 11
0.945000
 21
-1.550000
 31
0.000000
  0
LINE
  8
20
 10
-0.350000
 20
-1.150000
 30
0.000000
 11
-0.350000
 21
-1.450000
 31
0.000000
  0
LINE
  8
20
 10
-0.350000
 20
-1.450000
 30
0.000000
 11
-0.415000
 21
-1.450000
 31
0.000000
  0
LINE
  8
20
 10
-0.350000
 20
-1.150000
 30
0.000000
 11
-0.450000
 21
-1.150000
 31
0.000000
  0
LINE
  8
20
 10
0.450000
 20
-1.150000
 30
0.000000
 11
0.350000
 21
-1.150000
 31
0.000000
  0
LINE
  8
20
 10
0.350000
 20
-1.150000
 30
0.000000
 11
0.350000
 21
-1.450000
 31
0.000000
  0
LINE
  8
20
 10
0.350000
 20
-1.450000
 30
0.000000
 11
0.415000
 21
-1.450000
 31
0.000000
  0
LINE
  8
20
 10
3.115000
 20
-1.550000
 30
0.000000
 11
3.115000
 21
-1.450000
 31
0.000000
  0
LINE
  8
20
 10
3.115000
 20
-1.550000
 30
0.000000
 11
2.285000
 21
-1.550000
 31
0.000000
  0
LINE
  8
20
 10
2.285000
 20
-1.450000
 30
0.000000
 11
2.285000
 21
-1.550000
 31
0.000000
  0
LINE
  8
20
 10
2.350000
 20
-1.150000
 30
0.000000
 11
2.350000
 21
-1.450000
 31
0.000000
  0
LINE
  8
20
 10
2.350000
 20
-1.450000
 30
0.000000
 11
2.285000
 21
-1.450000
 31
0.000000
  0
LINE
  8
20
 10
2.350000
 20
-1.150000
 30
0.000000
 11
2.250000
 21
-1.150000
 31
0.000000
  0
LINE
  8
20
 10
3.150000
 20
-1.150000
 30
0.000000
 11
3.050000
 21
-1.150000
 31
0.000000
  0
LINE
  8
20
 10
3.050000
 20
-1.150000
 30
0.000000
 11
3.050000
 21
-1.450000
 31
0.000000
  0
LINE
  8
20
 10
3.050000
 20
-1.450000
 30
0.000000
 11
3.115000
 21
-1.450000
 31
0.000000
  0
LINE
  8
20
 10
3.150000
 20
-1.150000
 30
0.000000
 11
3.150000
 21
-0.900000
 31
0.000000
  0
LINE
  8
20
 10
2.250000
 20
-1.150000
 30
0.000000
 11
2.250000
 21
-0.900000
 31
0.000000
  0
LINE
  8
20
 10
3.150000
 20
-0.900000
 30
0.000000
 11
3.138300
 21
-0.905900
 31
0.000000
  0
ARC
  8
20
 10
2.700169
 20
-0.001642
 30
0.000000
 40
1.004809
 50
243.759306
 51
295.851106
  0
ARC
  8
20
 10
2.304920
 20
-0.795718
 30
0.000000
 40
0.117859
 50
242.226628
 51
245.422987
  0
LINE
  8
20
 10
-1.200000
 20
-0.050000
 30
0.000000
 11
-1.197300
 21
-0.093500
 31
0.000000
  0
ARC
  8
20
 10
-0.022627
 20
-0.020588
 30
0.000000
 40
1.176934
 50
183.551795
 51
243.307940
  0
LINE
  8
20
 10
-0.551300
 20
-1.072100
 30
0.000000
 11
-0.450000
 21
-1.150000
 31
0.000000
  0
LINE
  8
20
 10
0.900000
 20
0.800000
 30
0.000000
 11
0.915800
 21
0.781200
 31
0.000000
  0
ARC
  8
20
 10
-0.013618
 20
0.000094
 30
0.000000
 40
1.214061
 50
300.348683
 51
40.044541
  0
LINE
  8
20
 10
0.599800
 20
-1.047600
 30
0.000000
 11
0.450000
 21
-1.150000
 31
0.000000
  0
CIRCLE
  8
20
 10
1.700000
 20
-1.300000
 30
0.000000
 40
0.050000
  0
CIRCLE
  8
20
 10
1.300000
 20
-1.300000
 30
0.000000
 40
0.060000
  0
CIRCLE
  8
20
 10
-0.006976
 20
1.480543
 30
0.000000
 40
0.040000
  0
CIRCLE
  8
20
 10
-1.082939
 20
1.251840
 30
0.000000
 40
0.040000
  0
ENDSEC
  0
EOF
