  0
SECTION
  2
HEADER
  9
$ACADVER
  1
AC1009
  9
$FILLMODE
 70
0
  9
$EXTMIN
 10
-2.323418
 20
-2.440000
 30
0.000000
  9
$EXTMAX
 10
4.103000
 20
2.623418
 30
0.000000
  0
ENDSEC
  0
SECTION
  2
TABLES
  0
TABLE
  2
LTYPE
 70
1
  0
LTYPE
  2
CONTINUOUS
 70
64
  3
Solid line
 72
65
 73
0
 40
0
  0
ENDTAB
  0
TABLE
  2
LAYER
 70
255
  0
LAYER
  2
20
 70
64
 62
253
  6
CONTINUOUS
  0
ENDTAB
  0
ENDSEC
  0
SECTION
  2
BLOCKS
  0
BLOCK
  8
0
  2
RECT
 70
64
 10
0.000000
 20
0.000000
 30
0.000000
  3
RECT
  0
SOLID
  8
0
 10
-0.500000
 20
-0.500000
 30
0.000000
 11
0.500000
 21
-0.500000
 31
0.000000
 12
-0.500000
 22
0.500000
 32
0.000000
 13
0.500000
 23
0.500000
 33
0.000000
  0
ENDBLK
  8
0
  0
BLOCK
  8
0
  2
PIE
 70
64
 10
0.000000
 20
0.000000
 30
0.000000
  3
PIE
  0
CIRCLE
  8
0
 10
0.000000
 20
0.000000
 30
0.000000
 40
0.500000
  0
ENDBLK
  8
0
  0
BLOCK
  8
0
  2
OCTAGONP
 70
64
 10
0.000000
 20
0.000000
 30
0.000000
  3
OCTAGONP
  0
POLYLINE
  8
0
 66
1
 10
0.000000
 20
0.000000
 30
0.000000
 40
0.000000
 41
0.000000
 70
1
  0
VERTEX
  8
0
 10
-0.500000
 20
-0.207107
 30
0.000000
  0
VERTEX
  8
0
 10
-0.500000
 20
0.207107
 30
0.000000
  0
VERTEX
  8
0
 10
-0.207107
 20
0.500000
 30
0.000000
  0
VERTEX
  8
0
 10
0.207107
 20
0.500000
 30
0.000000
  0
VERTEX
  8
0
 10
0.500000
 20
0.207107
 30
0.000000
  0
VERTEX
  8
0
 10
0.500000
 20
-0.207107
 30
0.000000
  0
VERTEX
  8
0
 10
0.207107
 20
-0.500000
 30
0.000000
  0
VERTEX
  8
0
 10
-0.207107
 20
-0.500000
 30
0.000000
  0
SEQEND
  8
0
  0
ENDBLK
  8
0
  0
BLOCK
  8
0
  2
SQUAREP
 70
64
 10
0.000000
 20
0.000000
 30
0.000000
  3
SQUAREP
  0
SOLID
  8
0
 10
-0.500000
 20
-0.500000
 30
0.000000
 11
0.500000
 21
-0.500000
 31
0.000000
 12
-0.500000
 22
0.500000
 32
0.000000
 13
0.500000
 23
0.500000
 33
0.000000
  0
ENDBLK
  8
0
  0
BLOCK
  8
0
  2
ROUNDP
 70
64
 10
0.000000
 20
0.000000
 30
0.000000
  3
ROUNDP
  0
CIRCLE
  8
0
 10
0.000000
 20
0.000000
 30
0.000000
 40
0.500000
  0
ENDBLK
  8
0
  0
BLOCK
  8
0
  2
ANNULUSP
 70
64
 10
0.000000
 20
0.000000
 30
0.000000
  3
ANNULUSP
  0
CIRCLE
  8
0
 10
0.000000
 20
0.000000
 30
0.000000
 40
0.500000
  0
ENDBLK
  8
0
  0
BLOCK
  8
0
  2
THERMALP
 70
64
 10
0.000000
 20
0.000000
 30
0.000000
  3
THERMALP
  0
LINE
  8
0
 10
-0.237868
 20
0.450000
 30
0.000000
 11
0.237868
 21
0.450000
 31
0.000000
  0
LINE
  8
0
 10
0.450000
 20
0.237868
 30
0.000000
 11
0.450000
 21
-0.237868
 31
0.000000
  0
LINE
  8
0
 10
0.237868
 20
-0.450000
 30
0.000000
 11
-0.237868
 21
-0.450000
 31
0.000000
  0
LINE
  8
0
 10
-0.450000
 20
-0.237868
 30
0.000000
 11
-0.450000
 21
0.237868
 31
0.000000
  0
ENDBLK
  8
0
  0
BLOCK
  8
0
  2
OCTAGONV
 70
64
 10
0.000000
 20
0.000000
 30
0.000000
  3
OCTAGONV
  0
POLYLINE
  8
0
 66
1
 10
0.000000
 20
0.000000
 30
0.000000
 40
0.000000
 41
0.000000
 70
1
  0
VERTEX
  8
0
 10
-0.500000
 20
-0.207107
 30
0.000000
  0
VERTEX
  8
0
 10
-0.500000
 20
0.207107
 30
0.000000
  0
VERTEX
  8
0
 10
-0.207107
 20
0.500000
 30
0.000000
  0
VERTEX
  8
0
 10
0.207107
 20
0.500000
 30
0.000000
  0
VERTEX
  8
0
 10
0.500000
 20
0.207107
 30
0.000000
  0
VERTEX
  8
0
 10
0.500000
 20
-0.207107
 30
0.000000
  0
VERTEX
  8
0
 10
0.207107
 20
-0.500000
 30
0.000000
  0
VERTEX
  8
0
 10
-0.207107
 20
-0.500000
 30
0.000000
  0
SEQEND
  8
0
  0
ENDBLK
  8
0
  0
BLOCK
  8
0
  2
SQUAREV
 70
64
 10
0.000000
 20
0.000000
 30
0.000000
  3
SQUAREV
  0
SOLID
  8
0
 10
-0.500000
 20
-0.500000
 30
0.000000
 11
0.500000
 21
-0.500000
 31
0.000000
 12
-0.500000
 22
0.500000
 32
0.000000
 13
0.500000
 23
0.500000
 33
0.000000
  0
ENDBLK
  8
0
  0
BLOCK
  8
0
  2
ROUNDV
 70
64
 10
0.000000
 20
0.000000
 30
0.000000
  3
ROUNDV
  0
CIRCLE
  8
0
 10
0.000000
 20
0.000000
 30
0.000000
 40
0.500000
  0
ENDBLK
  8
0
  0
BLOCK
  8
0
  2
ANNULUSV
 70
64
 10
0.000000
 20
0.000000
 30
0.000000
  3
ANNULUSV
  0
CIRCLE
  8
0
 10
0.000000
 20
0.000000
 30
0.000000
 40
0.500000
  0
ENDBLK
  8
0
  0
BLOCK
  8
0
  2
THERMALV
 70
64
 10
0.000000
 20
0.000000
 30
0.000000
  3
THERMALV
  0
LINE
  8
0
 10
-0.237868
 20
0.450000
 30
0.000000
 11
0.237868
 21
0.450000
 31
0.000000
  0
LINE
  8
0
 10
0.450000
 20
0.237868
 30
0.000000
 11
0.450000
 21
-0.237868
 31
0.000000
  0
LINE
  8
0
 10
0.237868
 20
-0.450000
 30
0.000000
 11
-0.237868
 21
-0.450000
 31
0.000000
  0
LINE
  8
0
 10
-0.450000
 20
-0.237868
 30
0.000000
 11
-0.450000
 21
0.237868
 31
0.000000
  0
ENDBLK
  8
0
  0
ENDSEC
  0
SECTION
  2
ENTITIES
  0
LINE
  8
20
 10
-0.165769
 20
1.782289
 30
0.000000
 11
-0.061813
 21
1.293215
 31
0.000000
  0
LINE
  8
20
 10
-0.061813
 20
1.293215
 30
0.000000
 11
-0.648702
 21
1.168468
 31
0.000000
  0
LINE
  8
20
 10
-0.648702
 20
1.168468
 30
0.000000
 11
-0.707500
 21
1.156100
 31
0.000000
  0
LINE
  8
20
 10
-0.165769
 20
1.782289
 30
0.000000
 11
0.029860
 21
1.823871
 31
0.000000
  0
LINE
  8
20
 10
0.029860
 20
1.823871
 30
0.000000
 11
0.900000
 21
0.800000
 31
0.000000
  0
LINE
  8
20
 10
-0.746517
 20
1.147676
 30
0.000000
 11
-0.707500
 21
1.156100
 31
0.000000
  0
LINE
  8
20
 10
-0.746517
 20
1.147676
 30
0.000000
 11
-0.942146
 21
1.106094
 31
0.000000
  0
LINE
  8
20
 10
-0.942146
 20
1.106094
 30
0.000000
 11
-1.046102
 21
1.595168
 31
0.000000
  0
LINE
  8
20
 10
-1.046102
 20
1.595168
 30
0.000000
 11
-1.241732
 21
1.553586
 31
0.000000
  0
LINE
  8
20
 10
-1.241732
 20
1.553586
 30
0.000000
 11
-1.200000
 21
-0.050000
 31
0.000000
  0
LINE
  8
20
 10
0.550000
 20
-1.600000
 30
0.000000
 11
0.550000
 21
-1.452000
 31
0.000000
  0
LINE
  8
20
 10
0.550000
 20
-1.600000
 30
0.000000
 11
-0.550000
 21
-1.600000
 31
0.000000
  0
LINE
  8
20
 10
-0.550000
 20
-1.452000
 30
0.000000
 11
-0.550000
 21
-1.600000
 31
0.000000
  0
LINE
  8
20
 10
-0.275000
 20
-1.148000
 30
0.000000
 11
-0.275000
 21
-1.452000
 31
0.000000
  0
LINE
  8
20
 10
-0.275000
 20
-1.452000
 30
0.000000
 11
-0.550000
 21
-1.452000
 31
0.000000
  0
LINE
  8
20
 10
-0.275000
 20
-1.148000
 30
0.000000
 11
-0.549000
 21
-1.148000
 31
0.000000
  0
LINE
  8
20
 10
0.549000
 20
-1.148000
 30
0.000000
 11
0.275000
 21
-1.148000
 31
0.000000
  0
LINE
  8
20
 10
0.275000
 20
-1.148000
 30
0.000000
 11
0.275000
 21
-1.452000
 31
0.000000
  0
LINE
  8
20
 10
0.275000
 20
-1.452000
 30
0.000000
 11
0.550000
 21
-1.452000
 31
0.000000
  0
LINE
  8
20
 10
-0.215000
 20
0.555000
 30
0.000000
 11
-0.362000
 21
0.555000
 31
0.000000
  0
LINE
  8
20
 10
-0.215000
 20
0.555000
 30
0.000000
 11
-0.215000
 21
-0.545000
 31
0.000000
  0
LINE
  8
20
 10
-0.362000
 20
-0.545000
 30
0.000000
 11
-0.215000
 21
-0.545000
 31
0.000000
  0
LINE
  8
20
 10
-0.668000
 20
-0.260000
 30
0.000000
 11
-0.362000
 21
-0.260000
 31
0.000000
  0
LINE
  8
20
 10
-0.362000
 20
-0.260000
 30
0.000000
 11
-0.362000
 21
-0.545000
 31
0.000000
  0
LINE
  8
20
 10
-0.668000
 20
-0.260000
 30
0.000000
 11
-0.668000
 21
-0.545000
 31
0.000000
  0
LINE
  8
20
 10
-0.668000
 20
0.555000
 30
0.000000
 11
-0.668000
 21
0.270000
 31
0.000000
  0
LINE
  8
20
 10
-0.668000
 20
0.270000
 30
0.000000
 11
-0.362000
 21
0.270000
 31
0.000000
  0
LINE
  8
20
 10
-0.362000
 20
0.270000
 30
0.000000
 11
-0.362000
 21
0.555000
 31
0.000000
  0
LINE
  8
20
 10
-0.668000
 20
0.555000
 30
0.000000
 11
-0.815000
 21
0.555000
 31
0.000000
  0
LINE
  8
20
 10
-0.668000
 20
-0.545000
 30
0.000000
 11
-0.815000
 21
-0.545000
 31
0.000000
  0
LINE
  8
20
 10
-1.200000
 20
-0.050000
 30
0.000000
 11
-1.197300
 21
-0.093500
 31
0.000000
  0
ARC
  8
20
 10
0.044578
 20
-0.056536
 30
0.000000
 40
1.242428
 50
181.704866
 51
241.461011
  0
LINE
  8
20
 10
0.900000
 20
0.800000
 30
0.000000
 11
0.915800
 21
0.781200
 31
0.000000
  0
ARC
  8
20
 10
-0.081368
 20
-0.028678
 30
0.000000
 40
1.284619
 50
299.386882
 51
39.082740
  0
LINE
  8
20
 10
0.005000
 20
-1.000000
 30
0.000000
 11
0.005000
 21
-1.600000
 31
0.000000
  0
LINE
  8
20
 10
-0.005000
 20
-1.600000
 30
0.000000
 11
-0.005000
 21
-1.000000
 31
0.000000
  0
LINE
  8
20
 10
-0.815000
 20
0.555000
 30
0.000000
 11
-0.815000
 21
-0.545000
 31
0.000000
  0
LINE
  8
20
 10
-0.190000
 20
0.005000
 30
0.000000
 11
-0.190000
 21
0.605000
 31
0.000000
  0
LINE
  8
20
 10
0.610000
 20
0.605000
 30
0.000000
 11
0.507000
 21
0.605000
 31
0.000000
  0
LINE
  8
20
 10
0.260000
 20
0.605000
 30
0.000000
 11
0.160000
 21
0.605000
 31
0.000000
  0
LINE
  8
20
 10
-0.087000
 20
0.605000
 30
0.000000
 11
-0.190000
 21
0.605000
 31
0.000000
  0
LINE
  8
20
 10
0.610000
 20
0.005000
 30
0.000000
 11
0.507000
 21
0.005000
 31
0.000000
  0
LINE
  8
20
 10
0.260000
 20
0.005000
 30
0.000000
 11
0.160000
 21
0.005000
 31
0.000000
  0
LINE
  8
20
 10
-0.087000
 20
0.005000
 30
0.000000
 11
-0.190000
 21
0.005000
 31
0.000000
  0
ARC
  8
20
 10
0.610000
 20
0.305000
 30
0.000000
 40
0.300000
 50
270.000000
 51
0.000000
  0
ARC
  8
20
 10
0.610000
 20
0.305000
 30
0.000000
 40
0.300000
 50
0.000000
 51
90.000000
  0
LINE
  8
20
 10
-0.087000
 20
0.605000
 30
0.000000
 11
-0.087000
 21
0.455000
 31
0.000000
  0
LINE
  8
20
 10
-0.087000
 20
0.455000
 30
0.000000
 11
0.160000
 21
0.455000
 31
0.000000
  0
LINE
  8
20
 10
0.160000
 20
0.455000
 30
0.000000
 11
0.160000
 21
0.605000
 31
0.000000
  0
LINE
  8
20
 10
0.507000
 20
0.605000
 30
0.000000
 11
0.507000
 21
0.455000
 31
0.000000
  0
LINE
  8
20
 10
0.507000
 20
0.455000
 30
0.000000
 11
0.260000
 21
0.455000
 31
0.000000
  0
LINE
  8
20
 10
0.260000
 20
0.455000
 30
0.000000
 11
0.260000
 21
0.605000
 31
0.000000
  0
LINE
  8
20
 10
0.507000
 20
0.005000
 30
0.000000
 11
0.507000
 21
0.155000
 31
0.000000
  0
LINE
  8
20
 10
0.507000
 20
0.155000
 30
0.000000
 11
0.260000
 21
0.155000
 31
0.000000
  0
LINE
  8
20
 10
0.260000
 20
0.155000
 30
0.000000
 11
0.260000
 21
0.005000
 31
0.000000
  0
LINE
  8
20
 10
0.160000
 20
0.005000
 30
0.000000
 11
0.160000
 21
0.155000
 31
0.000000
  0
LINE
  8
20
 10
0.160000
 20
0.155000
 30
0.000000
 11
-0.087000
 21
0.155000
 31
0.000000
  0
LINE
  8
20
 10
-0.087000
 20
0.155000
 30
0.000000
 11
-0.087000
 21
0.005000
 31
0.000000
  0
LINE
  8
20
 10
-0.190000
 20
-0.620000
 30
0.000000
 11
-0.190000
 21
-0.020000
 31
0.000000
  0
LINE
  8
20
 10
0.610000
 20
-0.020000
 30
0.000000
 11
0.507000
 21
-0.020000
 31
0.000000
  0
LINE
  8
20
 10
0.260000
 20
-0.020000
 30
0.000000
 11
0.160000
 21
-0.020000
 31
0.000000
  0
LINE
  8
20
 10
-0.087000
 20
-0.020000
 30
0.000000
 11
-0.190000
 21
-0.020000
 31
0.000000
  0
LINE
  8
20
 10
0.610000
 20
-0.620000
 30
0.000000
 11
0.507000
 21
-0.620000
 31
0.000000
  0
LINE
  8
20
 10
0.260000
 20
-0.620000
 30
0.000000
 11
0.160000
 21
-0.620000
 31
0.000000
  0
LINE
  8
20
 10
-0.087000
 20
-0.620000
 30
0.000000
 11
-0.190000
 21
-0.620000
 31
0.000000
  0
ARC
  8
20
 10
0.610000
 20
-0.320000
 30
0.000000
 40
0.300000
 50
270.000000
 51
0.000000
  0
ARC
  8
20
 10
0.610000
 20
-0.320000
 30
0.000000
 40
0.300000
 50
0.000000
 51
90.000000
  0
LINE
  8
20
 10
-0.087000
 20
-0.020000
 30
0.000000
 11
-0.087000
 21
-0.170000
 31
0.000000
  0
LINE
  8
20
 10
-0.087000
 20
-0.170000
 30
0.000000
 11
0.160000
 21
-0.170000
 31
0.000000
  0
LINE
  8
20
 10
0.160000
 20
-0.170000
 30
0.000000
 11
0.160000
 21
-0.020000
 31
0.000000
  0
LINE
  8
20
 10
0.507000
 20
-0.020000
 30
0.000000
 11
0.507000
 21
-0.170000
 31
0.000000
  0
LINE
  8
20
 10
0.507000
 20
-0.170000
 30
0.000000
 11
0.260000
 21
-0.170000
 31
0.000000
  0
LINE
  8
20
 10
0.260000
 20
-0.170000
 30
0.000000
 11
0.260000
 21
-0.020000
 31
0.000000
  0
LINE
  8
20
 10
0.507000
 20
-0.620000
 30
0.000000
 11
0.507000
 21
-0.470000
 31
0.000000
  0
LINE
  8
20
 10
0.507000
 20
-0.470000
 30
0.000000
 11
0.260000
 21
-0.470000
 31
0.000000
  0
LINE
  8
20
 10
0.260000
 20
-0.470000
 30
0.000000
 11
0.260000
 21
-0.620000
 31
0.000000
  0
LINE
  8
20
 10
0.160000
 20
-0.620000
 30
0.000000
 11
0.160000
 21
-0.470000
 31
0.000000
  0
LINE
  8
20
 10
0.160000
 20
-0.470000
 30
0.000000
 11
-0.087000
 21
-0.470000
 31
0.000000
  0
LINE
  8
20
 10
-0.087000
 20
-0.470000
 30
0.000000
 11
-0.087000
 21
-0.620000
 31
0.000000
  0
CIRCLE
  8
20
 10
0.000000
 20
0.000000
 30
0.000000
 40
1.021000
  0
CIRCLE
  8
20
 10
0.660000
 20
0.305000
 30
0.000000
 40
0.050000
  0
CIRCLE
  8
20
 10
0.210000
 20
0.305000
 30
0.000000
 40
0.055000
  0
CIRCLE
  8
20
 10
0.660000
 20
-0.320000
 30
0.000000
 40
0.050000
  0
CIRCLE
  8
20
 10
0.210000
 20
-0.320000
 30
0.000000
 40
0.055000
  0
CIRCLE
  8
20
 10
-0.021976
 20
1.555543
 30
0.000000
 40
0.030000
  0
CIRCLE
  8
20
 10
-1.097939
 20
1.326840
 30
0.000000
 40
0.030000
  0
ENDSEC
  0
EOF
