  0
SECTION
  2
HEADER
  9
$ACADVER
  1
AC1009
  9
$FILLMODE
 70
0
  9
$EXTMIN
 10
-1.623418
 20
-2.440000
 30
0.000000
  9
$EXTMAX
 10
3.902551
 20
2.103900
 30
0.000000
  0
ENDSEC
  0
SECTION
  2
TABLES
  0
TABLE
  2
LTYPE
 70
1
  0
LTYPE
  2
CONTINUOUS
 70
64
  3
Solid line
 72
65
 73
0
 40
0
  0
ENDTAB
  0
TABLE
  2
LAYER
 70
255
  0
LAYER
  2
203
 70
64
 62
3
  6
CONTINUOUS
  0
ENDTAB
  0
ENDSEC
  0
SECTION
  2
BLOCKS
  0
BLOCK
  8
0
  2
RECT
 70
64
 10
0.000000
 20
0.000000
 30
0.000000
  3
RECT
  0
SOLID
  8
0
 10
-0.500000
 20
-0.500000
 30
0.000000
 11
0.500000
 21
-0.500000
 31
0.000000
 12
-0.500000
 22
0.500000
 32
0.000000
 13
0.500000
 23
0.500000
 33
0.000000
  0
ENDBLK
  8
0
  0
BLOCK
  8
0
  2
PIE
 70
64
 10
0.000000
 20
0.000000
 30
0.000000
  3
PIE
  0
CIRCLE
  8
0
 10
0.000000
 20
0.000000
 30
0.000000
 40
0.500000
  0
ENDBLK
  8
0
  0
BLOCK
  8
0
  2
OCTAGONP
 70
64
 10
0.000000
 20
0.000000
 30
0.000000
  3
OCTAGONP
  0
POLYLINE
  8
0
 66
1
 10
0.000000
 20
0.000000
 30
0.000000
 40
0.000000
 41
0.000000
 70
1
  0
VERTEX
  8
0
 10
-0.500000
 20
-0.207107
 30
0.000000
  0
VERTEX
  8
0
 10
-0.500000
 20
0.207107
 30
0.000000
  0
VERTEX
  8
0
 10
-0.207107
 20
0.500000
 30
0.000000
  0
VERTEX
  8
0
 10
0.207107
 20
0.500000
 30
0.000000
  0
VERTEX
  8
0
 10
0.500000
 20
0.207107
 30
0.000000
  0
VERTEX
  8
0
 10
0.500000
 20
-0.207107
 30
0.000000
  0
VERTEX
  8
0
 10
0.207107
 20
-0.500000
 30
0.000000
  0
VERTEX
  8
0
 10
-0.207107
 20
-0.500000
 30
0.000000
  0
SEQEND
  8
0
  0
ENDBLK
  8
0
  0
BLOCK
  8
0
  2
SQUAREP
 70
64
 10
0.000000
 20
0.000000
 30
0.000000
  3
SQUAREP
  0
SOLID
  8
0
 10
-0.500000
 20
-0.500000
 30
0.000000
 11
0.500000
 21
-0.500000
 31
0.000000
 12
-0.500000
 22
0.500000
 32
0.000000
 13
0.500000
 23
0.500000
 33
0.000000
  0
ENDBLK
  8
0
  0
BLOCK
  8
0
  2
ROUNDP
 70
64
 10
0.000000
 20
0.000000
 30
0.000000
  3
ROUNDP
  0
CIRCLE
  8
0
 10
0.000000
 20
0.000000
 30
0.000000
 40
0.500000
  0
ENDBLK
  8
0
  0
BLOCK
  8
0
  2
ANNULUSP
 70
64
 10
0.000000
 20
0.000000
 30
0.000000
  3
ANNULUSP
  0
CIRCLE
  8
0
 10
0.000000
 20
0.000000
 30
0.000000
 40
0.500000
  0
ENDBLK
  8
0
  0
BLOCK
  8
0
  2
THERMALP
 70
64
 10
0.000000
 20
0.000000
 30
0.000000
  3
THERMALP
  0
LINE
  8
0
 10
-0.237868
 20
0.450000
 30
0.000000
 11
0.237868
 21
0.450000
 31
0.000000
  0
LINE
  8
0
 10
0.450000
 20
0.237868
 30
0.000000
 11
0.450000
 21
-0.237868
 31
0.000000
  0
LINE
  8
0
 10
0.237868
 20
-0.450000
 30
0.000000
 11
-0.237868
 21
-0.450000
 31
0.000000
  0
LINE
  8
0
 10
-0.450000
 20
-0.237868
 30
0.000000
 11
-0.450000
 21
0.237868
 31
0.000000
  0
ENDBLK
  8
0
  0
BLOCK
  8
0
  2
OCTAGONV
 70
64
 10
0.000000
 20
0.000000
 30
0.000000
  3
OCTAGONV
  0
POLYLINE
  8
0
 66
1
 10
0.000000
 20
0.000000
 30
0.000000
 40
0.000000
 41
0.000000
 70
1
  0
VERTEX
  8
0
 10
-0.500000
 20
-0.207107
 30
0.000000
  0
VERTEX
  8
0
 10
-0.500000
 20
0.207107
 30
0.000000
  0
VERTEX
  8
0
 10
-0.207107
 20
0.500000
 30
0.000000
  0
VERTEX
  8
0
 10
0.207107
 20
0.500000
 30
0.000000
  0
VERTEX
  8
0
 10
0.500000
 20
0.207107
 30
0.000000
  0
VERTEX
  8
0
 10
0.500000
 20
-0.207107
 30
0.000000
  0
VERTEX
  8
0
 10
0.207107
 20
-0.500000
 30
0.000000
  0
VERTEX
  8
0
 10
-0.207107
 20
-0.500000
 30
0.000000
  0
SEQEND
  8
0
  0
ENDBLK
  8
0
  0
BLOCK
  8
0
  2
SQUAREV
 70
64
 10
0.000000
 20
0.000000
 30
0.000000
  3
SQUAREV
  0
SOLID
  8
0
 10
-0.500000
 20
-0.500000
 30
0.000000
 11
0.500000
 21
-0.500000
 31
0.000000
 12
-0.500000
 22
0.500000
 32
0.000000
 13
0.500000
 23
0.500000
 33
0.000000
  0
ENDBLK
  8
0
  0
BLOCK
  8
0
  2
ROUNDV
 70
64
 10
0.000000
 20
0.000000
 30
0.000000
  3
ROUNDV
  0
CIRCLE
  8
0
 10
0.000000
 20
0.000000
 30
0.000000
 40
0.500000
  0
ENDBLK
  8
0
  0
BLOCK
  8
0
  2
ANNULUSV
 70
64
 10
0.000000
 20
0.000000
 30
0.000000
  3
ANNULUSV
  0
CIRCLE
  8
0
 10
0.000000
 20
0.000000
 30
0.000000
 40
0.500000
  0
ENDBLK
  8
0
  0
BLOCK
  8
0
  2
THERMALV
 70
64
 10
0.000000
 20
0.000000
 30
0.000000
  3
THERMALV
  0
LINE
  8
0
 10
-0.237868
 20
0.450000
 30
0.000000
 11
0.237868
 21
0.450000
 31
0.000000
  0
LINE
  8
0
 10
0.450000
 20
0.237868
 30
0.000000
 11
0.450000
 21
-0.237868
 31
0.000000
  0
LINE
  8
0
 10
0.237868
 20
-0.450000
 30
0.000000
 11
-0.237868
 21
-0.450000
 31
0.000000
  0
LINE
  8
0
 10
-0.450000
 20
-0.237868
 30
0.000000
 11
-0.450000
 21
0.237868
 31
0.000000
  0
ENDBLK
  8
0
  0
ENDSEC
  0
SECTION
  2
ENTITIES
  0
LINE
  8
203
 10
0.345000
 20
-1.270000
 30
0.000000
 11
0.375000
 21
-1.270000
 31
0.000000
  0
ARC
  8
203
 10
0.375000
 20
-1.295000
 30
0.000000
 40
0.025000
 50
0.000000
 51
90.000000
  0
LINE
  8
203
 10
0.400000
 20
-1.295000
 30
0.000000
 11
0.400000
 21
-1.305000
 31
0.000000
  0
ARC
  8
203
 10
0.375000
 20
-1.305000
 30
0.000000
 40
0.025000
 50
270.000000
 51
0.000000
  0
LINE
  8
203
 10
0.375000
 20
-1.330000
 30
0.000000
 11
-0.375000
 21
-1.330000
 31
0.000000
  0
ARC
  8
203
 10
-0.375000
 20
-1.305000
 30
0.000000
 40
0.025000
 50
180.000000
 51
270.000000
  0
LINE
  8
203
 10
-0.400000
 20
-1.305000
 30
0.000000
 11
-0.400000
 21
-1.295000
 31
0.000000
  0
ARC
  8
203
 10
-0.375000
 20
-1.295000
 30
0.000000
 40
0.025000
 50
90.000000
 51
180.000000
  0
LINE
  8
203
 10
-0.375000
 20
-1.270000
 30
0.000000
 11
-0.345000
 21
-1.270000
 31
0.000000
  0
LINE
  8
203
 10
-0.345000
 20
-1.270000
 30
0.000000
 11
-0.344600
 21
-0.996400
 31
0.000000
  0
LINE
  8
203
 10
0.345000
 20
-1.270000
 30
0.000000
 11
0.345200
 21
-0.998600
 31
0.000000
  0
ARC
  8
203
 10
0.000000
 20
1.400000
 30
0.000000
 40
0.100000
 50
0.000000
 51
90.000000
  0
LINE
  8
203
 10
0.100000
 20
1.400000
 30
0.000000
 11
0.100000
 21
1.300000
 31
0.000000
  0
ARC
  8
203
 10
0.000000
 20
1.400000
 30
0.000000
 40
0.100000
 50
90.000000
 51
180.000000
  0
LINE
  8
203
 10
-0.100000
 20
1.400000
 30
0.000000
 11
-0.100000
 21
1.300000
 31
0.000000
  0
LINE
  8
203
 10
0.100000
 20
1.300000
 30
0.000000
 11
0.668300
 21
0.824200
 31
0.000000
  0
LINE
  8
203
 10
-0.100000
 20
1.300000
 30
0.000000
 11
-0.697200
 21
0.793800
 31
0.000000
  0
LINE
  8
203
 10
-0.697200
 20
0.793800
 30
0.000000
 11
-0.714400
 21
0.778000
 31
0.000000
  0
ARC
  8
203
 10
-0.002478
 20
-0.000043
 30
0.000000
 40
1.054601
 50
132.459015
 51
249.709089
  0
LINE
  8
203
 10
-0.368200
 20
-0.989200
 30
0.000000
 11
-0.344600
 21
-0.996400
 31
0.000000
  0
LINE
  8
203
 10
0.668300
 20
0.824200
 30
0.000000
 11
0.693300
 21
0.801200
 31
0.000000
  0
ARC
  8
203
 10
0.001050
 20
0.000910
 30
0.000000
 40
1.058147
 50
292.213980
 51
49.140228
  0
LINE
  8
203
 10
0.401100
 20
-0.978700
 30
0.000000
 11
0.345200
 21
-0.998600
 31
0.000000
  0
ENDSEC
  0
EOF
