G04 EAGLE Gerber RS-274X export*
G75*
%MOMM*%
%FSLAX34Y34*%
%LPD*%
%INSoldermask Top*%
%IPPOS*%
%AMOC8*
5,1,8,0,0,1.08239X$1,22.5*%
G01*
%ADD10C,1.600200*%
%ADD11R,1.303200X1.203200*%
%ADD12C,0.653200*%
%ADD13R,3.495038X1.534156*%
%ADD14R,1.473200X0.762000*%
%ADD15R,0.762000X1.473200*%
%ADD16C,2.082800*%
%ADD17R,1.803200X1.603200*%
%ADD18R,1.727200X0.965200*%
%ADD19C,1.981200*%
%ADD20R,2.082800X2.082800*%
%ADD21R,1.203200X1.303200*%
%ADD22R,1.003200X0.753200*%
%ADD23C,1.203200*%
%ADD24C,1.270000*%
%ADD25C,1.703200*%


D10*
X228600Y685800D03*
X228600Y660400D03*
X487680Y685800D03*
X487680Y660400D03*
X746760Y685800D03*
X746760Y660400D03*
X1005840Y685800D03*
X1005840Y660400D03*
D11*
X98619Y637286D03*
X81619Y637286D03*
X35950Y317500D03*
X52950Y317500D03*
G36*
X183457Y404915D02*
X192671Y395701D01*
X184163Y387193D01*
X174949Y396407D01*
X183457Y404915D01*
G37*
G36*
X171437Y416935D02*
X180651Y407721D01*
X172143Y399213D01*
X162929Y408427D01*
X171437Y416935D01*
G37*
X27194Y637515D03*
X10194Y637515D03*
D12*
X153859Y449850D02*
X143571Y439562D01*
X152056Y431077D02*
X162344Y441365D01*
X170830Y432880D02*
X160542Y422592D01*
D13*
G36*
X164096Y418441D02*
X139384Y443153D01*
X150232Y454001D01*
X174944Y429289D01*
X164096Y418441D01*
G37*
D11*
X52950Y341630D03*
X35950Y341630D03*
D14*
G36*
X167236Y378354D02*
X177652Y388770D01*
X183040Y383382D01*
X172624Y372966D01*
X167236Y378354D01*
G37*
G36*
X161579Y384011D02*
X171995Y394427D01*
X177383Y389039D01*
X166967Y378623D01*
X161579Y384011D01*
G37*
G36*
X155923Y389668D02*
X166339Y400084D01*
X171727Y394696D01*
X161311Y384280D01*
X155923Y389668D01*
G37*
G36*
X150266Y395325D02*
X160682Y405741D01*
X166070Y400353D01*
X155654Y389937D01*
X150266Y395325D01*
G37*
G36*
X144609Y400982D02*
X155025Y411398D01*
X160413Y406010D01*
X149997Y395594D01*
X144609Y400982D01*
G37*
G36*
X138952Y406638D02*
X149368Y417054D01*
X154756Y411666D01*
X144340Y401250D01*
X138952Y406638D01*
G37*
G36*
X133295Y412295D02*
X143711Y422711D01*
X149099Y417323D01*
X138683Y406907D01*
X133295Y412295D01*
G37*
G36*
X127638Y417952D02*
X138054Y428368D01*
X143442Y422980D01*
X133026Y412564D01*
X127638Y417952D01*
G37*
D15*
G36*
X106530Y422980D02*
X111918Y428368D01*
X122334Y417952D01*
X116946Y412564D01*
X106530Y422980D01*
G37*
G36*
X100873Y417323D02*
X106261Y422711D01*
X116677Y412295D01*
X111289Y406907D01*
X100873Y417323D01*
G37*
G36*
X95216Y411666D02*
X100604Y417054D01*
X111020Y406638D01*
X105632Y401250D01*
X95216Y411666D01*
G37*
G36*
X89559Y406010D02*
X94947Y411398D01*
X105363Y400982D01*
X99975Y395594D01*
X89559Y406010D01*
G37*
G36*
X83902Y400353D02*
X89290Y405741D01*
X99706Y395325D01*
X94318Y389937D01*
X83902Y400353D01*
G37*
G36*
X78246Y394696D02*
X83634Y400084D01*
X94050Y389668D01*
X88662Y384280D01*
X78246Y394696D01*
G37*
G36*
X72589Y389039D02*
X77977Y394427D01*
X88393Y384011D01*
X83005Y378623D01*
X72589Y389039D01*
G37*
G36*
X66932Y383382D02*
X72320Y388770D01*
X82736Y378354D01*
X77348Y372966D01*
X66932Y383382D01*
G37*
D14*
G36*
X66932Y357246D02*
X77348Y367662D01*
X82736Y362274D01*
X72320Y351858D01*
X66932Y357246D01*
G37*
G36*
X72589Y351589D02*
X83005Y362005D01*
X88393Y356617D01*
X77977Y346201D01*
X72589Y351589D01*
G37*
G36*
X78246Y345932D02*
X88662Y356348D01*
X94050Y350960D01*
X83634Y340544D01*
X78246Y345932D01*
G37*
G36*
X83902Y340275D02*
X94318Y350691D01*
X99706Y345303D01*
X89290Y334887D01*
X83902Y340275D01*
G37*
G36*
X89559Y334618D02*
X99975Y345034D01*
X105363Y339646D01*
X94947Y329230D01*
X89559Y334618D01*
G37*
G36*
X95216Y328961D02*
X105632Y339377D01*
X111020Y333989D01*
X100604Y323573D01*
X95216Y328961D01*
G37*
G36*
X100873Y323305D02*
X111289Y333721D01*
X116677Y328333D01*
X106261Y317917D01*
X100873Y323305D01*
G37*
G36*
X106530Y317648D02*
X116946Y328064D01*
X122334Y322676D01*
X111918Y312260D01*
X106530Y317648D01*
G37*
D15*
G36*
X127638Y322676D02*
X133026Y328064D01*
X143442Y317648D01*
X138054Y312260D01*
X127638Y322676D01*
G37*
G36*
X133295Y328333D02*
X138683Y333721D01*
X149099Y323305D01*
X143711Y317917D01*
X133295Y328333D01*
G37*
G36*
X138952Y333989D02*
X144340Y339377D01*
X154756Y328961D01*
X149368Y323573D01*
X138952Y333989D01*
G37*
G36*
X144609Y339646D02*
X149997Y345034D01*
X160413Y334618D01*
X155025Y329230D01*
X144609Y339646D01*
G37*
G36*
X150266Y345303D02*
X155654Y350691D01*
X166070Y340275D01*
X160682Y334887D01*
X150266Y345303D01*
G37*
G36*
X155923Y350960D02*
X161311Y356348D01*
X171727Y345932D01*
X166339Y340544D01*
X155923Y350960D01*
G37*
G36*
X161579Y356617D02*
X166967Y362005D01*
X177383Y351589D01*
X171995Y346201D01*
X161579Y356617D01*
G37*
G36*
X167236Y362274D02*
X172624Y367662D01*
X183040Y357246D01*
X177652Y351858D01*
X167236Y362274D01*
G37*
D16*
X177800Y660400D03*
X177800Y685800D03*
X179070Y622300D03*
X176530Y596900D03*
X179070Y571500D03*
D17*
X191516Y447832D03*
X191516Y419832D03*
D18*
X78740Y222250D03*
X22860Y222250D03*
X78740Y260350D03*
X22860Y260350D03*
X78740Y120650D03*
X22860Y120650D03*
X78740Y158750D03*
X22860Y158750D03*
X78740Y19050D03*
X22860Y19050D03*
X78740Y57150D03*
X22860Y57150D03*
X175260Y260350D03*
X231140Y260350D03*
X175260Y222250D03*
X231140Y222250D03*
X175260Y158750D03*
X231140Y158750D03*
X175260Y120650D03*
X231140Y120650D03*
X175260Y57150D03*
X231140Y57150D03*
X175260Y19050D03*
X231140Y19050D03*
D19*
X12700Y591300D03*
X12700Y526300D03*
D16*
X101600Y558800D03*
X101600Y533400D03*
X101600Y508000D03*
X12700Y342900D03*
X12700Y368300D03*
X12700Y393700D03*
X12700Y419100D03*
X12700Y444500D03*
X12700Y469900D03*
X12700Y685800D03*
X38100Y685800D03*
D20*
X232410Y355600D03*
D16*
X232410Y381000D03*
X232410Y406400D03*
D11*
X218830Y317500D03*
X235830Y317500D03*
D21*
X198120Y355990D03*
X198120Y372990D03*
D22*
X115000Y657200D03*
X115000Y647700D03*
X115000Y638200D03*
X139000Y638200D03*
X139000Y657200D03*
X139000Y647700D03*
D11*
X156328Y672846D03*
X139328Y672846D03*
X116653Y618998D03*
X99653Y618998D03*
D16*
X63500Y584200D03*
X38100Y584200D03*
X63500Y558800D03*
X38100Y558800D03*
X63500Y533400D03*
X38100Y533400D03*
X179070Y533400D03*
X176530Y508000D03*
X179070Y482600D03*
D11*
X61586Y637540D03*
X44586Y637540D03*
D16*
X76200Y685800D03*
X101600Y685800D03*
D11*
X357699Y637286D03*
X340699Y637286D03*
X295030Y317500D03*
X312030Y317500D03*
G36*
X442537Y404915D02*
X451751Y395701D01*
X443243Y387193D01*
X434029Y396407D01*
X442537Y404915D01*
G37*
G36*
X430517Y416935D02*
X439731Y407721D01*
X431223Y399213D01*
X422009Y408427D01*
X430517Y416935D01*
G37*
X286274Y637515D03*
X269274Y637515D03*
D12*
X412939Y449850D02*
X402651Y439562D01*
X411136Y431077D02*
X421424Y441365D01*
X429910Y432880D02*
X419622Y422592D01*
D13*
G36*
X423176Y418441D02*
X398464Y443153D01*
X409312Y454001D01*
X434024Y429289D01*
X423176Y418441D01*
G37*
D11*
X312030Y341630D03*
X295030Y341630D03*
D14*
G36*
X426316Y378354D02*
X436732Y388770D01*
X442120Y383382D01*
X431704Y372966D01*
X426316Y378354D01*
G37*
G36*
X420659Y384011D02*
X431075Y394427D01*
X436463Y389039D01*
X426047Y378623D01*
X420659Y384011D01*
G37*
G36*
X415003Y389668D02*
X425419Y400084D01*
X430807Y394696D01*
X420391Y384280D01*
X415003Y389668D01*
G37*
G36*
X409346Y395325D02*
X419762Y405741D01*
X425150Y400353D01*
X414734Y389937D01*
X409346Y395325D01*
G37*
G36*
X403689Y400982D02*
X414105Y411398D01*
X419493Y406010D01*
X409077Y395594D01*
X403689Y400982D01*
G37*
G36*
X398032Y406638D02*
X408448Y417054D01*
X413836Y411666D01*
X403420Y401250D01*
X398032Y406638D01*
G37*
G36*
X392375Y412295D02*
X402791Y422711D01*
X408179Y417323D01*
X397763Y406907D01*
X392375Y412295D01*
G37*
G36*
X386718Y417952D02*
X397134Y428368D01*
X402522Y422980D01*
X392106Y412564D01*
X386718Y417952D01*
G37*
D15*
G36*
X365610Y422980D02*
X370998Y428368D01*
X381414Y417952D01*
X376026Y412564D01*
X365610Y422980D01*
G37*
G36*
X359953Y417323D02*
X365341Y422711D01*
X375757Y412295D01*
X370369Y406907D01*
X359953Y417323D01*
G37*
G36*
X354296Y411666D02*
X359684Y417054D01*
X370100Y406638D01*
X364712Y401250D01*
X354296Y411666D01*
G37*
G36*
X348639Y406010D02*
X354027Y411398D01*
X364443Y400982D01*
X359055Y395594D01*
X348639Y406010D01*
G37*
G36*
X342982Y400353D02*
X348370Y405741D01*
X358786Y395325D01*
X353398Y389937D01*
X342982Y400353D01*
G37*
G36*
X337326Y394696D02*
X342714Y400084D01*
X353130Y389668D01*
X347742Y384280D01*
X337326Y394696D01*
G37*
G36*
X331669Y389039D02*
X337057Y394427D01*
X347473Y384011D01*
X342085Y378623D01*
X331669Y389039D01*
G37*
G36*
X326012Y383382D02*
X331400Y388770D01*
X341816Y378354D01*
X336428Y372966D01*
X326012Y383382D01*
G37*
D14*
G36*
X326012Y357246D02*
X336428Y367662D01*
X341816Y362274D01*
X331400Y351858D01*
X326012Y357246D01*
G37*
G36*
X331669Y351589D02*
X342085Y362005D01*
X347473Y356617D01*
X337057Y346201D01*
X331669Y351589D01*
G37*
G36*
X337326Y345932D02*
X347742Y356348D01*
X353130Y350960D01*
X342714Y340544D01*
X337326Y345932D01*
G37*
G36*
X342982Y340275D02*
X353398Y350691D01*
X358786Y345303D01*
X348370Y334887D01*
X342982Y340275D01*
G37*
G36*
X348639Y334618D02*
X359055Y345034D01*
X364443Y339646D01*
X354027Y329230D01*
X348639Y334618D01*
G37*
G36*
X354296Y328961D02*
X364712Y339377D01*
X370100Y333989D01*
X359684Y323573D01*
X354296Y328961D01*
G37*
G36*
X359953Y323305D02*
X370369Y333721D01*
X375757Y328333D01*
X365341Y317917D01*
X359953Y323305D01*
G37*
G36*
X365610Y317648D02*
X376026Y328064D01*
X381414Y322676D01*
X370998Y312260D01*
X365610Y317648D01*
G37*
D15*
G36*
X386718Y322676D02*
X392106Y328064D01*
X402522Y317648D01*
X397134Y312260D01*
X386718Y322676D01*
G37*
G36*
X392375Y328333D02*
X397763Y333721D01*
X408179Y323305D01*
X402791Y317917D01*
X392375Y328333D01*
G37*
G36*
X398032Y333989D02*
X403420Y339377D01*
X413836Y328961D01*
X408448Y323573D01*
X398032Y333989D01*
G37*
G36*
X403689Y339646D02*
X409077Y345034D01*
X419493Y334618D01*
X414105Y329230D01*
X403689Y339646D01*
G37*
G36*
X409346Y345303D02*
X414734Y350691D01*
X425150Y340275D01*
X419762Y334887D01*
X409346Y345303D01*
G37*
G36*
X415003Y350960D02*
X420391Y356348D01*
X430807Y345932D01*
X425419Y340544D01*
X415003Y350960D01*
G37*
G36*
X420659Y356617D02*
X426047Y362005D01*
X436463Y351589D01*
X431075Y346201D01*
X420659Y356617D01*
G37*
G36*
X426316Y362274D02*
X431704Y367662D01*
X442120Y357246D01*
X436732Y351858D01*
X426316Y362274D01*
G37*
D16*
X436880Y660400D03*
X436880Y685800D03*
X438150Y622300D03*
X435610Y596900D03*
X438150Y571500D03*
D17*
X450596Y447832D03*
X450596Y419832D03*
D18*
X337820Y222250D03*
X281940Y222250D03*
X337820Y260350D03*
X281940Y260350D03*
X337820Y120650D03*
X281940Y120650D03*
X337820Y158750D03*
X281940Y158750D03*
X337820Y19050D03*
X281940Y19050D03*
X337820Y57150D03*
X281940Y57150D03*
X434340Y260350D03*
X490220Y260350D03*
X434340Y222250D03*
X490220Y222250D03*
X434340Y158750D03*
X490220Y158750D03*
X434340Y120650D03*
X490220Y120650D03*
X434340Y57150D03*
X490220Y57150D03*
X434340Y19050D03*
X490220Y19050D03*
D19*
X271780Y591300D03*
X271780Y526300D03*
D16*
X360680Y558800D03*
X360680Y533400D03*
X360680Y508000D03*
X271780Y342900D03*
X271780Y368300D03*
X271780Y393700D03*
X271780Y419100D03*
X271780Y444500D03*
X271780Y469900D03*
X271780Y685800D03*
X297180Y685800D03*
D20*
X491490Y355600D03*
D16*
X491490Y381000D03*
X491490Y406400D03*
D11*
X477910Y317500D03*
X494910Y317500D03*
D21*
X457200Y355990D03*
X457200Y372990D03*
D22*
X374080Y657200D03*
X374080Y647700D03*
X374080Y638200D03*
X398080Y638200D03*
X398080Y657200D03*
X398080Y647700D03*
D11*
X415408Y672846D03*
X398408Y672846D03*
X375733Y618998D03*
X358733Y618998D03*
D16*
X322580Y584200D03*
X297180Y584200D03*
X322580Y558800D03*
X297180Y558800D03*
X322580Y533400D03*
X297180Y533400D03*
X438150Y533400D03*
X435610Y508000D03*
X438150Y482600D03*
D11*
X320666Y637540D03*
X303666Y637540D03*
D16*
X335280Y685800D03*
X360680Y685800D03*
D11*
X616779Y637286D03*
X599779Y637286D03*
X554110Y317500D03*
X571110Y317500D03*
G36*
X701617Y404915D02*
X710831Y395701D01*
X702323Y387193D01*
X693109Y396407D01*
X701617Y404915D01*
G37*
G36*
X689597Y416935D02*
X698811Y407721D01*
X690303Y399213D01*
X681089Y408427D01*
X689597Y416935D01*
G37*
X545354Y637515D03*
X528354Y637515D03*
D12*
X672019Y449850D02*
X661731Y439562D01*
X670216Y431077D02*
X680504Y441365D01*
X688990Y432880D02*
X678702Y422592D01*
D13*
G36*
X682256Y418441D02*
X657544Y443153D01*
X668392Y454001D01*
X693104Y429289D01*
X682256Y418441D01*
G37*
D11*
X571110Y341630D03*
X554110Y341630D03*
D14*
G36*
X685396Y378354D02*
X695812Y388770D01*
X701200Y383382D01*
X690784Y372966D01*
X685396Y378354D01*
G37*
G36*
X679739Y384011D02*
X690155Y394427D01*
X695543Y389039D01*
X685127Y378623D01*
X679739Y384011D01*
G37*
G36*
X674083Y389668D02*
X684499Y400084D01*
X689887Y394696D01*
X679471Y384280D01*
X674083Y389668D01*
G37*
G36*
X668426Y395325D02*
X678842Y405741D01*
X684230Y400353D01*
X673814Y389937D01*
X668426Y395325D01*
G37*
G36*
X662769Y400982D02*
X673185Y411398D01*
X678573Y406010D01*
X668157Y395594D01*
X662769Y400982D01*
G37*
G36*
X657112Y406638D02*
X667528Y417054D01*
X672916Y411666D01*
X662500Y401250D01*
X657112Y406638D01*
G37*
G36*
X651455Y412295D02*
X661871Y422711D01*
X667259Y417323D01*
X656843Y406907D01*
X651455Y412295D01*
G37*
G36*
X645798Y417952D02*
X656214Y428368D01*
X661602Y422980D01*
X651186Y412564D01*
X645798Y417952D01*
G37*
D15*
G36*
X624690Y422980D02*
X630078Y428368D01*
X640494Y417952D01*
X635106Y412564D01*
X624690Y422980D01*
G37*
G36*
X619033Y417323D02*
X624421Y422711D01*
X634837Y412295D01*
X629449Y406907D01*
X619033Y417323D01*
G37*
G36*
X613376Y411666D02*
X618764Y417054D01*
X629180Y406638D01*
X623792Y401250D01*
X613376Y411666D01*
G37*
G36*
X607719Y406010D02*
X613107Y411398D01*
X623523Y400982D01*
X618135Y395594D01*
X607719Y406010D01*
G37*
G36*
X602062Y400353D02*
X607450Y405741D01*
X617866Y395325D01*
X612478Y389937D01*
X602062Y400353D01*
G37*
G36*
X596406Y394696D02*
X601794Y400084D01*
X612210Y389668D01*
X606822Y384280D01*
X596406Y394696D01*
G37*
G36*
X590749Y389039D02*
X596137Y394427D01*
X606553Y384011D01*
X601165Y378623D01*
X590749Y389039D01*
G37*
G36*
X585092Y383382D02*
X590480Y388770D01*
X600896Y378354D01*
X595508Y372966D01*
X585092Y383382D01*
G37*
D14*
G36*
X585092Y357246D02*
X595508Y367662D01*
X600896Y362274D01*
X590480Y351858D01*
X585092Y357246D01*
G37*
G36*
X590749Y351589D02*
X601165Y362005D01*
X606553Y356617D01*
X596137Y346201D01*
X590749Y351589D01*
G37*
G36*
X596406Y345932D02*
X606822Y356348D01*
X612210Y350960D01*
X601794Y340544D01*
X596406Y345932D01*
G37*
G36*
X602062Y340275D02*
X612478Y350691D01*
X617866Y345303D01*
X607450Y334887D01*
X602062Y340275D01*
G37*
G36*
X607719Y334618D02*
X618135Y345034D01*
X623523Y339646D01*
X613107Y329230D01*
X607719Y334618D01*
G37*
G36*
X613376Y328961D02*
X623792Y339377D01*
X629180Y333989D01*
X618764Y323573D01*
X613376Y328961D01*
G37*
G36*
X619033Y323305D02*
X629449Y333721D01*
X634837Y328333D01*
X624421Y317917D01*
X619033Y323305D01*
G37*
G36*
X624690Y317648D02*
X635106Y328064D01*
X640494Y322676D01*
X630078Y312260D01*
X624690Y317648D01*
G37*
D15*
G36*
X645798Y322676D02*
X651186Y328064D01*
X661602Y317648D01*
X656214Y312260D01*
X645798Y322676D01*
G37*
G36*
X651455Y328333D02*
X656843Y333721D01*
X667259Y323305D01*
X661871Y317917D01*
X651455Y328333D01*
G37*
G36*
X657112Y333989D02*
X662500Y339377D01*
X672916Y328961D01*
X667528Y323573D01*
X657112Y333989D01*
G37*
G36*
X662769Y339646D02*
X668157Y345034D01*
X678573Y334618D01*
X673185Y329230D01*
X662769Y339646D01*
G37*
G36*
X668426Y345303D02*
X673814Y350691D01*
X684230Y340275D01*
X678842Y334887D01*
X668426Y345303D01*
G37*
G36*
X674083Y350960D02*
X679471Y356348D01*
X689887Y345932D01*
X684499Y340544D01*
X674083Y350960D01*
G37*
G36*
X679739Y356617D02*
X685127Y362005D01*
X695543Y351589D01*
X690155Y346201D01*
X679739Y356617D01*
G37*
G36*
X685396Y362274D02*
X690784Y367662D01*
X701200Y357246D01*
X695812Y351858D01*
X685396Y362274D01*
G37*
D16*
X695960Y660400D03*
X695960Y685800D03*
X697230Y622300D03*
X694690Y596900D03*
X697230Y571500D03*
D17*
X709676Y447832D03*
X709676Y419832D03*
D18*
X596900Y222250D03*
X541020Y222250D03*
X596900Y260350D03*
X541020Y260350D03*
X596900Y120650D03*
X541020Y120650D03*
X596900Y158750D03*
X541020Y158750D03*
X596900Y19050D03*
X541020Y19050D03*
X596900Y57150D03*
X541020Y57150D03*
X693420Y260350D03*
X749300Y260350D03*
X693420Y222250D03*
X749300Y222250D03*
X693420Y158750D03*
X749300Y158750D03*
X693420Y120650D03*
X749300Y120650D03*
X693420Y57150D03*
X749300Y57150D03*
X693420Y19050D03*
X749300Y19050D03*
D19*
X530860Y591300D03*
X530860Y526300D03*
D16*
X619760Y558800D03*
X619760Y533400D03*
X619760Y508000D03*
X530860Y342900D03*
X530860Y368300D03*
X530860Y393700D03*
X530860Y419100D03*
X530860Y444500D03*
X530860Y469900D03*
X530860Y685800D03*
X556260Y685800D03*
D20*
X750570Y355600D03*
D16*
X750570Y381000D03*
X750570Y406400D03*
D11*
X736990Y317500D03*
X753990Y317500D03*
D21*
X716280Y355990D03*
X716280Y372990D03*
D22*
X633160Y657200D03*
X633160Y647700D03*
X633160Y638200D03*
X657160Y638200D03*
X657160Y657200D03*
X657160Y647700D03*
D11*
X674488Y672846D03*
X657488Y672846D03*
X634813Y618998D03*
X617813Y618998D03*
D16*
X581660Y584200D03*
X556260Y584200D03*
X581660Y558800D03*
X556260Y558800D03*
X581660Y533400D03*
X556260Y533400D03*
X697230Y533400D03*
X694690Y508000D03*
X697230Y482600D03*
D11*
X579746Y637540D03*
X562746Y637540D03*
D16*
X594360Y685800D03*
X619760Y685800D03*
D11*
X875859Y637286D03*
X858859Y637286D03*
X813190Y317500D03*
X830190Y317500D03*
G36*
X960697Y404915D02*
X969911Y395701D01*
X961403Y387193D01*
X952189Y396407D01*
X960697Y404915D01*
G37*
G36*
X948677Y416935D02*
X957891Y407721D01*
X949383Y399213D01*
X940169Y408427D01*
X948677Y416935D01*
G37*
X804434Y637515D03*
X787434Y637515D03*
D12*
X931099Y449850D02*
X920811Y439562D01*
X929296Y431077D02*
X939584Y441365D01*
X948070Y432880D02*
X937782Y422592D01*
D13*
G36*
X941336Y418441D02*
X916624Y443153D01*
X927472Y454001D01*
X952184Y429289D01*
X941336Y418441D01*
G37*
D11*
X830190Y341630D03*
X813190Y341630D03*
D14*
G36*
X944476Y378354D02*
X954892Y388770D01*
X960280Y383382D01*
X949864Y372966D01*
X944476Y378354D01*
G37*
G36*
X938819Y384011D02*
X949235Y394427D01*
X954623Y389039D01*
X944207Y378623D01*
X938819Y384011D01*
G37*
G36*
X933163Y389668D02*
X943579Y400084D01*
X948967Y394696D01*
X938551Y384280D01*
X933163Y389668D01*
G37*
G36*
X927506Y395325D02*
X937922Y405741D01*
X943310Y400353D01*
X932894Y389937D01*
X927506Y395325D01*
G37*
G36*
X921849Y400982D02*
X932265Y411398D01*
X937653Y406010D01*
X927237Y395594D01*
X921849Y400982D01*
G37*
G36*
X916192Y406638D02*
X926608Y417054D01*
X931996Y411666D01*
X921580Y401250D01*
X916192Y406638D01*
G37*
G36*
X910535Y412295D02*
X920951Y422711D01*
X926339Y417323D01*
X915923Y406907D01*
X910535Y412295D01*
G37*
G36*
X904878Y417952D02*
X915294Y428368D01*
X920682Y422980D01*
X910266Y412564D01*
X904878Y417952D01*
G37*
D15*
G36*
X883770Y422980D02*
X889158Y428368D01*
X899574Y417952D01*
X894186Y412564D01*
X883770Y422980D01*
G37*
G36*
X878113Y417323D02*
X883501Y422711D01*
X893917Y412295D01*
X888529Y406907D01*
X878113Y417323D01*
G37*
G36*
X872456Y411666D02*
X877844Y417054D01*
X888260Y406638D01*
X882872Y401250D01*
X872456Y411666D01*
G37*
G36*
X866799Y406010D02*
X872187Y411398D01*
X882603Y400982D01*
X877215Y395594D01*
X866799Y406010D01*
G37*
G36*
X861142Y400353D02*
X866530Y405741D01*
X876946Y395325D01*
X871558Y389937D01*
X861142Y400353D01*
G37*
G36*
X855486Y394696D02*
X860874Y400084D01*
X871290Y389668D01*
X865902Y384280D01*
X855486Y394696D01*
G37*
G36*
X849829Y389039D02*
X855217Y394427D01*
X865633Y384011D01*
X860245Y378623D01*
X849829Y389039D01*
G37*
G36*
X844172Y383382D02*
X849560Y388770D01*
X859976Y378354D01*
X854588Y372966D01*
X844172Y383382D01*
G37*
D14*
G36*
X844172Y357246D02*
X854588Y367662D01*
X859976Y362274D01*
X849560Y351858D01*
X844172Y357246D01*
G37*
G36*
X849829Y351589D02*
X860245Y362005D01*
X865633Y356617D01*
X855217Y346201D01*
X849829Y351589D01*
G37*
G36*
X855486Y345932D02*
X865902Y356348D01*
X871290Y350960D01*
X860874Y340544D01*
X855486Y345932D01*
G37*
G36*
X861142Y340275D02*
X871558Y350691D01*
X876946Y345303D01*
X866530Y334887D01*
X861142Y340275D01*
G37*
G36*
X866799Y334618D02*
X877215Y345034D01*
X882603Y339646D01*
X872187Y329230D01*
X866799Y334618D01*
G37*
G36*
X872456Y328961D02*
X882872Y339377D01*
X888260Y333989D01*
X877844Y323573D01*
X872456Y328961D01*
G37*
G36*
X878113Y323305D02*
X888529Y333721D01*
X893917Y328333D01*
X883501Y317917D01*
X878113Y323305D01*
G37*
G36*
X883770Y317648D02*
X894186Y328064D01*
X899574Y322676D01*
X889158Y312260D01*
X883770Y317648D01*
G37*
D15*
G36*
X904878Y322676D02*
X910266Y328064D01*
X920682Y317648D01*
X915294Y312260D01*
X904878Y322676D01*
G37*
G36*
X910535Y328333D02*
X915923Y333721D01*
X926339Y323305D01*
X920951Y317917D01*
X910535Y328333D01*
G37*
G36*
X916192Y333989D02*
X921580Y339377D01*
X931996Y328961D01*
X926608Y323573D01*
X916192Y333989D01*
G37*
G36*
X921849Y339646D02*
X927237Y345034D01*
X937653Y334618D01*
X932265Y329230D01*
X921849Y339646D01*
G37*
G36*
X927506Y345303D02*
X932894Y350691D01*
X943310Y340275D01*
X937922Y334887D01*
X927506Y345303D01*
G37*
G36*
X933163Y350960D02*
X938551Y356348D01*
X948967Y345932D01*
X943579Y340544D01*
X933163Y350960D01*
G37*
G36*
X938819Y356617D02*
X944207Y362005D01*
X954623Y351589D01*
X949235Y346201D01*
X938819Y356617D01*
G37*
G36*
X944476Y362274D02*
X949864Y367662D01*
X960280Y357246D01*
X954892Y351858D01*
X944476Y362274D01*
G37*
D16*
X955040Y660400D03*
X955040Y685800D03*
X956310Y622300D03*
X953770Y596900D03*
X956310Y571500D03*
D17*
X968756Y447832D03*
X968756Y419832D03*
D18*
X855980Y222250D03*
X800100Y222250D03*
X855980Y260350D03*
X800100Y260350D03*
X855980Y120650D03*
X800100Y120650D03*
X855980Y158750D03*
X800100Y158750D03*
X855980Y19050D03*
X800100Y19050D03*
X855980Y57150D03*
X800100Y57150D03*
X952500Y260350D03*
X1008380Y260350D03*
X952500Y222250D03*
X1008380Y222250D03*
X952500Y158750D03*
X1008380Y158750D03*
X952500Y120650D03*
X1008380Y120650D03*
X952500Y57150D03*
X1008380Y57150D03*
X952500Y19050D03*
X1008380Y19050D03*
D19*
X789940Y591300D03*
X789940Y526300D03*
D16*
X878840Y558800D03*
X878840Y533400D03*
X878840Y508000D03*
X789940Y342900D03*
X789940Y368300D03*
X789940Y393700D03*
X789940Y419100D03*
X789940Y444500D03*
X789940Y469900D03*
X789940Y685800D03*
X815340Y685800D03*
D20*
X1009650Y355600D03*
D16*
X1009650Y381000D03*
X1009650Y406400D03*
D11*
X996070Y317500D03*
X1013070Y317500D03*
D21*
X975360Y355990D03*
X975360Y372990D03*
D22*
X892240Y657200D03*
X892240Y647700D03*
X892240Y638200D03*
X916240Y638200D03*
X916240Y657200D03*
X916240Y647700D03*
D11*
X933568Y672846D03*
X916568Y672846D03*
X893893Y618998D03*
X876893Y618998D03*
D16*
X840740Y584200D03*
X815340Y584200D03*
X840740Y558800D03*
X815340Y558800D03*
X840740Y533400D03*
X815340Y533400D03*
X956310Y533400D03*
X953770Y508000D03*
X956310Y482600D03*
D11*
X838826Y637540D03*
X821826Y637540D03*
D16*
X853440Y685800D03*
X878840Y685800D03*
D23*
X68580Y719455D03*
X962025Y719455D03*
D24*
X59525Y-20955D02*
X59528Y-20733D01*
X59536Y-20511D01*
X59550Y-20289D01*
X59569Y-20067D01*
X59593Y-19847D01*
X59623Y-19626D01*
X59658Y-19407D01*
X59699Y-19188D01*
X59745Y-18971D01*
X59796Y-18755D01*
X59853Y-18540D01*
X59915Y-18326D01*
X59982Y-18115D01*
X60054Y-17904D01*
X60132Y-17696D01*
X60214Y-17490D01*
X60302Y-17286D01*
X60394Y-17083D01*
X60492Y-16884D01*
X60594Y-16687D01*
X60701Y-16492D01*
X60813Y-16300D01*
X60930Y-16111D01*
X61051Y-15924D01*
X61177Y-15741D01*
X61307Y-15561D01*
X61442Y-15384D01*
X61580Y-15211D01*
X61723Y-15041D01*
X61871Y-14874D01*
X62022Y-14711D01*
X62177Y-14552D01*
X62336Y-14397D01*
X62499Y-14246D01*
X62666Y-14098D01*
X62836Y-13955D01*
X63009Y-13817D01*
X63186Y-13682D01*
X63366Y-13552D01*
X63549Y-13426D01*
X63736Y-13305D01*
X63925Y-13188D01*
X64117Y-13076D01*
X64312Y-12969D01*
X64509Y-12867D01*
X64708Y-12769D01*
X64911Y-12677D01*
X65115Y-12589D01*
X65321Y-12507D01*
X65529Y-12429D01*
X65740Y-12357D01*
X65951Y-12290D01*
X66165Y-12228D01*
X66380Y-12171D01*
X66596Y-12120D01*
X66813Y-12074D01*
X67032Y-12033D01*
X67251Y-11998D01*
X67472Y-11968D01*
X67692Y-11944D01*
X67914Y-11925D01*
X68136Y-11911D01*
X68358Y-11903D01*
X68580Y-11900D01*
X68802Y-11903D01*
X69024Y-11911D01*
X69246Y-11925D01*
X69468Y-11944D01*
X69688Y-11968D01*
X69909Y-11998D01*
X70128Y-12033D01*
X70347Y-12074D01*
X70564Y-12120D01*
X70780Y-12171D01*
X70995Y-12228D01*
X71209Y-12290D01*
X71420Y-12357D01*
X71631Y-12429D01*
X71839Y-12507D01*
X72045Y-12589D01*
X72249Y-12677D01*
X72452Y-12769D01*
X72651Y-12867D01*
X72848Y-12969D01*
X73043Y-13076D01*
X73235Y-13188D01*
X73424Y-13305D01*
X73611Y-13426D01*
X73794Y-13552D01*
X73974Y-13682D01*
X74151Y-13817D01*
X74324Y-13955D01*
X74494Y-14098D01*
X74661Y-14246D01*
X74824Y-14397D01*
X74983Y-14552D01*
X75138Y-14711D01*
X75289Y-14874D01*
X75437Y-15041D01*
X75580Y-15211D01*
X75718Y-15384D01*
X75853Y-15561D01*
X75983Y-15741D01*
X76109Y-15924D01*
X76230Y-16111D01*
X76347Y-16300D01*
X76459Y-16492D01*
X76566Y-16687D01*
X76668Y-16884D01*
X76766Y-17083D01*
X76858Y-17286D01*
X76946Y-17490D01*
X77028Y-17696D01*
X77106Y-17904D01*
X77178Y-18115D01*
X77245Y-18326D01*
X77307Y-18540D01*
X77364Y-18755D01*
X77415Y-18971D01*
X77461Y-19188D01*
X77502Y-19407D01*
X77537Y-19626D01*
X77567Y-19847D01*
X77591Y-20067D01*
X77610Y-20289D01*
X77624Y-20511D01*
X77632Y-20733D01*
X77635Y-20955D01*
X77632Y-21177D01*
X77624Y-21399D01*
X77610Y-21621D01*
X77591Y-21843D01*
X77567Y-22063D01*
X77537Y-22284D01*
X77502Y-22503D01*
X77461Y-22722D01*
X77415Y-22939D01*
X77364Y-23155D01*
X77307Y-23370D01*
X77245Y-23584D01*
X77178Y-23795D01*
X77106Y-24006D01*
X77028Y-24214D01*
X76946Y-24420D01*
X76858Y-24624D01*
X76766Y-24827D01*
X76668Y-25026D01*
X76566Y-25223D01*
X76459Y-25418D01*
X76347Y-25610D01*
X76230Y-25799D01*
X76109Y-25986D01*
X75983Y-26169D01*
X75853Y-26349D01*
X75718Y-26526D01*
X75580Y-26699D01*
X75437Y-26869D01*
X75289Y-27036D01*
X75138Y-27199D01*
X74983Y-27358D01*
X74824Y-27513D01*
X74661Y-27664D01*
X74494Y-27812D01*
X74324Y-27955D01*
X74151Y-28093D01*
X73974Y-28228D01*
X73794Y-28358D01*
X73611Y-28484D01*
X73424Y-28605D01*
X73235Y-28722D01*
X73043Y-28834D01*
X72848Y-28941D01*
X72651Y-29043D01*
X72452Y-29141D01*
X72249Y-29233D01*
X72045Y-29321D01*
X71839Y-29403D01*
X71631Y-29481D01*
X71420Y-29553D01*
X71209Y-29620D01*
X70995Y-29682D01*
X70780Y-29739D01*
X70564Y-29790D01*
X70347Y-29836D01*
X70128Y-29877D01*
X69909Y-29912D01*
X69688Y-29942D01*
X69468Y-29966D01*
X69246Y-29985D01*
X69024Y-29999D01*
X68802Y-30007D01*
X68580Y-30010D01*
X68358Y-30007D01*
X68136Y-29999D01*
X67914Y-29985D01*
X67692Y-29966D01*
X67472Y-29942D01*
X67251Y-29912D01*
X67032Y-29877D01*
X66813Y-29836D01*
X66596Y-29790D01*
X66380Y-29739D01*
X66165Y-29682D01*
X65951Y-29620D01*
X65740Y-29553D01*
X65529Y-29481D01*
X65321Y-29403D01*
X65115Y-29321D01*
X64911Y-29233D01*
X64708Y-29141D01*
X64509Y-29043D01*
X64312Y-28941D01*
X64117Y-28834D01*
X63925Y-28722D01*
X63736Y-28605D01*
X63549Y-28484D01*
X63366Y-28358D01*
X63186Y-28228D01*
X63009Y-28093D01*
X62836Y-27955D01*
X62666Y-27812D01*
X62499Y-27664D01*
X62336Y-27513D01*
X62177Y-27358D01*
X62022Y-27199D01*
X61871Y-27036D01*
X61723Y-26869D01*
X61580Y-26699D01*
X61442Y-26526D01*
X61307Y-26349D01*
X61177Y-26169D01*
X61051Y-25986D01*
X60930Y-25799D01*
X60813Y-25610D01*
X60701Y-25418D01*
X60594Y-25223D01*
X60492Y-25026D01*
X60394Y-24827D01*
X60302Y-24624D01*
X60214Y-24420D01*
X60132Y-24214D01*
X60054Y-24006D01*
X59982Y-23795D01*
X59915Y-23584D01*
X59853Y-23370D01*
X59796Y-23155D01*
X59745Y-22939D01*
X59699Y-22722D01*
X59658Y-22503D01*
X59623Y-22284D01*
X59593Y-22063D01*
X59569Y-21843D01*
X59550Y-21621D01*
X59536Y-21399D01*
X59528Y-21177D01*
X59525Y-20955D01*
D25*
X68580Y-20955D03*
M02*
