G04 EAGLE Gerber RS-274X export*
G75*
%MOMM*%
%FSLAX34Y34*%
%LPD*%
%INSolderpaste Top*%
%IPPOS*%
%AMOC8*
5,1,8,0,0,1.08239X$1,22.5*%
G01*
%ADD10R,1.100000X1.000000*%
%ADD11C,0.450000*%
%ADD12R,1.270000X0.558800*%
%ADD13R,0.558800X1.270000*%
%ADD14R,1.600000X1.400000*%
%ADD15R,1.524000X0.762000*%
%ADD16R,1.000000X1.100000*%
%ADD17R,0.800000X0.550000*%


D10*
X98619Y637286D03*
X81619Y637286D03*
X35950Y317500D03*
X52950Y317500D03*
G36*
X183457Y403478D02*
X191234Y395701D01*
X184163Y388630D01*
X176386Y396407D01*
X183457Y403478D01*
G37*
G36*
X171437Y415498D02*
X179214Y407721D01*
X172143Y400650D01*
X164366Y408427D01*
X171437Y415498D01*
G37*
X27194Y637515D03*
X10194Y637515D03*
D11*
X153859Y449850D02*
X143571Y439562D01*
X152056Y431077D02*
X162344Y441365D01*
X170830Y432880D02*
X160542Y422592D01*
D10*
X52950Y341630D03*
X35950Y341630D03*
D12*
G36*
X168673Y378354D02*
X177652Y387333D01*
X181603Y383382D01*
X172624Y374403D01*
X168673Y378354D01*
G37*
G36*
X163016Y384011D02*
X171995Y392990D01*
X175946Y389039D01*
X166967Y380060D01*
X163016Y384011D01*
G37*
G36*
X157360Y389668D02*
X166339Y398647D01*
X170290Y394696D01*
X161311Y385717D01*
X157360Y389668D01*
G37*
G36*
X151703Y395325D02*
X160682Y404304D01*
X164633Y400353D01*
X155654Y391374D01*
X151703Y395325D01*
G37*
G36*
X146046Y400982D02*
X155025Y409961D01*
X158976Y406010D01*
X149997Y397031D01*
X146046Y400982D01*
G37*
G36*
X140389Y406638D02*
X149368Y415617D01*
X153319Y411666D01*
X144340Y402687D01*
X140389Y406638D01*
G37*
G36*
X134732Y412295D02*
X143711Y421274D01*
X147662Y417323D01*
X138683Y408344D01*
X134732Y412295D01*
G37*
G36*
X129075Y417952D02*
X138054Y426931D01*
X142005Y422980D01*
X133026Y414001D01*
X129075Y417952D01*
G37*
D13*
G36*
X107967Y422980D02*
X111918Y426931D01*
X120897Y417952D01*
X116946Y414001D01*
X107967Y422980D01*
G37*
G36*
X102310Y417323D02*
X106261Y421274D01*
X115240Y412295D01*
X111289Y408344D01*
X102310Y417323D01*
G37*
G36*
X96653Y411666D02*
X100604Y415617D01*
X109583Y406638D01*
X105632Y402687D01*
X96653Y411666D01*
G37*
G36*
X90996Y406010D02*
X94947Y409961D01*
X103926Y400982D01*
X99975Y397031D01*
X90996Y406010D01*
G37*
G36*
X85339Y400353D02*
X89290Y404304D01*
X98269Y395325D01*
X94318Y391374D01*
X85339Y400353D01*
G37*
G36*
X79683Y394696D02*
X83634Y398647D01*
X92613Y389668D01*
X88662Y385717D01*
X79683Y394696D01*
G37*
G36*
X74026Y389039D02*
X77977Y392990D01*
X86956Y384011D01*
X83005Y380060D01*
X74026Y389039D01*
G37*
G36*
X68369Y383382D02*
X72320Y387333D01*
X81299Y378354D01*
X77348Y374403D01*
X68369Y383382D01*
G37*
D12*
G36*
X68369Y357246D02*
X77348Y366225D01*
X81299Y362274D01*
X72320Y353295D01*
X68369Y357246D01*
G37*
G36*
X74026Y351589D02*
X83005Y360568D01*
X86956Y356617D01*
X77977Y347638D01*
X74026Y351589D01*
G37*
G36*
X79683Y345932D02*
X88662Y354911D01*
X92613Y350960D01*
X83634Y341981D01*
X79683Y345932D01*
G37*
G36*
X85339Y340275D02*
X94318Y349254D01*
X98269Y345303D01*
X89290Y336324D01*
X85339Y340275D01*
G37*
G36*
X90996Y334618D02*
X99975Y343597D01*
X103926Y339646D01*
X94947Y330667D01*
X90996Y334618D01*
G37*
G36*
X96653Y328961D02*
X105632Y337940D01*
X109583Y333989D01*
X100604Y325010D01*
X96653Y328961D01*
G37*
G36*
X102310Y323305D02*
X111289Y332284D01*
X115240Y328333D01*
X106261Y319354D01*
X102310Y323305D01*
G37*
G36*
X107967Y317648D02*
X116946Y326627D01*
X120897Y322676D01*
X111918Y313697D01*
X107967Y317648D01*
G37*
D13*
G36*
X129075Y322676D02*
X133026Y326627D01*
X142005Y317648D01*
X138054Y313697D01*
X129075Y322676D01*
G37*
G36*
X134732Y328333D02*
X138683Y332284D01*
X147662Y323305D01*
X143711Y319354D01*
X134732Y328333D01*
G37*
G36*
X140389Y333989D02*
X144340Y337940D01*
X153319Y328961D01*
X149368Y325010D01*
X140389Y333989D01*
G37*
G36*
X146046Y339646D02*
X149997Y343597D01*
X158976Y334618D01*
X155025Y330667D01*
X146046Y339646D01*
G37*
G36*
X151703Y345303D02*
X155654Y349254D01*
X164633Y340275D01*
X160682Y336324D01*
X151703Y345303D01*
G37*
G36*
X157360Y350960D02*
X161311Y354911D01*
X170290Y345932D01*
X166339Y341981D01*
X157360Y350960D01*
G37*
G36*
X163016Y356617D02*
X166967Y360568D01*
X175946Y351589D01*
X171995Y347638D01*
X163016Y356617D01*
G37*
G36*
X168673Y362274D02*
X172624Y366225D01*
X181603Y357246D01*
X177652Y353295D01*
X168673Y362274D01*
G37*
D14*
X191516Y447832D03*
X191516Y419832D03*
D15*
X78740Y222250D03*
X22860Y222250D03*
X78740Y260350D03*
X22860Y260350D03*
X78740Y120650D03*
X22860Y120650D03*
X78740Y158750D03*
X22860Y158750D03*
X78740Y19050D03*
X22860Y19050D03*
X78740Y57150D03*
X22860Y57150D03*
X175260Y260350D03*
X231140Y260350D03*
X175260Y222250D03*
X231140Y222250D03*
X175260Y158750D03*
X231140Y158750D03*
X175260Y120650D03*
X231140Y120650D03*
X175260Y57150D03*
X231140Y57150D03*
X175260Y19050D03*
X231140Y19050D03*
D10*
X218830Y317500D03*
X235830Y317500D03*
D16*
X198120Y355990D03*
X198120Y372990D03*
D17*
X115000Y657200D03*
X115000Y647700D03*
X115000Y638200D03*
X139000Y638200D03*
X139000Y657200D03*
X139000Y647700D03*
D10*
X156328Y672846D03*
X139328Y672846D03*
X116653Y618998D03*
X99653Y618998D03*
X61586Y637540D03*
X44586Y637540D03*
X357699Y637286D03*
X340699Y637286D03*
X295030Y317500D03*
X312030Y317500D03*
G36*
X442537Y403478D02*
X450314Y395701D01*
X443243Y388630D01*
X435466Y396407D01*
X442537Y403478D01*
G37*
G36*
X430517Y415498D02*
X438294Y407721D01*
X431223Y400650D01*
X423446Y408427D01*
X430517Y415498D01*
G37*
X286274Y637515D03*
X269274Y637515D03*
D11*
X412939Y449850D02*
X402651Y439562D01*
X411136Y431077D02*
X421424Y441365D01*
X429910Y432880D02*
X419622Y422592D01*
D10*
X312030Y341630D03*
X295030Y341630D03*
D12*
G36*
X427753Y378354D02*
X436732Y387333D01*
X440683Y383382D01*
X431704Y374403D01*
X427753Y378354D01*
G37*
G36*
X422096Y384011D02*
X431075Y392990D01*
X435026Y389039D01*
X426047Y380060D01*
X422096Y384011D01*
G37*
G36*
X416440Y389668D02*
X425419Y398647D01*
X429370Y394696D01*
X420391Y385717D01*
X416440Y389668D01*
G37*
G36*
X410783Y395325D02*
X419762Y404304D01*
X423713Y400353D01*
X414734Y391374D01*
X410783Y395325D01*
G37*
G36*
X405126Y400982D02*
X414105Y409961D01*
X418056Y406010D01*
X409077Y397031D01*
X405126Y400982D01*
G37*
G36*
X399469Y406638D02*
X408448Y415617D01*
X412399Y411666D01*
X403420Y402687D01*
X399469Y406638D01*
G37*
G36*
X393812Y412295D02*
X402791Y421274D01*
X406742Y417323D01*
X397763Y408344D01*
X393812Y412295D01*
G37*
G36*
X388155Y417952D02*
X397134Y426931D01*
X401085Y422980D01*
X392106Y414001D01*
X388155Y417952D01*
G37*
D13*
G36*
X367047Y422980D02*
X370998Y426931D01*
X379977Y417952D01*
X376026Y414001D01*
X367047Y422980D01*
G37*
G36*
X361390Y417323D02*
X365341Y421274D01*
X374320Y412295D01*
X370369Y408344D01*
X361390Y417323D01*
G37*
G36*
X355733Y411666D02*
X359684Y415617D01*
X368663Y406638D01*
X364712Y402687D01*
X355733Y411666D01*
G37*
G36*
X350076Y406010D02*
X354027Y409961D01*
X363006Y400982D01*
X359055Y397031D01*
X350076Y406010D01*
G37*
G36*
X344419Y400353D02*
X348370Y404304D01*
X357349Y395325D01*
X353398Y391374D01*
X344419Y400353D01*
G37*
G36*
X338763Y394696D02*
X342714Y398647D01*
X351693Y389668D01*
X347742Y385717D01*
X338763Y394696D01*
G37*
G36*
X333106Y389039D02*
X337057Y392990D01*
X346036Y384011D01*
X342085Y380060D01*
X333106Y389039D01*
G37*
G36*
X327449Y383382D02*
X331400Y387333D01*
X340379Y378354D01*
X336428Y374403D01*
X327449Y383382D01*
G37*
D12*
G36*
X327449Y357246D02*
X336428Y366225D01*
X340379Y362274D01*
X331400Y353295D01*
X327449Y357246D01*
G37*
G36*
X333106Y351589D02*
X342085Y360568D01*
X346036Y356617D01*
X337057Y347638D01*
X333106Y351589D01*
G37*
G36*
X338763Y345932D02*
X347742Y354911D01*
X351693Y350960D01*
X342714Y341981D01*
X338763Y345932D01*
G37*
G36*
X344419Y340275D02*
X353398Y349254D01*
X357349Y345303D01*
X348370Y336324D01*
X344419Y340275D01*
G37*
G36*
X350076Y334618D02*
X359055Y343597D01*
X363006Y339646D01*
X354027Y330667D01*
X350076Y334618D01*
G37*
G36*
X355733Y328961D02*
X364712Y337940D01*
X368663Y333989D01*
X359684Y325010D01*
X355733Y328961D01*
G37*
G36*
X361390Y323305D02*
X370369Y332284D01*
X374320Y328333D01*
X365341Y319354D01*
X361390Y323305D01*
G37*
G36*
X367047Y317648D02*
X376026Y326627D01*
X379977Y322676D01*
X370998Y313697D01*
X367047Y317648D01*
G37*
D13*
G36*
X388155Y322676D02*
X392106Y326627D01*
X401085Y317648D01*
X397134Y313697D01*
X388155Y322676D01*
G37*
G36*
X393812Y328333D02*
X397763Y332284D01*
X406742Y323305D01*
X402791Y319354D01*
X393812Y328333D01*
G37*
G36*
X399469Y333989D02*
X403420Y337940D01*
X412399Y328961D01*
X408448Y325010D01*
X399469Y333989D01*
G37*
G36*
X405126Y339646D02*
X409077Y343597D01*
X418056Y334618D01*
X414105Y330667D01*
X405126Y339646D01*
G37*
G36*
X410783Y345303D02*
X414734Y349254D01*
X423713Y340275D01*
X419762Y336324D01*
X410783Y345303D01*
G37*
G36*
X416440Y350960D02*
X420391Y354911D01*
X429370Y345932D01*
X425419Y341981D01*
X416440Y350960D01*
G37*
G36*
X422096Y356617D02*
X426047Y360568D01*
X435026Y351589D01*
X431075Y347638D01*
X422096Y356617D01*
G37*
G36*
X427753Y362274D02*
X431704Y366225D01*
X440683Y357246D01*
X436732Y353295D01*
X427753Y362274D01*
G37*
D14*
X450596Y447832D03*
X450596Y419832D03*
D15*
X337820Y222250D03*
X281940Y222250D03*
X337820Y260350D03*
X281940Y260350D03*
X337820Y120650D03*
X281940Y120650D03*
X337820Y158750D03*
X281940Y158750D03*
X337820Y19050D03*
X281940Y19050D03*
X337820Y57150D03*
X281940Y57150D03*
X434340Y260350D03*
X490220Y260350D03*
X434340Y222250D03*
X490220Y222250D03*
X434340Y158750D03*
X490220Y158750D03*
X434340Y120650D03*
X490220Y120650D03*
X434340Y57150D03*
X490220Y57150D03*
X434340Y19050D03*
X490220Y19050D03*
D10*
X477910Y317500D03*
X494910Y317500D03*
D16*
X457200Y355990D03*
X457200Y372990D03*
D17*
X374080Y657200D03*
X374080Y647700D03*
X374080Y638200D03*
X398080Y638200D03*
X398080Y657200D03*
X398080Y647700D03*
D10*
X415408Y672846D03*
X398408Y672846D03*
X375733Y618998D03*
X358733Y618998D03*
X320666Y637540D03*
X303666Y637540D03*
X616779Y637286D03*
X599779Y637286D03*
X554110Y317500D03*
X571110Y317500D03*
G36*
X701617Y403478D02*
X709394Y395701D01*
X702323Y388630D01*
X694546Y396407D01*
X701617Y403478D01*
G37*
G36*
X689597Y415498D02*
X697374Y407721D01*
X690303Y400650D01*
X682526Y408427D01*
X689597Y415498D01*
G37*
X545354Y637515D03*
X528354Y637515D03*
D11*
X672019Y449850D02*
X661731Y439562D01*
X670216Y431077D02*
X680504Y441365D01*
X688990Y432880D02*
X678702Y422592D01*
D10*
X571110Y341630D03*
X554110Y341630D03*
D12*
G36*
X686833Y378354D02*
X695812Y387333D01*
X699763Y383382D01*
X690784Y374403D01*
X686833Y378354D01*
G37*
G36*
X681176Y384011D02*
X690155Y392990D01*
X694106Y389039D01*
X685127Y380060D01*
X681176Y384011D01*
G37*
G36*
X675520Y389668D02*
X684499Y398647D01*
X688450Y394696D01*
X679471Y385717D01*
X675520Y389668D01*
G37*
G36*
X669863Y395325D02*
X678842Y404304D01*
X682793Y400353D01*
X673814Y391374D01*
X669863Y395325D01*
G37*
G36*
X664206Y400982D02*
X673185Y409961D01*
X677136Y406010D01*
X668157Y397031D01*
X664206Y400982D01*
G37*
G36*
X658549Y406638D02*
X667528Y415617D01*
X671479Y411666D01*
X662500Y402687D01*
X658549Y406638D01*
G37*
G36*
X652892Y412295D02*
X661871Y421274D01*
X665822Y417323D01*
X656843Y408344D01*
X652892Y412295D01*
G37*
G36*
X647235Y417952D02*
X656214Y426931D01*
X660165Y422980D01*
X651186Y414001D01*
X647235Y417952D01*
G37*
D13*
G36*
X626127Y422980D02*
X630078Y426931D01*
X639057Y417952D01*
X635106Y414001D01*
X626127Y422980D01*
G37*
G36*
X620470Y417323D02*
X624421Y421274D01*
X633400Y412295D01*
X629449Y408344D01*
X620470Y417323D01*
G37*
G36*
X614813Y411666D02*
X618764Y415617D01*
X627743Y406638D01*
X623792Y402687D01*
X614813Y411666D01*
G37*
G36*
X609156Y406010D02*
X613107Y409961D01*
X622086Y400982D01*
X618135Y397031D01*
X609156Y406010D01*
G37*
G36*
X603499Y400353D02*
X607450Y404304D01*
X616429Y395325D01*
X612478Y391374D01*
X603499Y400353D01*
G37*
G36*
X597843Y394696D02*
X601794Y398647D01*
X610773Y389668D01*
X606822Y385717D01*
X597843Y394696D01*
G37*
G36*
X592186Y389039D02*
X596137Y392990D01*
X605116Y384011D01*
X601165Y380060D01*
X592186Y389039D01*
G37*
G36*
X586529Y383382D02*
X590480Y387333D01*
X599459Y378354D01*
X595508Y374403D01*
X586529Y383382D01*
G37*
D12*
G36*
X586529Y357246D02*
X595508Y366225D01*
X599459Y362274D01*
X590480Y353295D01*
X586529Y357246D01*
G37*
G36*
X592186Y351589D02*
X601165Y360568D01*
X605116Y356617D01*
X596137Y347638D01*
X592186Y351589D01*
G37*
G36*
X597843Y345932D02*
X606822Y354911D01*
X610773Y350960D01*
X601794Y341981D01*
X597843Y345932D01*
G37*
G36*
X603499Y340275D02*
X612478Y349254D01*
X616429Y345303D01*
X607450Y336324D01*
X603499Y340275D01*
G37*
G36*
X609156Y334618D02*
X618135Y343597D01*
X622086Y339646D01*
X613107Y330667D01*
X609156Y334618D01*
G37*
G36*
X614813Y328961D02*
X623792Y337940D01*
X627743Y333989D01*
X618764Y325010D01*
X614813Y328961D01*
G37*
G36*
X620470Y323305D02*
X629449Y332284D01*
X633400Y328333D01*
X624421Y319354D01*
X620470Y323305D01*
G37*
G36*
X626127Y317648D02*
X635106Y326627D01*
X639057Y322676D01*
X630078Y313697D01*
X626127Y317648D01*
G37*
D13*
G36*
X647235Y322676D02*
X651186Y326627D01*
X660165Y317648D01*
X656214Y313697D01*
X647235Y322676D01*
G37*
G36*
X652892Y328333D02*
X656843Y332284D01*
X665822Y323305D01*
X661871Y319354D01*
X652892Y328333D01*
G37*
G36*
X658549Y333989D02*
X662500Y337940D01*
X671479Y328961D01*
X667528Y325010D01*
X658549Y333989D01*
G37*
G36*
X664206Y339646D02*
X668157Y343597D01*
X677136Y334618D01*
X673185Y330667D01*
X664206Y339646D01*
G37*
G36*
X669863Y345303D02*
X673814Y349254D01*
X682793Y340275D01*
X678842Y336324D01*
X669863Y345303D01*
G37*
G36*
X675520Y350960D02*
X679471Y354911D01*
X688450Y345932D01*
X684499Y341981D01*
X675520Y350960D01*
G37*
G36*
X681176Y356617D02*
X685127Y360568D01*
X694106Y351589D01*
X690155Y347638D01*
X681176Y356617D01*
G37*
G36*
X686833Y362274D02*
X690784Y366225D01*
X699763Y357246D01*
X695812Y353295D01*
X686833Y362274D01*
G37*
D14*
X709676Y447832D03*
X709676Y419832D03*
D15*
X596900Y222250D03*
X541020Y222250D03*
X596900Y260350D03*
X541020Y260350D03*
X596900Y120650D03*
X541020Y120650D03*
X596900Y158750D03*
X541020Y158750D03*
X596900Y19050D03*
X541020Y19050D03*
X596900Y57150D03*
X541020Y57150D03*
X693420Y260350D03*
X749300Y260350D03*
X693420Y222250D03*
X749300Y222250D03*
X693420Y158750D03*
X749300Y158750D03*
X693420Y120650D03*
X749300Y120650D03*
X693420Y57150D03*
X749300Y57150D03*
X693420Y19050D03*
X749300Y19050D03*
D10*
X736990Y317500D03*
X753990Y317500D03*
D16*
X716280Y355990D03*
X716280Y372990D03*
D17*
X633160Y657200D03*
X633160Y647700D03*
X633160Y638200D03*
X657160Y638200D03*
X657160Y657200D03*
X657160Y647700D03*
D10*
X674488Y672846D03*
X657488Y672846D03*
X634813Y618998D03*
X617813Y618998D03*
X579746Y637540D03*
X562746Y637540D03*
X875859Y637286D03*
X858859Y637286D03*
X813190Y317500D03*
X830190Y317500D03*
G36*
X960697Y403478D02*
X968474Y395701D01*
X961403Y388630D01*
X953626Y396407D01*
X960697Y403478D01*
G37*
G36*
X948677Y415498D02*
X956454Y407721D01*
X949383Y400650D01*
X941606Y408427D01*
X948677Y415498D01*
G37*
X804434Y637515D03*
X787434Y637515D03*
D11*
X931099Y449850D02*
X920811Y439562D01*
X929296Y431077D02*
X939584Y441365D01*
X948070Y432880D02*
X937782Y422592D01*
D10*
X830190Y341630D03*
X813190Y341630D03*
D12*
G36*
X945913Y378354D02*
X954892Y387333D01*
X958843Y383382D01*
X949864Y374403D01*
X945913Y378354D01*
G37*
G36*
X940256Y384011D02*
X949235Y392990D01*
X953186Y389039D01*
X944207Y380060D01*
X940256Y384011D01*
G37*
G36*
X934600Y389668D02*
X943579Y398647D01*
X947530Y394696D01*
X938551Y385717D01*
X934600Y389668D01*
G37*
G36*
X928943Y395325D02*
X937922Y404304D01*
X941873Y400353D01*
X932894Y391374D01*
X928943Y395325D01*
G37*
G36*
X923286Y400982D02*
X932265Y409961D01*
X936216Y406010D01*
X927237Y397031D01*
X923286Y400982D01*
G37*
G36*
X917629Y406638D02*
X926608Y415617D01*
X930559Y411666D01*
X921580Y402687D01*
X917629Y406638D01*
G37*
G36*
X911972Y412295D02*
X920951Y421274D01*
X924902Y417323D01*
X915923Y408344D01*
X911972Y412295D01*
G37*
G36*
X906315Y417952D02*
X915294Y426931D01*
X919245Y422980D01*
X910266Y414001D01*
X906315Y417952D01*
G37*
D13*
G36*
X885207Y422980D02*
X889158Y426931D01*
X898137Y417952D01*
X894186Y414001D01*
X885207Y422980D01*
G37*
G36*
X879550Y417323D02*
X883501Y421274D01*
X892480Y412295D01*
X888529Y408344D01*
X879550Y417323D01*
G37*
G36*
X873893Y411666D02*
X877844Y415617D01*
X886823Y406638D01*
X882872Y402687D01*
X873893Y411666D01*
G37*
G36*
X868236Y406010D02*
X872187Y409961D01*
X881166Y400982D01*
X877215Y397031D01*
X868236Y406010D01*
G37*
G36*
X862579Y400353D02*
X866530Y404304D01*
X875509Y395325D01*
X871558Y391374D01*
X862579Y400353D01*
G37*
G36*
X856923Y394696D02*
X860874Y398647D01*
X869853Y389668D01*
X865902Y385717D01*
X856923Y394696D01*
G37*
G36*
X851266Y389039D02*
X855217Y392990D01*
X864196Y384011D01*
X860245Y380060D01*
X851266Y389039D01*
G37*
G36*
X845609Y383382D02*
X849560Y387333D01*
X858539Y378354D01*
X854588Y374403D01*
X845609Y383382D01*
G37*
D12*
G36*
X845609Y357246D02*
X854588Y366225D01*
X858539Y362274D01*
X849560Y353295D01*
X845609Y357246D01*
G37*
G36*
X851266Y351589D02*
X860245Y360568D01*
X864196Y356617D01*
X855217Y347638D01*
X851266Y351589D01*
G37*
G36*
X856923Y345932D02*
X865902Y354911D01*
X869853Y350960D01*
X860874Y341981D01*
X856923Y345932D01*
G37*
G36*
X862579Y340275D02*
X871558Y349254D01*
X875509Y345303D01*
X866530Y336324D01*
X862579Y340275D01*
G37*
G36*
X868236Y334618D02*
X877215Y343597D01*
X881166Y339646D01*
X872187Y330667D01*
X868236Y334618D01*
G37*
G36*
X873893Y328961D02*
X882872Y337940D01*
X886823Y333989D01*
X877844Y325010D01*
X873893Y328961D01*
G37*
G36*
X879550Y323305D02*
X888529Y332284D01*
X892480Y328333D01*
X883501Y319354D01*
X879550Y323305D01*
G37*
G36*
X885207Y317648D02*
X894186Y326627D01*
X898137Y322676D01*
X889158Y313697D01*
X885207Y317648D01*
G37*
D13*
G36*
X906315Y322676D02*
X910266Y326627D01*
X919245Y317648D01*
X915294Y313697D01*
X906315Y322676D01*
G37*
G36*
X911972Y328333D02*
X915923Y332284D01*
X924902Y323305D01*
X920951Y319354D01*
X911972Y328333D01*
G37*
G36*
X917629Y333989D02*
X921580Y337940D01*
X930559Y328961D01*
X926608Y325010D01*
X917629Y333989D01*
G37*
G36*
X923286Y339646D02*
X927237Y343597D01*
X936216Y334618D01*
X932265Y330667D01*
X923286Y339646D01*
G37*
G36*
X928943Y345303D02*
X932894Y349254D01*
X941873Y340275D01*
X937922Y336324D01*
X928943Y345303D01*
G37*
G36*
X934600Y350960D02*
X938551Y354911D01*
X947530Y345932D01*
X943579Y341981D01*
X934600Y350960D01*
G37*
G36*
X940256Y356617D02*
X944207Y360568D01*
X953186Y351589D01*
X949235Y347638D01*
X940256Y356617D01*
G37*
G36*
X945913Y362274D02*
X949864Y366225D01*
X958843Y357246D01*
X954892Y353295D01*
X945913Y362274D01*
G37*
D14*
X968756Y447832D03*
X968756Y419832D03*
D15*
X855980Y222250D03*
X800100Y222250D03*
X855980Y260350D03*
X800100Y260350D03*
X855980Y120650D03*
X800100Y120650D03*
X855980Y158750D03*
X800100Y158750D03*
X855980Y19050D03*
X800100Y19050D03*
X855980Y57150D03*
X800100Y57150D03*
X952500Y260350D03*
X1008380Y260350D03*
X952500Y222250D03*
X1008380Y222250D03*
X952500Y158750D03*
X1008380Y158750D03*
X952500Y120650D03*
X1008380Y120650D03*
X952500Y57150D03*
X1008380Y57150D03*
X952500Y19050D03*
X1008380Y19050D03*
D10*
X996070Y317500D03*
X1013070Y317500D03*
D16*
X975360Y355990D03*
X975360Y372990D03*
D17*
X892240Y657200D03*
X892240Y647700D03*
X892240Y638200D03*
X916240Y638200D03*
X916240Y657200D03*
X916240Y647700D03*
D10*
X933568Y672846D03*
X916568Y672846D03*
X893893Y618998D03*
X876893Y618998D03*
X838826Y637540D03*
X821826Y637540D03*
M02*
