M48
;GenerationSoftware,Autodesk,EAGLE,9.5.2*%
;CreationDate,2020-03-11T04:48:20Z*%
FMAT,2
ICI,OFF
METRIC,TZ,000.000
T6C0.381
T5C0.813
T4C0.900
T3C1.000
T2C1.016
T1C1.397
%
G90
M71
T1
X74676Y68580
X48768Y66040
X48768Y68580
X22860Y66040
X100584Y66040
X100584Y68580
X22860Y68580
X74676Y66040
T2
X53086Y36830
X53086Y39370
X53086Y41910
X53086Y44450
X53086Y46990
X58166Y58420
X55626Y58420
X58166Y55880
X55626Y55880
X58166Y53340
X55626Y53340
X69723Y53340
X69469Y50800
X95504Y66040
X95504Y68580
X95631Y62230
X95377Y59690
X95631Y57150
X87884Y55880
X87884Y53340
X87884Y50800
X78994Y34290
X78994Y36830
X78994Y39370
X78994Y41910
X78994Y44450
X78994Y46990
X84074Y58420
X81534Y58420
X84074Y55880
X81534Y55880
X84074Y53340
X81534Y53340
X95631Y53340
X3810Y53340
X95377Y50800
X95631Y48260
X69723Y48260
X17780Y66040
X17780Y68580
X17907Y62230
X17653Y59690
X17907Y57150
X10160Y55880
X10160Y53340
X10160Y50800
X1270Y34290
X1270Y36830
X1270Y39370
X1270Y41910
X1270Y44450
X1270Y46990
X6350Y58420
X3810Y58420
X6350Y55880
X3810Y55880
X6350Y53340
X17907Y53340
X17653Y50800
X17907Y48260
X43688Y66040
X43688Y68580
X43815Y62230
X43561Y59690
X43815Y57150
X36068Y55880
X36068Y53340
X36068Y50800
X27178Y34290
X27178Y36830
X27178Y39370
X27178Y41910
X27178Y44450
X27178Y46990
X32258Y58420
X29718Y58420
X32258Y55880
X29718Y55880
X32258Y53340
X29718Y53340
X43815Y53340
X43561Y50800
X43815Y48260
X69596Y66040
X69596Y68580
X69723Y62230
X69469Y59690
X69723Y57150
X61976Y55880
X61976Y53340
X61976Y50800
X53086Y34290
T3
X75057Y38100
X75057Y40640
X49149Y40640
X23241Y35560
X23241Y38100
X23241Y40640
X100965Y35560
X100965Y38100
X100965Y40640
X49149Y35560
X49149Y38100
X75057Y35560
T4
X78994Y59130
X1270Y59130
X27178Y59130
X1270Y52630
X27178Y52630
X78994Y52630
X53086Y59130
X53086Y52630
T5
X10160Y68580
X1270Y68580
X3810Y68580
X78994Y68580
X81534Y68580
X59436Y68580
X61976Y68580
X33528Y68580
X27178Y68580
X29718Y68580
X36068Y68580
X87884Y68580
X53086Y68580
X55626Y68580
X7620Y68580
X85344Y68580
T6
X36754Y34671
X33655Y31217
X45110Y38735
X41605Y37973
X31001Y61882
X32766Y40615
X30480Y48895
X40259Y35814
X44069Y33782
X30988Y33020
X37846Y60452
X32893Y34290
X41478Y36728
X41275Y54356
X38608Y63754
X37338Y39751
X34925Y42291
X34798Y30480
X30988Y24130
X30988Y13970
X36068Y29210
X30988Y3810
X39624Y29464
X46228Y24130
X43180Y32639
X46228Y13970
X42545Y31115
X46228Y3810
X41148Y30480
X34112Y59157
X32992Y61895
X64287Y64745
X65989Y45212
X68021Y41453
X62662Y34671
X59563Y31217
X71018Y38735
X67513Y37973
X56909Y61882
X58674Y40615
X56388Y48895
X66167Y35814
X69977Y33782
X56896Y33020
X63754Y60452
X58801Y34290
X67386Y36728
X67183Y54356
X64516Y63754
X63246Y39751
X5080Y24130
X60706Y30480
X56896Y24130
X56896Y13970
X61976Y29210
X56896Y3810
X65532Y29464
X72136Y24130
X69088Y32639
X72136Y13970
X68453Y31115
X72136Y3810
X67056Y30480
X60020Y59157
X58900Y61895
X91897Y45212
X93929Y41453
X88570Y34671
X85471Y31217
X96926Y38735
X93421Y37973
X82817Y61882
X84582Y40615
X82296Y48895
X92075Y35814
X95885Y33782
X82804Y33020
X89662Y60452
X84709Y34290
X93294Y36728
X93091Y54356
X90424Y63754
X89154Y39751
X86741Y42291
X86614Y30480
X82804Y24130
X82804Y13970
X87884Y29210
X82804Y3810
X91440Y29464
X98044Y24130
X12471Y64745
X14173Y45212
X16205Y41453
X10846Y34671
X7747Y31217
X19202Y38735
X15697Y37973
X5093Y61882
X6858Y40615
X4572Y48895
X38379Y64745
X14351Y35814
X18161Y33782
X5080Y33020
X11938Y60452
X6985Y34290
X15570Y36728
X15367Y54356
X12700Y63754
X11430Y39751
X9017Y42291
X98044Y13970
X94996Y32639
X60833Y42291
X8890Y30480
X5080Y13970
X85928Y59157
X92964Y30480
X90195Y64745
X10160Y29210
X5080Y3810
X13716Y29464
X20320Y24130
X17272Y32639
X98044Y3810
X94361Y31115
X20320Y13970
X16637Y31115
X20320Y3810
X15240Y30480
X8204Y59157
X7084Y61895
X40081Y45212
X42113Y41453
X84808Y61895
M30